{"glyphs":{"0":{"ha":1038,"x_min":41,"x_max":997,"o":"m 587 861 q 574 862 587 861 q 519 864 562 864 q 452 861 477 864 q 406 844 427 858 q 375 812 385 831 q 358 753 365 793 q 349 667 351 713 q 347 542 347 620 q 349 417 347 464 q 358 330 351 370 q 375 272 365 290 q 406 239 385 253 q 452 223 427 226 q 519 220 477 220 q 587 223 562 220 q 633 239 612 226 q 664 272 654 253 q 681 330 674 290 q 690 417 688 370 q 692 542 692 464 q 690 667 692 620 q 681 753 688 713 q 664 812 674 793 q 633 844 654 831 q 587 861 612 858 m 155 116 q 98 182 155 116 q 41 542 41 249 q 155 967 41 835 q 519 1100 269 1100 q 884 967 770 1100 q 997 542 997 835 q 884 116 997 249 q 519 -17 770 -17 q 155 116 269 -17 z "},"1":{"ha":631,"x_min":41,"x_max":570,"o":"m 306 0 l 306 721 l 41 721 l 41 916 l 168 916 q 243 922 216 916 q 289 946 271 928 q 313 997 307 965 q 319 1083 319 1028 l 570 1083 l 570 0 l 306 0 z "},"2":{"ha":1004,"x_min":41,"x_max":949,"o":"m 949 0 l 50 0 l 50 195 l 529 599 q 620 690 597 656 q 643 770 643 725 q 640 812 643 797 q 629 839 637 827 q 602 855 621 850 q 557 862 583 860 q 486 864 532 864 q 433 863 453 864 q 395 855 412 861 q 370 841 378 849 q 356 815 361 833 q 349 778 350 798 q 347 725 347 758 l 41 725 q 50 857 41 802 q 81 955 59 912 q 135 1025 102 998 q 218 1069 167 1052 q 334 1093 270 1086 q 488 1100 398 1100 q 646 1095 581 1100 q 763 1077 711 1090 q 845 1044 814 1064 q 896 992 876 1025 q 922 920 916 960 q 926 822 928 880 q 926 768 926 800 q 925 721 926 736 q 923 681 925 705 q 918 643 922 656 q 907 610 914 629 q 890 576 901 591 q 864 544 880 562 q 828 509 849 527 l 526 250 l 949 250 l 949 0 z "},"3":{"ha":1075,"x_min":56,"x_max":1006,"o":"m 75 787 q 83 898 75 852 q 112 980 91 943 q 164 1038 132 1016 q 248 1075 196 1060 q 365 1095 299 1089 q 522 1100 430 1100 q 681 1095 615 1100 q 799 1076 747 1090 q 882 1042 850 1063 q 935 987 914 1021 q 964 911 956 954 q 972 808 972 869 q 934 629 972 690 q 812 553 896 568 q 959 474 913 539 q 1006 281 1006 408 q 997 176 1006 220 q 966 98 988 133 q 909 43 943 64 q 819 8 875 22 q 692 -12 763 -6 q 522 -17 622 -17 q 358 -11 426 -17 q 236 11 290 -5 q 149 50 182 26 q 94 112 115 73 q 64 199 73 151 q 56 317 56 248 l 334 317 q 335 280 334 294 q 345 254 337 266 q 362 236 352 241 q 395 226 373 230 q 444 221 417 222 q 514 220 471 220 q 624 224 584 220 q 688 240 664 228 q 720 272 713 253 q 728 325 728 291 q 720 385 728 363 q 688 420 713 406 q 624 437 663 433 q 514 441 585 441 l 346 441 l 346 664 l 522 664 q 618 668 584 664 q 673 684 652 671 q 702 716 695 696 q 708 772 708 736 q 703 818 708 800 q 688 848 699 835 q 655 866 677 861 q 602 875 633 872 q 522 878 572 878 q 372 862 404 878 q 339 787 339 847 l 75 787 z "},"4":{"ha":1025,"x_min":7,"x_max":983,"o":"m 597 0 l 597 191 l 7 191 l 7 358 l 648 1099 l 690 1099 l 690 1100 l 861 1100 l 861 427 l 983 427 l 983 191 l 861 191 l 861 0 l 597 0 m 314 427 l 597 427 l 597 754 l 314 427 z "},"5":{"ha":1082,"x_min":56,"x_max":1013,"o":"m 930 1083 l 930 847 l 383 847 l 368 632 q 461 719 392 692 q 656 746 530 746 q 782 739 730 746 q 875 715 834 732 q 942 670 916 697 q 983 599 967 643 q 1006 500 1000 555 q 1013 367 1013 445 q 1004 232 1013 288 q 975 131 996 176 q 921 60 954 87 q 835 15 888 33 q 715 -10 782 -3 q 553 -17 648 -17 q 378 -11 451 -17 q 249 11 306 -5 q 156 51 191 27 q 97 115 120 75 q 65 204 74 154 q 56 323 56 254 l 361 323 q 359 298 359 309 q 361 277 359 287 q 365 259 363 267 q 373 246 368 252 q 386 236 379 240 q 404 229 392 233 q 427 224 415 226 q 458 221 439 222 q 496 220 477 220 q 542 220 515 220 q 606 221 582 220 q 650 228 630 222 q 680 242 671 234 q 696 268 690 250 q 705 305 703 285 q 707 359 707 326 l 707 361 q 705 425 707 401 q 696 469 703 449 q 678 499 688 490 q 645 516 667 509 q 595 525 622 523 q 525 526 569 526 q 394 508 430 526 q 343 435 358 490 l 89 435 l 136 1083 l 930 1083 z "},"6":{"ha":1034,"x_min":41,"x_max":993,"o":"m 993 374 q 984 236 993 293 q 954 134 976 179 q 899 61 932 89 q 811 15 865 33 q 688 -10 757 -3 q 522 -17 619 -17 q 353 -7 423 -17 q 227 27 283 3 q 137 91 172 52 q 81 191 103 129 q 50 332 58 254 q 41 522 41 411 q 52 720 41 638 q 90 867 62 802 q 158 971 117 932 q 268 1037 200 1011 q 421 1073 336 1063 q 628 1083 507 1083 l 904 1083 l 904 847 l 518 847 q 451 842 475 847 q 406 825 426 838 q 376 785 386 812 q 362 718 367 758 q 355 612 357 677 q 444 724 376 688 q 635 760 511 760 q 761 753 709 760 q 854 728 813 746 q 921 683 896 710 q 963 611 947 655 q 986 510 980 566 q 993 374 993 453 m 355 371 q 357 313 355 334 q 366 272 359 291 q 382 244 372 254 q 413 229 392 235 q 458 221 433 223 q 522 220 482 220 q 586 221 562 220 q 631 230 610 223 q 661 245 651 236 q 677 273 671 254 q 686 314 684 292 q 688 372 688 336 q 686 434 688 411 q 677 477 684 457 q 661 505 671 496 q 631 521 652 514 q 586 529 610 528 q 522 530 562 530 q 395 493 435 530 q 355 371 355 455 z "},"7":{"ha":926,"x_min":7,"x_max":920,"o":"m 7 1083 l 920 1083 l 920 889 l 507 0 l 186 0 l 578 847 l 243 848 l 243 667 l 7 667 l 7 1083 z "},"8":{"ha":1065,"x_min":41,"x_max":1023,"o":"m 533 675 q 604 677 578 675 q 649 684 629 679 q 677 702 669 689 q 688 731 685 714 q 692 777 692 747 q 687 831 692 813 q 664 861 683 850 q 618 875 646 873 q 533 878 590 878 q 472 877 495 878 q 430 871 450 876 q 401 862 410 867 q 385 843 392 856 q 377 816 378 831 q 375 777 375 801 q 377 737 375 752 q 385 710 378 722 q 401 691 392 697 q 430 681 410 685 q 472 676 450 677 q 533 675 495 675 m 41 285 q 95 483 41 416 q 265 564 149 550 q 148 636 185 579 q 111 799 111 693 q 124 923 111 873 q 164 1009 136 973 q 242 1064 191 1044 q 361 1092 292 1083 q 533 1100 430 1100 q 680 1095 618 1100 q 790 1075 741 1089 q 869 1040 839 1061 q 919 984 899 1019 q 947 905 939 949 q 956 799 956 861 q 919 636 956 693 q 803 564 882 579 q 970 483 918 550 q 1023 285 1023 416 q 1014 179 1023 223 q 982 100 1005 134 q 923 43 958 65 q 831 8 888 22 q 704 -12 774 -6 q 533 -17 633 -17 q 362 -12 433 -17 q 234 8 291 -6 q 142 43 177 22 q 83 100 106 65 q 51 179 60 134 q 41 285 41 223 m 347 329 q 349 287 347 303 q 359 258 351 271 q 378 238 367 244 q 412 227 389 231 q 462 221 435 222 q 533 220 489 220 q 605 221 577 220 q 655 227 632 222 q 689 238 677 231 q 708 258 700 244 q 718 287 715 271 q 720 329 720 303 q 718 377 720 359 q 708 410 715 395 q 689 433 700 425 q 654 445 677 440 q 605 452 631 450 q 533 453 578 453 q 461 452 488 453 q 412 445 435 450 q 378 433 389 440 q 359 411 367 426 q 349 377 351 395 q 347 329 347 359 z "},"9":{"ha":1026,"x_min":41,"x_max":985,"o":"m 41 718 q 50 853 41 797 q 80 953 58 909 q 136 1024 102 997 q 223 1069 169 1051 q 347 1093 278 1086 q 513 1100 416 1100 q 678 1090 610 1100 q 801 1054 747 1080 q 889 987 855 1027 q 944 882 922 947 q 975 734 966 817 q 985 534 984 651 q 980 386 985 450 q 964 266 975 321 q 935 170 952 210 q 890 98 918 130 q 828 46 863 66 q 745 13 793 26 q 641 -5 697 0 q 511 -11 585 -11 q 357 -6 421 -11 q 242 13 293 -1 q 161 47 192 26 q 110 102 130 68 q 82 178 90 136 q 74 281 74 220 l 379 281 q 389 245 379 256 q 429 230 399 234 q 529 225 459 225 q 629 231 599 225 q 669 252 659 237 q 679 302 679 267 l 679 501 q 604 402 660 434 q 446 371 547 371 q 303 377 362 371 q 197 399 244 383 q 122 440 151 416 q 75 505 94 465 q 48 596 56 545 q 41 718 41 646 m 347 725 q 349 685 347 701 q 354 655 351 669 q 366 633 357 641 q 385 620 374 626 q 415 611 395 614 q 456 608 435 609 q 513 607 478 607 q 640 636 600 607 q 679 730 679 666 q 677 788 679 766 q 669 827 675 809 q 652 854 662 845 q 622 869 643 863 q 577 876 602 875 q 513 878 553 878 q 449 876 473 878 q 404 868 425 875 q 374 853 384 862 q 357 826 364 844 q 349 785 351 807 q 347 726 347 763 l 347 725 z "}," ":{"ha":416,"x_min":0,"x_max":0,"o":""},"!":{"ha":486,"x_min":83,"x_max":403,"o":"m 83 264 l 403 264 l 403 0 l 83 0 l 83 264 m 90 1111 l 396 1111 l 380 753 l 354 389 l 132 389 l 103 746 l 90 1111 z "},"\"":{"ha":805,"x_min":83,"x_max":764,"o":"m 153 1112 l 83 722 l 250 722 l 431 1112 l 153 1112 m 416 722 l 583 722 l 764 1112 l 486 1112 l 416 722 z "},"#":{"ha":1305,"x_min":69,"x_max":1236,"o":"m 205 0 l 261 236 l 69 236 l 111 431 l 307 431 l 359 653 l 167 653 l 208 847 l 406 847 l 461 1083 l 656 1083 l 600 847 l 822 847 l 878 1083 l 1072 1083 l 1017 847 l 1236 847 l 1194 653 l 971 653 l 918 431 l 1139 431 l 1097 236 l 872 236 l 817 0 l 623 0 l 677 236 l 456 236 l 400 0 l 205 0 m 501 431 l 724 431 l 777 653 l 554 653 l 501 431 z "},"$":{"ha":932,"x_min":41,"x_max":890,"o":"m 306 361 q 308 318 306 334 q 316 288 309 302 q 331 268 322 275 q 360 257 340 262 q 402 251 379 252 q 463 250 425 250 q 543 252 516 250 q 587 263 570 254 q 608 286 604 272 q 612 328 612 300 q 582 385 612 366 q 463 421 552 405 q 416 430 462 421 q 343 444 370 438 q 275 460 317 449 q 204 482 233 471 q 92 562 122 513 q 61 699 61 611 q 71 801 61 759 q 101 873 80 842 q 161 923 123 905 q 254 950 200 941 q 386 962 307 960 l 386 1128 l 581 1128 l 581 960 q 722 936 667 954 q 810 884 777 919 q 856 798 843 848 q 869 668 869 747 l 869 643 l 606 643 l 606 668 q 604 713 606 696 q 597 744 603 730 q 583 765 591 758 q 558 777 575 772 q 522 782 541 781 q 469 783 502 783 q 399 782 422 783 q 361 771 376 780 q 342 750 346 763 q 339 710 339 736 q 366 654 339 671 q 454 625 393 636 q 725 566 611 600 q 856 481 821 538 q 890 322 890 425 q 877 210 890 254 q 826 136 863 166 q 731 91 790 106 q 581 72 673 77 l 581 -122 l 386 -122 l 386 71 q 175 103 248 75 q 72 191 102 131 q 41 361 41 250 l 41 379 l 306 379 l 306 361 z "},"%":{"ha":1340,"x_min":41,"x_max":1299,"o":"m 252 0 l 901 1083 l 1096 1083 l 446 0 l 252 0 m 105 609 q 73 642 105 609 q 41 821 41 675 q 105 1033 41 966 q 313 1099 170 1099 q 519 1033 455 1099 q 583 821 583 967 q 519 609 583 675 q 313 543 456 543 q 105 609 170 543 m 205 877 q 205 866 205 877 q 204 821 204 856 q 205 764 204 785 q 211 725 206 743 q 222 699 216 707 q 241 685 228 690 q 271 677 255 679 q 313 676 286 676 q 355 677 339 676 q 384 685 370 679 q 404 699 397 690 q 414 725 410 707 q 420 764 419 743 q 421 821 421 785 q 420 877 421 856 q 414 916 419 898 q 404 942 410 934 q 384 957 397 951 q 355 964 370 962 q 313 965 339 965 q 271 964 286 965 q 241 957 255 962 q 222 942 228 951 q 211 916 216 934 q 205 877 206 898 m 821 49 q 789 82 821 49 q 757 261 757 115 q 821 473 757 407 q 1028 539 885 539 q 1235 473 1171 539 q 1299 261 1299 408 q 1235 49 1299 115 q 1028 -17 1171 -17 q 821 49 885 -17 m 921 317 q 920 307 921 317 q 920 261 920 296 q 921 205 920 226 q 926 166 922 184 q 937 139 931 148 q 957 125 943 131 q 986 118 970 119 q 1028 117 1002 117 q 1070 118 1055 117 q 1099 125 1086 119 q 1119 139 1112 131 q 1129 166 1125 148 q 1135 205 1134 184 q 1136 261 1136 226 q 1135 317 1136 296 q 1129 356 1134 338 q 1119 383 1125 374 q 1099 397 1112 391 q 1070 404 1086 403 q 1028 406 1055 406 q 986 404 1002 406 q 957 397 970 403 q 937 383 943 391 q 926 356 931 374 q 921 317 922 338 z "},"&":{"ha":1132,"x_min":56,"x_max":1076,"o":"m 1076 236 l 1076 0 l 1007 0 q 830 31 888 0 q 733 151 772 62 q 627 24 699 64 q 441 -17 556 -17 q 259 -4 330 -17 q 141 42 189 8 q 75 132 94 76 q 56 277 56 188 q 105 482 56 413 q 264 564 155 551 q 137 634 177 577 q 97 799 97 691 q 104 905 97 861 q 132 984 112 949 q 181 1040 151 1019 q 260 1075 211 1061 q 370 1095 309 1089 q 518 1100 431 1100 q 692 1092 623 1100 q 812 1067 762 1084 q 889 1017 863 1050 q 928 940 916 985 q 940 827 940 895 l 648 827 q 640 861 648 851 q 606 874 631 871 q 518 878 581 878 q 468 877 486 878 q 433 871 449 876 q 410 862 417 867 q 397 844 402 857 q 390 818 391 832 q 389 779 389 803 q 409 701 389 724 q 476 675 430 679 l 646 675 l 646 730 l 924 730 l 924 675 l 1036 675 l 1036 468 l 936 468 l 936 347 q 939 297 937 315 q 946 266 941 279 q 963 246 951 252 q 990 238 975 241 q 1034 236 1006 236 l 1076 236 m 361 343 q 363 295 361 314 q 372 262 365 277 q 389 239 379 247 q 418 227 398 232 q 459 221 437 222 q 518 220 481 220 q 615 249 585 220 q 646 343 646 279 l 646 467 l 476 467 q 387 440 413 467 q 361 343 361 414 z "},"'":{"ha":430,"x_min":41,"x_max":389,"o":"m 111 1112 l 41 722 l 208 722 l 389 1112 l 111 1112 z "},"(":{"ha":511,"x_min":83,"x_max":484,"o":"m 484 -294 q 178 -125 273 -294 q 83 416 83 43 q 178 959 83 789 q 484 1128 273 1128 l 484 1003 q 439 1001 458 1003 q 404 992 421 999 q 374 976 386 985 q 352 948 363 967 q 335 908 341 929 q 322 850 328 886 q 314 776 317 814 q 309 680 311 738 q 307 562 307 622 q 306 416 306 501 q 307 239 306 310 q 311 103 308 168 q 320 -1 315 37 q 335 -74 325 -40 q 357 -124 345 -108 q 388 -152 368 -140 q 430 -166 408 -163 q 484 -170 451 -170 l 484 -294 z "},")":{"ha":511,"x_min":28,"x_max":428,"o":"m 28 -170 q 82 -166 60 -170 q 123 -152 103 -163 q 155 -124 143 -140 q 176 -74 166 -108 q 192 -1 186 -40 q 200 103 197 37 q 204 239 203 168 q 205 416 205 310 q 205 562 205 501 q 202 680 204 622 q 197 776 200 738 q 189 850 195 814 q 177 908 183 886 q 159 948 170 929 q 137 976 149 967 q 108 992 125 985 q 72 1001 90 999 q 28 1003 54 1003 l 28 1128 q 333 959 238 1128 q 428 416 428 789 q 333 -125 428 43 q 28 -294 238 -294 l 28 -170 z "},"*":{"ha":630,"x_min":41,"x_max":589,"o":"m 370 961 l 492 1069 l 589 918 l 424 876 l 589 835 l 492 684 l 370 791 l 412 642 l 218 642 l 261 791 l 138 684 l 41 835 l 207 876 l 41 918 l 138 1069 l 261 961 l 218 1111 l 412 1111 l 370 961 z "},"+":{"ha":954,"x_min":69,"x_max":885,"o":"m 69 553 l 359 553 l 359 843 l 596 843 l 596 553 l 885 553 l 885 317 l 596 317 l 596 28 l 359 28 l 359 317 l 69 317 l 69 553 z "},",":{"ha":444,"x_min":41,"x_max":361,"o":"m 41 264 l 361 264 l 361 94 q 315 -87 361 -40 q 138 -134 269 -134 l 43 -134 l 43 -56 q 189 -45 151 -56 q 232 0 227 -34 l 41 0 l 41 264 z "},"-":{"ha":694,"x_min":69,"x_max":625,"o":"m 69 553 l 625 553 l 625 317 l 69 317 l 69 553 z "},".":{"ha":486,"x_min":83,"x_max":403,"o":"m 83 264 l 403 264 l 403 0 l 83 0 l 83 264 z "},"/":{"ha":777,"x_min":83,"x_max":694,"o":"m 83 -278 l 528 1111 l 694 1111 l 250 -278 l 83 -278 z "},":":{"ha":402,"x_min":41,"x_max":361,"o":"m 41 819 l 361 819 l 361 555 l 41 555 l 41 819 m 41 0 l 41 264 l 361 264 l 361 0 l 41 0 z "},";":{"ha":430,"x_min":41,"x_max":361,"o":"m 41 819 l 361 819 l 361 555 l 41 555 l 41 819 m 41 0 l 41 264 l 361 264 l 361 94 q 315 -87 361 -40 q 138 -134 269 -134 l 43 -134 l 43 -56 q 189 -45 151 -56 q 232 0 227 -34 l 41 0 z "},"<":{"ha":639,"x_min":97,"x_max":570,"o":"m 97 325 l 97 505 l 570 762 l 570 582 l 254 421 l 254 412 l 570 249 l 570 68 l 97 325 z "},"=":{"ha":954,"x_min":69,"x_max":885,"o":"m 69 386 l 885 386 l 885 150 l 69 150 l 69 386 m 69 525 l 69 761 l 885 761 l 885 525 l 69 525 z "},">":{"ha":611,"x_min":69,"x_max":542,"o":"m 542 325 l 69 68 l 69 249 l 385 412 l 385 421 l 69 582 l 69 762 l 542 505 l 542 325 z "},"?":{"ha":1008,"x_min":41,"x_max":966,"o":"m 323 264 l 643 264 l 643 0 l 323 0 l 323 264 m 41 736 q 49 860 41 808 q 78 952 57 911 q 130 1018 98 993 q 215 1059 162 1042 q 335 1081 267 1075 q 498 1088 403 1088 q 666 1083 597 1088 q 788 1066 734 1078 q 875 1035 842 1053 q 929 985 908 1016 q 959 915 951 954 q 966 821 966 876 q 950 674 966 726 q 893 594 933 623 q 774 550 853 566 q 715 537 737 543 q 674 522 693 531 q 647 503 656 512 q 632 476 638 494 q 624 439 625 458 q 623 389 623 420 l 345 389 q 356 537 345 485 q 397 620 368 590 q 481 668 425 650 q 625 732 589 703 q 661 815 661 762 q 657 857 661 843 q 634 880 652 871 q 586 891 615 889 q 497 893 556 893 q 439 892 460 893 q 398 884 417 890 q 371 868 380 877 q 356 839 363 859 q 349 797 350 820 q 347 736 347 774 l 41 736 z "},"@":{"ha":1162,"x_min":41,"x_max":1121,"o":"m 679 741 l 835 741 l 835 368 l 900 368 q 960 392 949 369 q 968 507 971 414 q 962 623 965 576 q 949 711 958 669 q 930 779 941 753 q 898 826 920 804 q 853 858 877 848 q 790 876 830 869 q 707 886 750 884 q 600 888 665 888 q 480 886 528 888 q 388 876 433 884 q 317 857 343 867 q 268 823 291 846 q 234 774 245 800 q 215 704 223 749 q 205 612 207 660 q 203 493 203 565 q 204 381 203 426 q 213 296 206 337 q 229 231 220 255 q 257 185 238 206 q 299 154 277 163 q 358 136 321 144 q 436 127 395 129 q 536 125 476 125 l 777 125 l 777 0 l 536 0 q 362 9 434 0 q 232 42 290 18 q 140 101 175 65 q 82 196 105 137 q 50 329 59 254 q 41 507 41 403 q 51 685 41 612 q 87 818 61 759 q 153 912 113 876 q 257 971 193 947 q 403 1003 321 994 q 600 1013 485 1013 q 784 1003 707 1013 q 920 971 860 994 q 1017 912 980 947 q 1078 818 1054 876 q 1112 685 1102 759 q 1121 507 1121 612 q 1067 306 1121 369 q 895 243 1013 243 l 685 243 l 685 371 q 635 267 675 300 q 521 235 596 235 q 443 242 474 235 q 389 268 412 250 q 354 317 366 285 q 337 395 342 350 q 332 507 332 439 q 347 659 332 608 q 400 731 363 710 q 513 751 438 751 q 627 727 587 751 q 679 648 666 703 l 679 741 m 497 507 q 499 435 497 458 q 512 395 501 411 q 538 376 522 379 q 587 372 554 372 q 657 387 635 372 q 679 431 679 401 l 679 534 q 657 595 679 576 q 587 614 635 614 q 538 611 554 614 q 512 596 522 608 q 499 565 501 583 q 497 507 497 546 z "},"A":{"ha":1201,"x_min":7,"x_max":1194,"o":"m 847 1083 l 1194 0 l 861 0 l 803 211 l 386 211 l 321 0 l 7 0 l 364 1083 l 847 1083 m 461 447 l 730 447 l 602 847 l 593 847 l 461 447 z "},"B":{"ha":1123,"x_min":69,"x_max":1068,"o":"m 69 1083 l 724 1083 q 871 1071 815 1083 q 964 1027 927 1059 q 1015 941 1001 994 q 1029 802 1029 888 q 980 624 1029 686 q 829 547 930 562 q 1010 471 951 534 q 1068 285 1068 407 q 1061 184 1068 227 q 1038 110 1055 142 q 996 57 1021 77 q 930 23 970 37 q 841 5 890 10 q 724 0 792 0 l 69 0 l 69 1083 m 361 222 l 635 222 q 693 225 673 222 q 730 232 714 227 q 752 251 746 237 q 761 281 758 264 q 764 329 764 298 q 733 413 764 387 q 635 439 703 439 l 361 439 l 361 222 m 361 661 l 607 661 q 697 684 669 661 q 725 760 725 707 q 722 814 725 797 q 706 844 720 832 q 671 859 692 857 q 607 861 650 861 l 361 861 l 361 661 z "},"C":{"ha":1187,"x_min":41,"x_max":1147,"o":"m 1146 460 q 1137 292 1147 361 q 1103 168 1128 222 q 1039 79 1078 113 q 936 22 1000 45 q 791 -8 872 0 q 596 -17 710 -17 q 401 -7 482 -17 q 256 29 320 3 q 153 95 192 55 q 87 199 113 134 q 51 345 61 263 q 41 542 41 427 q 51 739 41 657 q 87 885 61 821 q 153 989 113 949 q 256 1055 192 1029 q 401 1090 320 1080 q 596 1100 482 1100 q 747 1095 682 1100 q 869 1079 813 1090 q 965 1050 925 1067 q 1038 1005 1006 1033 q 1090 943 1070 978 q 1123 861 1110 909 q 1142 756 1137 812 q 1146 627 1147 700 l 840 627 q 839 719 841 684 q 827 783 837 753 q 803 826 817 812 q 758 849 789 840 q 692 862 728 859 q 596 864 656 864 q 499 861 536 864 q 432 844 463 858 q 387 812 401 831 q 362 754 373 793 q 350 667 352 714 q 347 542 347 621 q 350 416 347 463 q 362 330 352 370 q 387 272 373 290 q 432 239 401 253 q 499 223 463 226 q 596 220 536 220 q 692 222 656 220 q 758 234 728 224 q 803 258 789 244 q 827 302 817 272 q 839 367 837 332 q 840 460 841 401 l 1146 460 z "},"D":{"ha":1165,"x_min":69,"x_max":1124,"o":"m 361 833 l 359 542 l 361 250 l 599 250 q 665 252 639 250 q 716 259 692 253 q 755 273 741 265 q 782 298 770 281 q 801 334 795 315 q 811 386 807 353 q 817 454 816 418 q 818 542 818 489 q 817 630 818 595 q 811 698 816 665 q 801 750 807 730 q 782 786 795 769 q 755 811 770 803 q 716 825 741 819 q 665 832 692 831 q 599 833 639 833 l 361 833 m 69 0 l 69 1083 l 629 1083 q 804 1074 732 1083 q 933 1039 876 1064 q 1025 976 990 1014 q 1083 874 1061 937 q 1115 733 1106 812 q 1124 542 1124 654 q 1115 351 1124 430 q 1083 209 1106 272 q 1025 108 1061 146 q 933 45 990 70 q 804 10 876 20 q 629 0 732 0 l 69 0 z "},"E":{"ha":1017,"x_min":69,"x_max":961,"o":"m 69 1083 l 958 1083 l 958 833 l 361 833 l 361 667 l 903 667 l 903 431 l 361 431 l 361 250 l 961 250 l 961 0 l 69 0 l 69 1083 z "},"F":{"ha":1014,"x_min":69,"x_max":958,"o":"m 69 1083 l 958 1083 l 958 833 l 361 833 l 361 639 l 903 639 l 903 389 l 361 389 l 361 0 l 69 0 l 69 1083 z "},"G":{"ha":1189,"x_min":41,"x_max":1134,"o":"m 614 581 l 1133 581 l 1133 0 l 869 0 l 869 174 q 775 29 844 75 q 589 -17 707 -17 q 396 -7 476 -17 q 253 29 316 3 q 151 95 189 55 q 86 199 112 134 q 51 345 61 263 q 41 542 41 427 q 51 739 41 657 q 86 885 61 821 q 151 989 112 949 q 253 1054 189 1028 q 396 1090 316 1080 q 589 1100 476 1100 q 782 1093 702 1100 q 925 1067 862 1086 q 1027 1020 988 1048 q 1090 944 1065 991 q 1125 839 1116 898 q 1133 697 1134 781 l 828 697 q 828 748 829 728 q 822 786 827 768 q 811 816 818 805 q 791 837 805 827 q 761 851 777 846 q 718 859 745 855 q 662 863 691 862 q 589 864 633 864 q 515 862 545 864 q 459 854 486 861 q 416 839 432 848 q 386 811 400 830 q 366 772 372 793 q 355 714 359 751 q 349 640 350 678 q 347 542 347 601 q 349 444 347 483 q 355 369 350 406 q 366 312 359 333 q 386 272 372 291 q 416 245 400 254 q 459 230 432 236 q 515 221 486 223 q 589 220 545 220 q 773 253 714 220 q 836 358 832 286 l 614 358 l 614 581 z "},"H":{"ha":1139,"x_min":69,"x_max":1069,"o":"m 69 0 l 69 1083 l 361 1083 l 361 677 l 778 677 l 778 1083 l 1069 1083 l 1069 0 l 778 0 l 778 428 l 361 428 l 361 0 l 69 0 z "},"I":{"ha":430,"x_min":69,"x_max":361,"o":"m 69 0 l 69 1083 l 361 1083 l 361 0 l 69 0 z "},"J":{"ha":947,"x_min":41,"x_max":892,"o":"m 334 364 q 335 309 334 330 q 342 271 336 289 q 355 245 347 254 q 379 231 363 237 q 416 224 396 225 q 468 222 435 222 q 519 224 500 222 q 555 231 538 225 q 579 245 572 237 q 592 271 587 253 q 599 309 597 288 q 600 363 600 329 l 600 1083 l 892 1083 l 892 363 q 884 230 892 285 q 857 130 877 174 q 807 59 838 86 q 728 15 777 33 q 617 -10 680 -3 q 468 -17 555 -17 q 317 -10 380 -17 q 206 14 255 -3 q 126 59 157 32 q 76 130 96 86 q 49 230 56 174 q 41 364 41 286 l 41 475 l 334 475 l 334 364 z "},"K":{"ha":1093,"x_min":69,"x_max":1086,"o":"m 69 0 l 69 1083 l 361 1083 l 361 555 l 721 1083 l 1059 1083 l 730 606 l 1086 0 l 764 0 l 528 414 l 361 228 l 361 0 l 69 0 z "},"L":{"ha":895,"x_min":69,"x_max":889,"o":"m 69 1083 l 361 1083 l 361 250 l 889 250 l 889 0 l 69 0 l 69 1083 z "},"M":{"ha":1516,"x_min":69,"x_max":1447,"o":"m 361 0 l 69 0 l 69 1083 l 597 1083 l 760 278 l 771 278 l 935 1083 l 1447 1083 l 1447 0 l 1156 0 l 1156 806 l 1147 806 l 983 0 l 532 0 l 370 806 l 361 806 l 361 0 z "},"N":{"ha":1194,"x_min":69,"x_max":1125,"o":"m 69 0 l 69 1083 l 346 1083 l 825 492 l 833 492 l 833 1083 l 1125 1083 l 1125 0 l 850 0 l 370 590 l 361 590 l 361 0 l 69 0 z "},"O":{"ha":1208,"x_min":41,"x_max":1166,"o":"m 682 862 q 667 863 682 862 q 604 864 651 864 q 526 862 557 864 q 466 854 495 861 q 421 839 437 848 q 389 811 404 830 q 367 772 374 793 q 355 714 360 751 q 349 640 350 678 q 347 542 347 601 q 349 444 347 483 q 355 369 350 406 q 367 312 360 333 q 389 272 374 291 q 421 245 404 254 q 466 230 437 236 q 526 221 495 223 q 604 220 557 220 q 682 221 651 220 q 742 230 713 223 q 788 245 771 236 q 819 272 804 254 q 841 312 834 291 q 853 369 848 333 q 860 444 859 406 q 861 542 861 483 q 860 640 861 601 q 853 714 859 678 q 841 772 848 751 q 819 811 834 793 q 788 839 804 830 q 742 854 771 848 q 682 862 713 861 m 52 345 q 46 386 52 345 q 41 542 41 427 q 52 739 41 657 q 88 885 62 821 q 154 989 114 949 q 258 1054 193 1028 q 406 1090 323 1080 q 604 1100 488 1100 q 803 1090 720 1100 q 950 1054 885 1080 q 1055 989 1015 1028 q 1120 885 1095 949 q 1156 739 1146 821 q 1166 542 1166 657 q 1156 345 1166 427 q 1120 199 1146 263 q 1055 95 1095 134 q 950 29 1015 55 q 803 -7 885 3 q 604 -17 720 -17 q 406 -7 488 -17 q 258 29 323 3 q 154 95 193 55 q 88 199 114 134 q 52 345 62 263 z "},"P":{"ha":1091,"x_min":69,"x_max":1050,"o":"m 69 1083 l 689 1083 q 816 1077 764 1083 q 910 1054 869 1070 q 978 1011 952 1037 q 1020 944 1004 985 q 1043 849 1037 902 q 1050 722 1050 797 q 1044 598 1050 650 q 1022 505 1038 547 q 983 438 1007 464 q 921 393 960 412 q 832 366 882 375 q 714 354 783 357 l 361 354 l 361 0 l 69 0 l 69 1083 m 361 604 l 614 604 q 670 605 649 604 q 709 611 691 606 q 735 623 727 616 q 749 644 743 629 q 757 675 755 659 q 758 721 758 692 q 757 770 758 752 q 749 804 755 788 q 735 827 743 820 q 709 840 727 834 q 670 846 691 845 q 614 847 649 847 l 361 847 l 361 604 z "},"Q":{"ha":1253,"x_min":41,"x_max":1211,"o":"m 647 236 q 712 238 686 236 q 763 245 739 239 q 802 260 787 252 q 828 286 816 269 q 847 324 841 304 q 858 378 853 344 q 863 449 862 412 q 864 542 864 486 q 861 667 864 621 q 848 754 859 714 q 822 812 838 793 q 775 844 807 831 q 706 861 743 858 q 606 864 669 864 q 505 861 543 864 q 436 844 468 858 q 389 812 404 831 q 363 754 374 793 q 350 667 353 714 q 347 542 347 621 q 350 423 347 467 q 362 341 352 378 q 387 285 373 303 q 432 255 401 267 q 499 239 463 242 q 595 236 534 236 l 647 236 m 41 542 q 52 739 41 657 q 88 885 62 821 q 154 989 114 949 q 259 1054 194 1028 q 407 1090 324 1080 q 606 1100 489 1100 q 805 1090 722 1100 q 952 1054 887 1080 q 1057 989 1017 1028 q 1123 885 1097 949 q 1159 739 1149 821 q 1169 542 1169 657 q 1118 331 1169 405 q 956 236 1067 257 l 1211 236 l 1211 0 l 606 0 q 407 10 489 0 q 259 45 324 20 q 154 108 194 70 q 88 209 114 146 q 52 351 62 272 q 41 542 41 430 z "},"R":{"ha":1105,"x_min":69,"x_max":1050,"o":"m 689 1083 q 816 1078 764 1083 q 910 1058 869 1072 q 978 1021 952 1043 q 1020 963 1004 999 q 1043 881 1037 926 q 1050 770 1050 835 q 998 568 1050 636 q 832 485 946 500 q 996 421 943 473 q 1050 267 1050 369 l 1050 0 l 745 0 l 745 250 q 743 302 745 283 q 735 337 742 321 q 718 361 728 353 q 688 374 709 368 q 643 380 667 379 q 578 382 619 382 l 361 382 l 361 0 l 69 0 l 69 1083 l 689 1083 m 361 604 l 614 604 q 670 605 649 604 q 709 612 691 606 q 735 624 727 617 q 749 647 743 631 q 757 680 755 662 q 758 728 758 697 q 757 774 758 757 q 750 806 755 791 q 735 828 744 821 q 709 840 727 835 q 670 846 691 845 q 614 847 649 847 l 361 847 l 361 604 z "},"S":{"ha":1114,"x_min":41,"x_max":1072,"o":"m 555 220 q 637 220 607 220 q 694 225 667 221 q 732 234 720 229 q 753 250 745 239 q 764 273 762 260 q 766 307 766 286 q 714 380 766 354 q 509 436 662 406 q 326 479 399 458 q 200 528 254 501 q 119 590 147 554 q 78 669 90 625 q 65 775 65 713 q 74 890 65 842 q 107 975 83 937 q 165 1035 130 1012 q 258 1073 201 1058 q 389 1094 316 1088 q 564 1100 461 1100 q 740 1093 667 1100 q 870 1067 812 1086 q 964 1021 928 1049 q 1024 947 1000 993 q 1056 843 1047 901 q 1065 704 1065 785 l 760 704 q 759 752 760 733 q 753 790 758 772 q 744 818 749 808 q 727 838 739 829 q 703 851 715 847 q 668 859 690 856 q 622 863 646 863 q 564 864 599 864 q 477 862 508 864 q 422 856 446 860 q 389 840 398 851 q 375 814 379 829 q 371 772 371 799 q 409 709 371 730 q 558 664 446 687 q 768 615 684 640 q 913 562 852 591 q 1008 494 975 532 q 1057 407 1042 455 q 1072 292 1072 359 q 1063 183 1072 228 q 1030 102 1054 138 q 970 44 1006 66 q 875 8 934 22 q 742 -12 816 -6 q 564 -17 668 -17 q 380 -10 456 -17 q 244 14 304 -3 q 146 59 184 32 q 85 130 109 86 q 51 230 60 174 q 41 364 41 286 l 347 364 q 348 320 347 338 q 354 287 349 302 q 364 261 358 271 q 382 243 370 251 q 408 231 394 235 q 445 224 421 227 q 493 220 468 221 q 555 220 517 220 z "},"T":{"ha":972,"x_min":7,"x_max":965,"o":"m 339 0 l 339 833 l 7 833 l 7 1083 l 965 1083 l 965 833 l 631 833 l 631 0 l 339 0 z "},"U":{"ha":1072,"x_min":56,"x_max":1017,"o":"m 1017 444 q 1008 281 1017 349 q 977 161 1000 214 q 921 75 955 107 q 831 21 887 42 q 706 -9 776 -1 q 536 -17 635 -17 q 367 -9 437 -17 q 241 21 297 -1 q 152 75 186 42 q 95 160 117 107 q 64 281 73 214 q 56 444 56 349 l 56 1083 l 347 1083 l 347 444 q 349 357 347 389 q 359 296 351 324 q 378 256 367 269 q 412 233 389 243 q 463 222 436 224 q 536 220 490 220 q 610 222 583 220 q 660 233 637 224 q 694 256 684 243 q 713 296 705 269 q 723 357 722 324 q 725 444 725 389 l 725 1083 l 1017 1083 l 1017 444 z "},"V":{"ha":1155,"x_min":7,"x_max":1149,"o":"m 1149 1083 l 794 0 l 334 0 l 7 1083 l 326 1083 l 570 278 l 578 278 l 842 1083 l 1149 1083 z "},"W":{"ha":1670,"x_min":7,"x_max":1664,"o":"m 1086 1083 l 1218 250 l 1229 250 l 1381 1083 l 1664 1083 l 1459 0 l 968 0 l 836 833 l 825 833 l 714 0 l 218 0 l 7 1083 l 304 1083 l 461 250 l 472 250 l 582 1083 l 1086 1083 z "},"X":{"ha":1136,"x_min":7,"x_max":1129,"o":"m 375 1083 l 561 692 l 570 692 l 768 1083 l 1103 1083 l 802 545 l 1129 0 l 772 0 l 555 397 l 545 397 l 339 0 l 7 0 l 313 545 l 33 1083 l 375 1083 z "},"Y":{"ha":1058,"x_min":7,"x_max":1051,"o":"m 1051 1083 l 726 416 l 685 416 l 685 0 l 393 0 l 393 416 l 342 416 l 7 1083 l 334 1083 l 536 637 l 545 637 l 742 1083 l 1051 1083 z "},"Z":{"ha":1183,"x_min":56,"x_max":1128,"o":"m 87 1083 l 1099 1083 l 1099 843 l 452 250 l 1128 250 l 1128 0 l 56 0 l 56 268 l 673 833 l 87 833 l 87 1083 z "},"[":{"ha":472,"x_min":83,"x_max":389,"o":"m 389 1111 l 389 986 l 292 986 l 292 -153 l 389 -153 l 389 -278 l 83 -278 l 83 1111 l 389 1111 z "},"\\":{"ha":777,"x_min":83,"x_max":694,"o":"m 694 -278 l 528 -278 l 83 1111 l 250 1111 l 694 -278 z "},"]":{"ha":472,"x_min":83,"x_max":389,"o":"m 389 1111 l 389 -278 l 83 -278 l 83 -153 l 180 -153 l 180 986 l 83 986 l 83 1111 l 389 1111 z "},"^":{"ha":694,"x_min":69,"x_max":625,"o":"m 260 954 l 435 954 l 625 635 l 471 635 l 353 839 l 345 839 l 224 635 l 69 635 l 260 954 z "},"_":{"ha":954,"x_min":69,"x_max":885,"o":"m 69 -41 l 885 -41 l 885 -236 l 69 -236 l 69 -41 z "},"`":{"ha":541,"x_min":167,"x_max":542,"o":"m 542 917 l 375 917 l 167 1112 l 444 1112 l 542 917 z "},"a":{"ha":915,"x_min":41,"x_max":860,"o":"m 473 850 q 609 845 553 850 q 710 826 666 840 q 783 792 755 812 q 828 738 810 771 q 853 663 846 705 q 860 561 860 621 l 860 0 l 596 0 l 596 114 q 519 16 575 47 q 364 -17 463 -16 q 251 -16 298 -19 q 166 -1 203 -12 q 106 28 129 10 q 68 77 83 46 q 47 146 53 107 q 41 240 41 185 q 47 330 41 292 q 67 396 53 367 q 105 444 82 425 q 164 473 127 462 q 247 490 201 485 q 359 494 294 494 l 596 496 l 596 543 q 593 594 596 576 q 585 626 591 612 q 563 646 578 640 q 527 653 547 651 q 471 656 507 656 q 416 655 437 656 q 379 649 396 654 q 354 638 361 644 q 340 618 346 632 q 334 589 335 605 q 334 547 333 574 l 69 547 l 69 576 q 76 673 69 633 q 102 745 83 713 q 150 796 121 777 q 225 828 178 815 q 331 845 272 840 q 473 850 390 850 m 319 237 q 322 207 319 218 q 333 187 325 196 q 358 176 342 178 q 402 172 375 174 q 471 172 430 170 q 566 196 536 174 q 596 265 596 218 l 596 301 l 471 300 q 402 298 426 300 q 359 294 378 297 q 333 284 340 292 q 322 266 326 276 q 319 237 319 256 z "},"b":{"ha":964,"x_min":69,"x_max":922,"o":"m 69 1111 l 334 1111 l 334 721 q 424 819 356 788 q 611 850 492 850 q 721 842 675 850 q 802 814 766 834 q 860 764 838 794 q 897 683 882 733 q 917 569 911 633 q 922 416 922 506 q 917 263 922 327 q 896 150 911 200 q 857 69 880 100 q 797 19 834 39 q 712 -9 760 -1 q 597 -17 665 -17 q 410 29 475 -17 q 326 174 344 75 l 326 0 l 69 0 l 69 1111 m 334 294 q 486 205 334 205 q 548 208 525 205 q 591 218 571 210 q 619 239 610 227 q 635 277 628 251 q 643 334 642 304 q 644 416 644 365 q 643 498 644 468 q 635 555 642 529 q 621 594 629 582 q 595 615 613 606 q 557 626 578 624 q 501 628 536 628 q 373 590 413 628 q 334 469 334 553 l 334 294 z "},"c":{"ha":940,"x_min":41,"x_max":899,"o":"m 478 -17 q 324 -9 388 -17 q 210 19 260 -1 q 129 69 160 39 q 77 150 98 100 q 49 263 57 200 q 41 416 41 327 q 49 569 41 506 q 77 683 57 633 q 129 764 98 733 q 210 814 160 794 q 324 842 260 834 q 478 850 388 850 q 623 843 563 850 q 731 820 683 837 q 808 777 779 803 q 859 708 838 751 q 888 612 879 666 q 899 484 897 559 l 621 484 q 617 545 619 522 q 609 588 615 568 q 594 616 602 608 q 569 632 586 625 q 531 640 551 639 q 478 642 511 642 q 416 640 439 642 q 374 628 393 637 q 345 606 354 618 q 329 565 336 593 q 321 504 322 536 q 319 416 319 471 q 321 329 319 361 q 329 269 322 296 q 345 228 336 241 q 374 205 354 215 q 416 194 393 196 q 478 192 439 192 q 531 194 511 192 q 568 202 551 195 q 593 218 585 209 q 607 247 601 227 q 616 290 614 267 q 621 353 618 313 l 899 353 q 888 222 897 277 q 860 125 880 168 q 809 57 840 83 q 731 14 779 31 q 623 -10 684 -3 q 478 -17 563 -17 z "},"d":{"ha":964,"x_min":41,"x_max":895,"o":"m 895 1111 l 895 0 l 637 0 l 637 174 q 554 29 620 75 q 367 -17 489 -17 q 252 -9 300 -17 q 167 19 205 -1 q 106 69 130 39 q 68 150 83 100 q 47 263 53 200 q 41 416 41 327 q 47 569 41 506 q 67 683 52 633 q 103 764 81 733 q 161 814 125 794 q 243 842 197 834 q 353 850 288 850 q 540 819 472 850 q 631 721 608 788 l 631 1111 l 895 1111 m 321 498 q 320 483 321 498 q 319 416 319 468 q 321 334 319 365 q 329 277 322 304 q 345 239 336 251 q 374 218 354 227 q 416 208 393 210 q 478 205 439 205 q 631 294 631 205 l 631 469 q 591 590 631 553 q 463 628 551 628 q 407 626 428 628 q 368 615 386 624 q 342 594 351 606 q 328 555 334 582 q 321 498 322 529 z "},"e":{"ha":930,"x_min":41,"x_max":889,"o":"m 882 265 q 872 166 880 207 q 844 92 863 125 q 794 40 824 60 q 718 6 765 20 q 610 -12 670 -7 q 465 -17 549 -17 q 316 -9 378 -17 q 205 19 254 -1 q 126 69 156 39 q 76 150 96 100 q 49 263 56 200 q 41 416 41 327 q 49 569 41 506 q 76 683 56 633 q 126 764 96 733 q 205 814 156 794 q 316 842 254 834 q 465 850 378 850 q 611 843 550 850 q 720 819 671 836 q 798 774 768 801 q 849 703 829 747 q 878 604 869 659 q 889 471 887 549 l 889 342 l 321 342 q 329 254 323 286 q 354 205 336 223 q 396 182 372 187 q 467 178 420 178 q 576 195 549 178 q 604 265 604 213 l 882 265 m 322 536 l 611 536 q 605 601 610 578 q 583 636 600 623 q 541 653 566 650 q 467 656 516 656 q 401 652 425 656 q 360 636 378 648 q 334 600 342 623 q 322 536 326 576 z "},"f":{"ha":646,"x_min":41,"x_max":639,"o":"m 471 917 q 402 905 415 917 q 389 842 389 892 l 389 833 l 611 833 l 611 611 l 389 611 l 389 0 l 125 0 l 125 611 l 41 611 l 41 833 l 125 833 q 139 971 125 920 q 193 1055 153 1023 q 294 1099 232 1088 q 458 1111 355 1111 l 639 1111 l 639 917 l 471 917 z "},"g":{"ha":964,"x_min":41,"x_max":895,"o":"m 467 -294 q 296 -287 364 -294 q 179 -261 229 -279 q 103 -209 130 -243 q 65 -130 77 -176 q 53 -14 53 -83 l 330 -14 q 334 -55 330 -41 q 353 -78 338 -69 q 393 -90 369 -87 q 467 -92 418 -92 q 555 -90 526 -92 q 603 -78 585 -87 q 626 -55 622 -69 q 631 -14 631 -41 l 631 197 q 544 72 611 111 q 353 32 476 32 q 243 39 288 32 q 161 66 197 47 q 103 114 125 85 q 67 190 81 142 q 47 297 52 237 q 41 441 41 357 q 47 585 41 526 q 68 692 53 645 q 106 768 83 739 q 167 816 130 798 q 252 842 205 835 q 367 850 300 850 q 554 808 489 850 q 637 676 620 766 l 637 833 l 895 833 l 895 -53 q 887 -138 895 -102 q 859 -201 879 -174 q 809 -246 840 -229 q 729 -274 779 -263 q 617 -290 680 -286 q 467 -294 555 -294 m 319 441 q 321 368 319 395 q 329 318 322 341 q 345 284 336 295 q 374 266 354 273 q 416 256 393 258 q 478 254 439 254 q 591 277 552 254 q 631 345 631 300 l 631 468 q 591 590 631 552 q 464 628 551 628 q 408 626 429 628 q 369 617 387 625 q 342 598 351 609 q 328 564 334 587 q 321 514 322 541 q 319 441 319 487 z "},"h":{"ha":915,"x_min":69,"x_max":860,"o":"m 69 1111 l 334 1111 l 334 701 q 414 814 353 778 q 585 850 475 850 q 719 837 669 850 q 802 787 770 823 q 847 693 835 751 q 859 539 859 635 l 860 0 l 596 0 l 596 476 q 595 535 596 513 q 589 576 594 557 q 578 604 585 595 q 557 619 571 612 q 526 627 543 625 q 481 628 509 628 q 369 589 404 628 q 334 463 334 549 l 334 0 l 69 0 l 69 1111 z "},"i":{"ha":402,"x_min":62,"x_max":340,"o":"m 69 833 l 334 833 l 334 0 l 69 0 l 69 833 m 62 917 l 62 1111 l 340 1111 l 340 917 l 62 917 z "},"j":{"ha":443,"x_min":7,"x_max":374,"o":"m 7 -41 q 85 -26 67 -41 q 103 43 103 -10 l 103 833 l 367 833 l 367 3 q 361 -97 367 -56 q 339 -170 355 -138 q 300 -222 324 -202 q 238 -255 277 -242 q 152 -273 200 -268 q 35 -278 103 -278 l 7 -278 l 7 -41 m 96 917 l 96 1111 l 374 1111 l 374 917 l 96 917 z "},"k":{"ha":918,"x_min":69,"x_max":911,"o":"m 69 0 l 69 1111 l 334 1111 l 334 518 l 589 833 l 911 833 l 606 457 l 901 0 l 603 0 l 415 300 l 334 229 l 334 0 l 69 0 z "},"l":{"ha":484,"x_min":68,"x_max":443,"o":"m 443 236 l 443 0 l 292 0 q 181 10 222 0 q 113 46 139 20 q 78 115 87 73 q 69 228 68 157 l 69 1111 l 334 1111 l 334 307 q 351 248 334 259 q 443 236 369 236 z "},"m":{"ha":1416,"x_min":69,"x_max":1361,"o":"m 69 833 l 334 833 l 334 737 q 402 823 355 795 q 529 850 450 850 q 737 813 674 850 q 817 679 800 777 q 890 808 836 767 q 1043 850 945 850 q 1155 843 1109 850 q 1238 820 1202 837 q 1298 777 1275 803 q 1335 708 1320 751 q 1355 612 1350 666 q 1361 484 1361 559 l 1361 0 l 1097 0 l 1097 449 q 1096 518 1097 492 q 1090 567 1095 545 q 1078 599 1084 589 q 1056 617 1071 610 q 1023 626 1040 625 q 975 628 1005 628 q 876 588 907 628 q 846 458 844 547 l 846 0 l 585 0 l 585 449 q 583 518 585 492 q 577 567 582 545 q 565 600 572 589 q 542 617 557 610 q 509 626 527 625 q 461 628 491 628 q 364 588 395 628 q 334 458 334 547 l 334 0 l 69 0 l 69 833 z "},"n":{"ha":915,"x_min":69,"x_max":860,"o":"m 69 833 l 334 833 l 334 703 q 414 814 353 779 q 585 850 475 850 q 682 844 642 850 q 753 824 722 839 q 804 788 785 810 q 836 730 823 766 q 854 649 849 694 q 859 539 859 604 l 860 0 l 596 0 l 596 472 q 595 532 596 510 q 589 574 594 555 q 578 603 585 594 q 556 618 571 612 q 525 627 542 625 q 479 628 508 628 q 369 591 404 628 q 335 472 335 553 l 334 0 l 69 0 l 69 833 z "},"o":{"ha":956,"x_min":41,"x_max":914,"o":"m 540 640 q 528 641 540 640 q 478 642 517 642 q 416 640 439 642 q 374 628 393 637 q 345 606 354 618 q 329 565 336 593 q 321 504 322 536 q 319 416 319 471 q 321 329 319 361 q 329 269 322 296 q 345 228 336 241 q 374 205 354 215 q 416 194 393 196 q 478 192 439 192 q 540 194 517 192 q 583 205 563 196 q 611 228 602 215 q 627 269 620 241 q 635 329 633 296 q 636 416 636 361 q 635 504 636 471 q 627 565 633 536 q 611 606 620 593 q 583 628 602 618 q 540 640 563 637 m 49 263 q 45 295 49 263 q 41 416 41 327 q 49 569 41 506 q 77 683 57 633 q 129 764 98 733 q 210 814 160 794 q 324 842 260 834 q 478 850 388 850 q 632 842 568 850 q 746 814 695 834 q 827 764 796 794 q 878 683 858 733 q 906 569 899 633 q 914 416 914 506 q 906 263 914 327 q 878 150 899 200 q 827 69 858 100 q 746 19 796 39 q 632 -9 695 -1 q 478 -17 568 -17 q 324 -9 388 -17 q 210 19 260 -1 q 129 69 160 39 q 77 150 98 100 q 49 263 57 200 z "},"p":{"ha":964,"x_min":69,"x_max":922,"o":"m 69 -278 l 69 833 l 326 833 l 326 676 q 409 808 344 766 q 597 850 475 850 q 712 842 665 850 q 797 814 760 834 q 857 764 834 794 q 896 683 880 733 q 917 569 911 633 q 922 416 922 506 q 917 263 922 327 q 897 150 911 200 q 860 69 882 100 q 802 19 838 39 q 721 -9 766 -1 q 611 -17 675 -17 q 420 23 488 -17 q 334 149 353 62 l 334 -278 l 69 -278 m 334 296 q 373 228 334 251 q 486 205 412 205 q 548 208 525 205 q 591 218 571 210 q 619 239 610 227 q 635 277 628 251 q 643 334 642 304 q 644 416 644 365 q 643 488 644 460 q 639 541 642 516 q 629 580 636 566 q 612 604 621 593 q 586 620 603 615 q 549 626 568 624 q 500 628 530 628 q 373 590 413 628 q 334 468 334 552 l 334 296 z "},"q":{"ha":964,"x_min":41,"x_max":895,"o":"m 895 -278 l 631 -278 l 631 149 q 544 23 611 62 q 353 -17 476 -17 q 243 -9 288 -17 q 161 19 197 -1 q 103 69 125 39 q 67 150 81 100 q 47 263 52 200 q 41 416 41 327 q 47 569 41 506 q 68 683 53 633 q 106 764 83 733 q 167 814 130 794 q 252 842 205 834 q 367 850 300 850 q 554 808 489 850 q 637 676 620 766 l 637 833 l 895 833 l 895 -278 m 321 498 q 320 483 321 498 q 319 416 319 468 q 321 334 319 365 q 329 277 322 304 q 345 239 336 251 q 374 218 354 227 q 416 208 393 210 q 478 205 439 205 q 591 228 552 205 q 631 296 631 251 l 631 468 q 591 590 631 552 q 464 628 551 628 q 408 626 429 628 q 369 615 387 624 q 342 594 351 606 q 328 555 334 582 q 321 498 322 529 z "},"r":{"ha":694,"x_min":69,"x_max":667,"o":"m 69 833 l 334 833 l 334 679 q 409 796 351 759 q 571 833 467 833 l 667 833 l 667 599 l 479 599 q 368 568 402 599 q 334 468 334 537 l 334 0 l 69 0 l 69 833 z "},"s":{"ha":932,"x_min":41,"x_max":890,"o":"m 306 261 q 309 223 306 237 q 319 200 312 210 q 347 185 327 189 q 391 179 366 181 q 463 178 416 178 q 563 182 534 178 q 602 199 592 186 q 612 241 612 211 q 573 291 612 273 q 415 330 533 309 q 269 365 327 347 q 169 402 211 382 q 104 451 126 423 q 71 514 81 479 q 61 599 61 549 q 73 703 61 661 q 110 774 84 744 q 185 820 136 804 q 301 843 234 836 q 469 850 368 850 q 610 845 551 850 q 715 827 669 840 q 789 794 761 814 q 837 741 818 774 q 862 668 855 709 q 869 568 869 627 l 869 543 l 606 543 l 606 568 q 604 603 606 590 q 597 626 603 615 q 584 642 591 637 q 559 651 576 647 q 522 655 542 654 q 469 656 503 656 q 398 654 422 656 q 360 645 375 652 q 342 625 346 637 q 339 590 339 614 q 362 548 339 561 q 454 525 385 535 q 608 495 544 510 q 722 462 672 481 q 803 421 772 443 q 854 370 834 400 q 883 305 875 340 q 890 222 890 270 q 879 123 890 163 q 840 56 867 84 q 762 12 812 27 q 643 -10 712 -3 q 469 -17 574 -17 q 319 -12 381 -17 q 207 6 256 -7 q 127 39 157 19 q 77 91 96 58 q 49 163 57 123 q 41 261 41 203 l 41 279 l 306 279 l 306 261 z "},"t":{"ha":708,"x_min":56,"x_max":639,"o":"m 639 236 l 639 0 l 472 0 q 355 5 404 0 q 268 23 306 10 q 205 56 229 36 q 166 108 182 76 q 145 181 151 140 q 139 281 139 222 l 139 611 l 56 611 l 56 833 l 153 833 l 153 1011 l 403 1011 l 403 833 l 625 833 l 625 611 l 403 611 l 403 349 q 405 288 403 307 q 419 255 408 268 q 447 239 430 241 q 498 236 464 236 l 639 236 z "},"u":{"ha":901,"x_min":56,"x_max":832,"o":"m 832 0 l 568 0 l 568 131 q 492 19 549 55 q 330 -17 434 -17 q 233 -12 273 -17 q 162 8 193 -6 q 111 45 130 23 q 79 103 92 67 q 62 184 66 139 q 57 294 57 230 l 56 833 l 319 833 l 319 357 q 322 275 319 302 q 340 231 326 248 q 376 209 354 213 q 443 205 398 205 q 537 240 508 205 q 567 351 567 275 l 568 833 l 832 833 l 832 0 z "},"v":{"ha":905,"x_min":7,"x_max":899,"o":"m 899 833 l 644 0 l 237 0 l 7 833 l 281 833 l 446 195 l 454 195 l 636 833 l 899 833 z "},"w":{"ha":1379,"x_min":7,"x_max":1372,"o":"m 904 833 l 1006 180 l 1014 180 l 1132 833 l 1372 833 l 1208 0 l 791 0 l 690 639 l 682 639 l 596 0 l 176 0 l 7 833 l 262 833 l 383 180 l 392 180 l 476 833 l 904 833 z "},"x":{"ha":913,"x_min":7,"x_max":907,"o":"m 25 833 l 313 833 l 443 566 l 452 566 l 586 833 l 863 833 l 615 431 l 907 0 l 610 0 l 449 296 l 440 296 l 285 0 l 7 0 l 273 428 l 25 833 z "},"y":{"ha":883,"x_min":7,"x_max":876,"o":"m 635 -65 q 603 -153 621 -117 q 560 -213 585 -188 q 497 -252 535 -239 q 412 -272 460 -266 q 296 -278 365 -278 l 106 -278 l 106 -56 l 262 -56 q 364 -46 342 -56 q 397 4 386 -37 l 404 28 l 237 28 l 7 833 l 282 833 l 450 216 l 458 216 l 618 833 l 876 833 l 635 -65 z "},"z":{"ha":952,"x_min":56,"x_max":897,"o":"m 81 833 l 875 833 l 875 629 l 458 236 l 897 236 l 897 0 l 56 0 l 56 201 l 476 597 l 81 597 l 81 833 z "},"{":{"ha":625,"x_min":83,"x_max":542,"o":"m 542 -294 q 414 -284 467 -294 q 318 -249 361 -275 q 250 -185 276 -224 q 206 -83 224 -146 q 180 59 188 -20 q 171 252 173 139 q 170 298 170 281 q 165 330 169 315 q 156 351 161 345 q 140 362 151 357 q 117 369 130 368 q 83 370 104 370 l 83 494 q 116 495 104 494 q 139 502 128 496 q 154 513 149 507 q 162 534 159 519 q 168 566 166 549 q 170 612 169 583 q 180 794 172 719 q 207 929 189 869 q 251 1025 224 989 q 319 1085 277 1061 q 414 1119 361 1109 q 542 1128 467 1128 l 542 1003 q 490 1001 511 1003 q 449 992 469 999 q 418 975 430 985 q 397 944 407 965 q 381 900 387 924 q 373 837 376 876 q 368 753 369 797 q 366 646 366 710 q 338 515 364 556 q 254 475 312 475 l 254 392 q 338 351 312 392 q 366 220 364 311 q 368 69 366 125 q 378 -36 370 12 q 396 -107 386 -84 q 428 -146 406 -130 q 475 -166 450 -162 q 542 -170 500 -170 l 542 -294 z "},"|":{"ha":361,"x_min":83,"x_max":278,"o":"m 83 -278 l 83 1055 l 278 1055 l 278 -278 l 83 -278 z "},"}":{"ha":625,"x_min":83,"x_max":542,"o":"m 83 -170 q 151 -166 125 -170 q 197 -146 176 -162 q 229 -107 219 -130 q 247 -36 239 -84 q 257 69 255 12 q 260 220 259 125 q 287 351 261 311 q 371 392 313 392 l 371 475 q 287 515 313 475 q 260 646 261 556 q 258 753 259 710 q 253 837 256 797 q 244 900 249 876 q 229 944 239 924 q 207 975 218 965 q 176 992 195 985 q 136 1001 157 999 q 83 1003 115 1003 l 83 1128 q 211 1119 158 1128 q 306 1085 264 1109 q 374 1025 348 1061 q 419 929 401 989 q 445 794 437 869 q 456 612 453 719 q 458 566 456 583 q 463 534 459 549 q 471 513 467 519 q 487 502 476 507 q 509 495 497 496 q 542 494 522 494 l 542 370 q 508 369 521 370 q 485 362 496 368 q 469 351 474 357 q 460 330 465 345 q 456 298 456 315 q 454 252 455 281 q 445 59 452 139 q 419 -83 437 -20 q 375 -185 401 -146 q 307 -249 349 -224 q 211 -284 264 -275 q 83 -294 158 -294 l 83 -170 z "},"~":{"ha":694,"x_min":69,"x_max":625,"o":"m 464 403 q 505 416 491 403 q 528 460 519 429 l 625 460 q 584 312 625 355 q 441 269 542 269 q 365 282 399 269 q 313 309 331 294 q 273 336 295 323 q 231 349 251 349 q 189 336 203 349 q 167 292 175 323 l 69 292 q 111 439 69 396 q 253 482 153 482 q 329 470 295 482 q 381 443 363 457 q 421 415 399 428 q 464 403 444 403 z "}," ":{"ha":416,"x_min":0,"x_max":0,"o":""},"¡":{"ha":486,"x_min":83,"x_max":403,"o":"m 83 570 l 83 833 l 403 833 l 403 570 l 83 570 m 90 -278 l 103 87 l 132 444 l 354 444 l 380 81 l 396 -278 l 90 -278 z "},"¢":{"ha":940,"x_min":41,"x_max":899,"o":"m 899 328 q 880 191 896 243 q 826 102 865 138 q 727 50 788 66 q 567 29 665 34 l 567 -195 l 372 -195 l 372 31 q 210 59 273 37 q 109 126 148 80 q 56 241 71 173 q 41 416 41 309 q 56 592 41 524 q 109 707 71 660 q 210 775 148 753 q 372 803 273 796 l 372 1055 l 567 1055 l 567 804 q 726 784 665 800 q 826 732 787 768 q 880 645 865 697 q 899 510 896 593 l 635 510 q 630 558 633 541 q 620 592 627 576 q 604 615 613 608 q 576 627 595 622 q 536 634 557 633 q 478 635 514 635 q 412 633 437 635 q 366 622 387 631 q 335 600 345 612 q 318 559 325 587 q 309 501 311 532 q 307 416 307 469 q 309 332 307 363 q 318 273 311 300 q 335 234 325 246 q 366 212 345 221 q 412 201 387 203 q 478 199 437 199 q 558 202 532 199 q 602 220 584 205 q 625 257 620 235 q 635 328 631 280 l 899 328 z "},"£":{"ha":1023,"x_min":56,"x_max":982,"o":"m 574 920 q 491 906 507 920 q 475 833 475 892 l 475 604 l 772 604 l 772 479 l 475 479 l 475 419 q 407 236 475 295 l 982 236 l 982 0 l 83 0 l 83 195 l 129 195 q 177 196 161 195 q 203 207 193 198 q 215 229 213 216 q 216 269 217 241 l 212 479 l 56 479 l 56 604 l 211 604 l 211 835 q 217 938 211 895 q 241 1015 224 981 q 283 1069 258 1048 q 351 1104 309 1090 q 446 1123 393 1118 q 574 1128 499 1128 q 736 1120 671 1128 q 848 1095 801 1112 q 920 1045 895 1078 q 957 967 945 1013 q 968 854 968 922 l 676 854 q 660 909 676 899 q 574 920 643 920 z "},"¤":{"ha":947,"x_min":41,"x_max":905,"o":"m 529 713 q 518 714 529 713 q 475 714 507 714 q 420 713 442 714 q 379 708 399 712 q 347 699 359 704 q 325 682 335 693 q 310 657 315 670 q 301 621 304 644 q 297 575 298 599 q 296 514 296 551 q 297 453 296 477 q 301 407 298 429 q 310 371 304 385 q 325 347 315 358 q 347 330 335 335 q 379 320 359 324 q 420 315 399 316 q 475 314 442 314 q 529 315 507 314 q 571 320 551 316 q 603 330 591 324 q 625 347 614 335 q 640 371 635 358 q 649 407 645 385 q 653 453 652 429 q 654 514 654 477 q 653 575 654 551 q 649 621 652 599 q 640 657 645 644 q 625 682 635 670 q 603 699 614 693 q 571 708 591 704 q 529 713 551 712 m 41 220 l 149 326 q 115 514 115 399 q 149 701 115 629 l 41 808 l 179 946 l 292 833 q 475 861 361 861 q 657 835 585 861 l 768 946 l 905 808 l 802 704 q 835 514 835 629 q 802 323 835 398 l 905 220 l 768 82 l 657 193 q 475 167 585 167 q 292 195 361 167 l 179 82 l 41 220 z "},"¥":{"ha":1193,"x_min":56,"x_max":1137,"o":"m 225 500 l 452 500 l 56 1083 l 408 1083 l 604 749 l 612 749 l 806 1083 l 1137 1083 l 761 500 l 989 500 l 989 375 l 753 375 l 753 264 l 989 264 l 989 139 l 753 139 l 753 0 l 461 0 l 461 139 l 225 139 l 225 264 l 461 264 l 461 375 l 225 375 l 225 500 z "},"¦":{"ha":361,"x_min":83,"x_max":278,"o":"m 83 452 l 83 1055 l 278 1055 l 278 452 l 83 452 m 83 -278 l 83 326 l 278 326 l 278 -278 l 83 -278 z "},"§":{"ha":968,"x_min":56,"x_max":913,"o":"m 635 461 q 603 521 635 501 q 471 558 570 541 l 412 568 q 354 535 375 559 q 334 488 332 511 q 346 444 334 460 q 394 415 359 428 q 497 390 429 402 l 555 380 q 614 414 593 390 q 635 461 636 437 m 56 446 q 98 565 56 528 q 245 603 141 602 q 199 618 222 608 q 86 698 117 649 q 56 835 56 747 q 63 928 56 890 q 90 998 71 967 q 137 1047 109 1028 q 214 1078 166 1066 q 321 1095 261 1090 q 465 1100 380 1100 q 616 1095 554 1100 q 727 1075 677 1089 q 807 1038 777 1060 q 857 978 837 1015 q 884 894 877 941 q 892 779 892 846 l 628 779 q 627 834 628 814 q 619 872 625 855 q 604 898 612 890 q 576 911 595 906 q 536 918 557 917 q 478 920 515 920 q 412 918 435 920 q 371 913 389 916 q 347 900 353 909 q 337 879 340 891 q 334 846 334 867 q 362 789 334 806 q 463 761 391 772 q 747 701 632 736 q 877 624 840 674 q 913 503 913 574 q 869 384 913 420 q 722 346 825 347 q 770 330 743 340 q 882 250 852 299 q 913 114 913 201 q 901 4 913 48 q 863 -71 889 -39 q 788 -119 837 -102 q 671 -144 739 -136 q 503 -151 604 -151 q 352 -146 414 -151 q 241 -126 290 -140 q 161 -89 191 -111 q 111 -30 131 -66 q 84 55 92 7 q 77 170 77 102 l 340 170 q 342 114 340 135 q 350 76 343 94 q 365 51 356 59 q 392 37 373 43 q 432 31 411 32 q 490 29 453 29 q 556 31 533 29 q 597 36 579 33 q 622 48 615 39 q 632 70 629 58 q 635 103 635 81 q 606 159 635 142 q 505 187 577 176 q 221 248 342 212 q 92 325 128 275 q 56 446 56 374 z "},"¨":{"ha":694,"x_min":69,"x_max":597,"o":"m 69 1111 l 292 1111 l 292 917 l 69 917 l 69 1111 m 375 917 l 375 1111 l 597 1111 l 597 917 l 375 917 z "},"©":{"ha":1263,"x_min":41,"x_max":1222,"o":"m 632 933 q 506 931 556 933 q 409 920 456 928 q 335 899 362 911 q 283 863 307 888 q 248 809 259 838 q 228 731 236 780 q 217 631 219 683 q 215 500 215 578 q 217 369 215 421 q 228 268 219 317 q 248 191 236 220 q 283 137 259 162 q 335 100 307 112 q 409 80 362 89 q 506 69 456 71 q 632 66 556 66 q 735 68 692 66 q 819 74 778 69 q 888 86 861 79 q 940 107 915 93 q 981 137 966 121 q 1010 179 996 153 q 1030 234 1023 205 q 1041 305 1036 262 q 1047 393 1046 348 q 1048 500 1048 437 q 1047 607 1048 562 q 1041 694 1046 652 q 1030 766 1036 737 q 1010 821 1023 794 q 981 863 996 847 q 940 893 966 879 q 888 913 915 907 q 819 925 861 920 q 735 932 778 930 q 632 933 692 933 m 52 303 q 47 344 52 303 q 41 500 41 385 q 52 697 41 615 q 90 843 62 779 q 159 947 117 907 q 270 1013 201 987 q 424 1048 338 1038 q 632 1059 510 1059 q 840 1049 754 1059 q 995 1013 926 1039 q 1104 947 1063 987 q 1174 843 1146 907 q 1212 697 1201 779 q 1222 500 1222 615 q 1212 303 1222 385 q 1174 157 1201 221 q 1104 53 1146 92 q 995 -13 1063 14 q 840 -48 926 -39 q 632 -58 754 -58 q 424 -48 510 -58 q 270 -13 338 -39 q 159 53 201 14 q 90 157 117 92 q 52 303 62 221 m 327 397 q 324 419 327 397 q 321 504 321 441 q 327 610 321 566 q 347 690 332 654 q 383 746 361 725 q 442 782 406 768 q 525 802 479 796 q 636 807 571 807 q 786 797 730 807 q 877 760 842 787 q 926 689 913 732 q 939 574 939 646 l 939 539 l 779 541 l 779 576 q 772 633 777 614 q 751 664 768 652 q 710 680 734 677 q 636 682 685 682 q 576 681 599 682 q 535 671 554 679 q 507 653 515 664 q 491 621 498 643 q 484 573 485 599 q 482 504 482 547 q 484 435 482 460 q 491 387 485 409 q 507 355 498 365 q 535 337 515 345 q 576 328 554 330 q 636 326 599 326 q 710 329 686 326 q 751 345 734 332 q 772 377 768 357 q 779 435 777 396 l 779 469 l 939 471 l 939 437 q 930 340 939 379 q 902 273 921 301 q 847 230 883 245 q 761 208 810 215 q 636 201 711 201 q 525 207 571 201 q 442 227 479 212 q 383 262 406 241 q 347 318 361 283 q 327 397 332 353 z "},"ª":{"ha":494,"x_min":41,"x_max":453,"o":"m 252 1126 q 391 1101 356 1126 q 427 997 427 1075 l 427 745 l 307 745 l 307 793 q 203 737 290 737 q 87 758 116 734 q 58 852 58 781 q 87 944 58 921 q 201 966 115 966 l 307 968 l 307 989 q 298 1031 307 1023 q 252 1039 290 1039 q 198 1031 208 1039 q 189 990 189 1023 l 71 990 l 71 1004 q 107 1102 71 1078 q 252 1126 143 1126 m 41 578 l 41 661 l 453 661 l 453 578 l 41 578 m 183 851 q 194 826 183 830 q 252 822 205 821 q 294 832 281 822 q 307 864 307 842 l 307 880 l 252 879 q 194 874 205 879 q 183 851 183 870 z "},"«":{"ha":805,"x_min":83,"x_max":722,"o":"m 83 339 l 83 492 l 389 720 l 389 539 l 227 421 l 227 412 l 389 292 l 389 111 l 83 339 m 416 339 l 416 492 l 722 720 l 722 539 l 559 421 l 559 412 l 722 292 l 722 111 l 416 339 z "},"®":{"ha":1069,"x_min":7,"x_max":1063,"o":"m 647 1015 q 625 1016 647 1015 q 534 1017 602 1017 q 422 1015 467 1017 q 335 1005 377 1013 q 269 986 294 997 q 223 954 245 976 q 192 906 202 931 q 174 837 182 880 q 165 746 167 793 q 163 629 163 700 q 164 533 163 573 q 169 455 165 494 q 179 392 174 417 q 197 342 185 366 q 223 304 210 319 q 259 278 236 290 q 306 259 282 265 q 367 249 330 253 q 443 243 404 244 q 534 241 481 241 q 626 243 588 241 q 702 249 665 244 q 763 259 739 253 q 810 278 787 265 q 846 304 833 290 q 872 342 860 319 q 890 392 884 366 q 900 455 896 417 q 905 534 904 494 q 907 629 907 574 q 905 747 907 700 q 895 837 903 793 q 878 906 888 880 q 846 954 867 931 q 800 986 824 976 q 733 1005 775 997 q 647 1015 692 1013 m 16 453 q 12 490 16 453 q 7 629 7 526 q 16 805 7 732 q 50 935 26 878 q 112 1028 75 993 q 210 1087 149 1064 q 348 1119 271 1110 q 534 1128 425 1128 q 721 1119 644 1128 q 859 1087 798 1110 q 957 1028 920 1064 q 1019 936 995 993 q 1053 805 1044 878 q 1063 629 1063 732 q 1053 453 1063 526 q 1019 322 1044 380 q 957 229 995 264 q 859 170 920 193 q 721 138 798 146 q 534 129 644 129 q 348 138 425 129 q 210 170 271 146 q 112 229 149 193 q 50 322 75 264 q 16 453 26 380 m 325 403 l 325 884 l 600 884 q 728 856 696 884 q 760 745 760 828 q 737 654 760 685 q 665 618 714 624 q 736 589 713 612 q 760 521 760 566 l 760 403 l 625 403 l 625 514 q 613 563 625 553 q 550 572 601 572 l 454 572 l 454 403 l 325 403 m 454 671 l 567 671 q 621 680 610 671 q 631 725 631 688 q 621 769 631 761 q 567 778 610 778 l 454 778 l 454 671 z "},"¯":{"ha":611,"x_min":69,"x_max":514,"o":"m 514 1055 l 514 930 l 69 930 l 69 1055 l 514 1055 z "},"°":{"ha":444,"x_min":83,"x_max":361,"o":"m 224 835 q 115 865 146 835 q 83 968 83 895 q 115 1069 83 1039 q 224 1099 147 1099 q 330 1069 298 1099 q 361 968 361 1039 q 330 865 361 895 q 224 835 298 835 m 169 1030 q 161 1020 169 1030 q 153 966 153 1011 q 169 903 153 922 q 222 885 184 885 q 276 903 260 885 q 292 966 292 922 q 276 1030 292 1011 q 222 1048 260 1048 q 169 1030 184 1048 z "},"±":{"ha":954,"x_min":69,"x_max":885,"o":"m 69 675 l 359 675 l 359 850 l 596 850 l 596 675 l 885 675 l 885 481 l 596 481 l 596 306 l 359 306 l 359 481 l 69 481 l 69 675 m 200 49 l 200 243 l 755 243 l 755 49 l 200 49 z "},"²":{"ha":602,"x_min":25,"x_max":570,"o":"m 570 440 l 31 440 l 31 557 l 318 800 q 372 855 359 835 q 386 901 386 876 q 370 949 386 939 q 292 958 355 958 q 222 945 235 958 q 208 875 208 931 l 25 875 q 37 986 25 944 q 81 1055 50 1029 q 163 1090 113 1081 q 293 1100 212 1100 q 426 1093 376 1100 q 506 1066 475 1086 q 547 1016 537 1047 q 555 933 557 985 q 555 892 555 920 q 554 856 555 864 q 550 828 553 847 q 541 799 547 808 q 524 774 535 789 q 497 746 513 760 l 315 590 l 570 590 l 570 440 z "},"³":{"ha":644,"x_min":33,"x_max":603,"o":"m 45 913 q 56 1006 45 971 q 99 1062 68 1040 q 181 1092 131 1084 q 314 1100 231 1100 q 425 1095 380 1100 q 502 1079 469 1090 q 551 1047 534 1068 q 575 997 568 1026 q 583 925 583 968 q 561 818 583 855 q 489 772 538 781 q 575 725 548 764 q 603 608 603 685 q 591 520 603 553 q 545 467 578 488 q 457 438 511 446 q 314 431 404 431 q 198 436 244 431 q 118 455 152 442 q 67 491 85 467 q 41 548 49 515 q 33 631 33 581 l 200 631 q 208 592 200 604 q 236 576 215 581 q 309 572 258 572 q 413 584 389 572 q 436 635 436 595 q 413 692 436 680 q 309 705 390 705 l 207 705 l 207 839 l 314 839 q 405 851 384 839 q 425 904 425 863 q 405 955 425 943 q 314 966 384 966 q 222 958 242 966 q 203 913 203 949 l 45 913 z "},"´":{"ha":541,"x_min":83,"x_max":458,"o":"m 83 917 l 180 1112 l 458 1112 l 250 917 l 83 917 z "},"¶":{"ha":1355,"x_min":41,"x_max":1286,"o":"m 897 1083 l 897 0 l 633 0 l 633 285 l 364 285 q 250 298 298 288 q 166 327 203 307 q 106 376 129 347 q 68 451 83 405 q 47 553 53 496 q 41 690 41 610 q 47 829 41 771 q 70 931 54 886 q 111 1005 86 977 q 175 1051 135 1033 q 266 1076 216 1069 q 389 1083 317 1083 l 897 1083 m 319 686 q 321 630 319 652 q 325 589 322 608 q 335 558 328 569 q 352 539 342 548 q 378 528 361 531 q 414 523 395 524 q 464 521 433 521 l 633 521 l 633 847 l 464 847 q 408 845 429 847 q 369 837 387 844 q 342 821 351 830 q 328 792 334 812 q 321 749 322 772 q 319 686 319 726 m 1022 0 l 1022 1083 l 1286 1083 l 1286 0 l 1022 0 z "},"·":{"ha":486,"x_min":83,"x_max":403,"o":"m 83 567 l 403 567 l 403 302 l 83 302 l 83 567 z "},"¸":{"ha":429,"x_min":83,"x_max":346,"o":"m 346 -172 q 293 -266 346 -237 q 122 -294 240 -294 l 83 -294 l 83 -231 q 144 -230 123 -231 q 182 -225 165 -229 q 206 -215 199 -222 q 215 -199 212 -208 q 218 -172 218 -189 q 215 -146 218 -155 q 206 -129 212 -136 q 182 -119 199 -122 q 144 -115 165 -116 q 83 -114 123 -114 l 83 -50 l 199 1 l 240 1 l 207 -54 q 312 -92 279 -63 q 346 -172 346 -121 z "},"¹":{"ha":379,"x_min":25,"x_max":342,"o":"m 183 433 l 183 865 l 25 865 l 25 982 l 102 982 q 174 1001 157 982 q 192 1083 192 1021 l 342 1083 l 342 433 l 183 433 z "},"º":{"ha":494,"x_min":41,"x_max":453,"o":"m 304 1017 q 298 1025 304 1017 q 244 1034 292 1034 q 185 1017 196 1034 q 174 932 174 1001 q 184 847 174 863 q 244 831 195 831 q 304 847 292 831 q 315 932 315 863 q 304 1017 315 1000 m 41 578 l 41 661 l 453 661 l 453 578 l 41 578 m 49 932 q 65 1053 49 1013 q 123 1110 82 1093 q 244 1126 163 1126 q 401 1088 362 1126 q 440 932 440 1049 q 401 776 440 815 q 244 737 361 737 q 88 776 127 737 q 49 932 49 815 z "},"»":{"ha":805,"x_min":83,"x_max":722,"o":"m 722 339 l 416 111 l 416 292 l 579 412 l 579 421 l 416 539 l 416 720 l 722 492 l 722 339 m 83 111 l 83 292 l 245 412 l 245 421 l 83 539 l 83 720 l 389 492 l 389 339 l 83 111 z "},"¿":{"ha":1008,"x_min":41,"x_max":966,"o":"m 685 529 l 366 529 l 366 793 l 685 793 l 685 529 m 41 -28 q 58 119 41 67 q 115 198 75 170 q 235 243 155 227 q 293 256 271 250 q 334 271 315 262 q 361 290 353 281 q 377 317 370 299 q 385 353 383 334 q 386 404 386 372 l 664 404 q 652 255 664 308 q 612 173 640 203 q 528 125 583 143 q 383 61 419 90 q 347 -22 347 31 q 351 -57 347 -45 q 362 -79 354 -70 q 391 -93 370 -89 q 437 -98 411 -96 q 511 -100 464 -100 q 570 -98 548 -100 q 610 -91 591 -97 q 637 -75 629 -84 q 652 -46 646 -66 q 660 -4 659 -27 q 661 57 661 18 l 966 57 q 959 -67 966 -16 q 930 -159 951 -118 q 878 -224 910 -199 q 793 -266 846 -249 q 673 -288 741 -282 q 510 -294 606 -294 q 343 -290 412 -294 q 220 -273 274 -285 q 133 -241 165 -260 q 79 -192 100 -222 q 50 -122 58 -161 q 41 -28 41 -83 z "},"À":{"ha":1201,"x_min":7,"x_max":1194,"o":"m 847 1083 l 1194 0 l 861 0 l 803 211 l 386 211 l 321 0 l 7 0 l 364 1083 l 847 1083 m 319 1362 l 597 1362 l 694 1166 l 528 1166 l 319 1362 m 461 447 l 730 447 l 602 847 l 593 847 l 461 447 z "},"Á":{"ha":1201,"x_min":7,"x_max":1194,"o":"m 847 1083 l 1194 0 l 861 0 l 803 211 l 386 211 l 321 0 l 7 0 l 364 1083 l 847 1083 m 461 447 l 730 447 l 602 847 l 593 847 l 461 447 m 500 1166 l 597 1362 l 875 1362 l 667 1166 l 500 1166 z "},"Â":{"ha":1201,"x_min":7,"x_max":1194,"o":"m 847 1083 l 1194 0 l 861 0 l 803 211 l 386 211 l 321 0 l 7 0 l 364 1083 l 847 1083 m 318 1166 l 509 1361 l 684 1361 l 873 1166 l 720 1166 l 602 1246 l 593 1246 l 472 1166 l 318 1166 m 461 447 l 730 447 l 602 847 l 593 847 l 461 447 z "},"Ã":{"ha":1201,"x_min":7,"x_max":1194,"o":"m 847 1083 l 1194 0 l 861 0 l 803 211 l 386 211 l 321 0 l 7 0 l 364 1083 l 847 1083 m 319 1187 q 361 1335 319 1292 q 503 1378 402 1378 q 579 1365 545 1378 q 631 1338 613 1353 q 672 1311 650 1324 q 714 1299 694 1299 q 755 1312 741 1299 q 778 1356 770 1324 l 875 1356 q 833 1208 875 1251 q 692 1165 792 1165 q 615 1178 650 1165 q 563 1205 581 1190 q 523 1232 545 1219 q 481 1244 501 1244 q 439 1232 454 1244 q 416 1187 425 1219 l 319 1187 m 461 447 l 730 447 l 602 847 l 593 847 l 461 447 z "},"Ä":{"ha":1201,"x_min":7,"x_max":1194,"o":"m 847 1083 l 1194 0 l 861 0 l 803 211 l 386 211 l 321 0 l 7 0 l 364 1083 l 847 1083 m 334 1166 l 334 1361 l 555 1361 l 555 1166 l 334 1166 m 461 447 l 730 447 l 602 847 l 593 847 l 461 447 m 639 1166 l 639 1361 l 861 1361 l 861 1166 l 639 1166 z "},"Å":{"ha":1201,"x_min":7,"x_max":1194,"o":"m 847 1083 l 1194 0 l 861 0 l 803 211 l 386 211 l 321 0 l 7 0 l 364 1083 l 847 1083 m 437 1274 q 473 1356 437 1334 q 599 1378 509 1378 q 722 1356 687 1378 q 757 1274 757 1334 q 722 1190 757 1213 q 599 1166 686 1166 q 473 1190 509 1166 q 437 1274 437 1213 m 461 447 l 730 447 l 602 847 l 593 847 l 461 447 m 546 1318 q 540 1313 546 1318 q 534 1272 534 1308 q 546 1226 534 1236 q 597 1217 557 1217 q 649 1226 638 1217 q 660 1272 660 1236 q 649 1318 660 1308 q 597 1328 638 1328 q 546 1318 557 1328 z "},"Æ":{"ha":1655,"x_min":7,"x_max":1600,"o":"m 1597 1083 l 1597 833 l 1000 833 l 1000 667 l 1541 667 l 1541 431 l 1000 431 l 1000 250 l 1600 250 l 1600 0 l 708 0 l 708 211 l 386 211 l 321 0 l 7 0 l 364 1083 l 1597 1083 m 461 447 l 708 447 l 708 833 l 589 833 l 461 447 z "},"Ç":{"ha":1187,"x_min":41,"x_max":1147,"o":"m 1146 460 q 1138 296 1147 364 q 1105 173 1129 227 q 1045 84 1082 118 q 948 26 1008 50 q 811 -6 888 3 q 628 -17 735 -16 l 604 -56 q 710 -93 676 -64 q 743 -174 743 -122 q 690 -267 743 -238 q 519 -296 637 -296 l 481 -296 l 481 -232 q 542 -231 520 -232 q 580 -227 563 -230 q 603 -217 597 -224 q 612 -200 610 -210 q 615 -174 615 -191 q 612 -147 615 -157 q 603 -131 610 -138 q 580 -120 597 -123 q 542 -116 563 -117 q 481 -115 520 -115 l 481 -52 l 559 -17 q 378 -4 454 -15 q 242 35 302 7 q 145 102 182 62 q 84 205 109 142 q 51 350 60 269 q 41 542 41 430 q 51 739 41 657 q 87 885 61 821 q 153 989 113 949 q 256 1055 192 1029 q 401 1090 320 1080 q 596 1100 482 1100 q 747 1095 682 1100 q 869 1079 813 1090 q 965 1050 925 1067 q 1038 1005 1006 1033 q 1090 943 1070 978 q 1123 861 1110 909 q 1142 756 1137 812 q 1146 627 1147 700 l 840 627 q 839 719 841 684 q 827 783 837 753 q 803 826 817 812 q 758 849 789 840 q 692 862 728 859 q 596 864 656 864 q 499 861 536 864 q 432 844 463 858 q 387 812 401 831 q 362 754 373 793 q 350 667 352 714 q 347 542 347 621 q 350 416 347 463 q 362 330 352 370 q 387 272 373 290 q 432 239 401 253 q 499 223 463 226 q 596 220 536 220 q 692 222 656 220 q 758 234 728 224 q 803 258 789 244 q 827 302 817 272 q 839 367 837 332 q 840 460 841 401 l 1146 460 z "},"È":{"ha":1017,"x_min":69,"x_max":961,"o":"m 69 1083 l 958 1083 l 958 833 l 361 833 l 361 667 l 903 667 l 903 431 l 361 431 l 361 250 l 961 250 l 961 0 l 69 0 l 69 1083 m 250 1362 l 528 1362 l 625 1166 l 458 1166 l 250 1362 z "},"É":{"ha":1017,"x_min":69,"x_max":961,"o":"m 69 1083 l 958 1083 l 958 833 l 361 833 l 361 667 l 903 667 l 903 431 l 361 431 l 361 250 l 961 250 l 961 0 l 69 0 l 69 1083 m 431 1166 l 528 1362 l 806 1362 l 597 1166 l 431 1166 z "},"Ê":{"ha":1017,"x_min":69,"x_max":961,"o":"m 69 1083 l 958 1083 l 958 833 l 361 833 l 361 667 l 903 667 l 903 431 l 361 431 l 361 250 l 961 250 l 961 0 l 69 0 l 69 1083 m 249 1166 l 439 1361 l 614 1361 l 804 1166 l 650 1166 l 532 1246 l 524 1246 l 403 1166 l 249 1166 z "},"Ë":{"ha":1017,"x_min":69,"x_max":961,"o":"m 69 1083 l 958 1083 l 958 833 l 361 833 l 361 667 l 903 667 l 903 431 l 361 431 l 361 250 l 961 250 l 961 0 l 69 0 l 69 1083 m 264 1166 l 264 1361 l 486 1361 l 486 1166 l 264 1166 m 570 1166 l 570 1361 l 791 1361 l 791 1166 l 570 1166 z "},"Ì":{"ha":430,"x_min":-62,"x_max":361,"o":"m 69 0 l 69 1083 l 361 1083 l 361 0 l 69 0 m -62 1390 l 215 1390 l 313 1194 l 146 1194 l -62 1390 z "},"Í":{"ha":430,"x_min":69,"x_max":493,"o":"m 69 0 l 69 1083 l 361 1083 l 361 0 l 69 0 m 118 1194 l 215 1390 l 493 1390 l 285 1194 l 118 1194 z "},"Î":{"ha":430,"x_min":-64,"x_max":492,"o":"m 69 0 l 69 1083 l 361 1083 l 361 0 l 69 0 m -64 1194 l 126 1389 l 301 1389 l 492 1194 l 338 1194 l 220 1274 l 211 1274 l 90 1194 l -64 1194 z "},"Ï":{"ha":430,"x_min":-49,"x_max":479,"o":"m 69 0 l 69 1083 l 361 1083 l 361 0 l 69 0 m -49 1194 l -49 1389 l 174 1389 l 174 1194 l -49 1194 m 257 1194 l 257 1389 l 479 1389 l 479 1194 l 257 1194 z "},"Ð":{"ha":1359,"x_min":83,"x_max":1263,"o":"m 500 833 l 498 672 l 677 672 l 677 436 l 498 436 l 500 250 l 737 250 q 804 252 777 250 q 854 259 830 253 q 893 273 879 265 q 921 298 908 281 q 940 334 934 315 q 950 386 945 353 q 956 454 955 418 q 957 542 957 489 q 956 630 957 595 q 950 698 955 665 q 940 750 945 730 q 921 786 934 769 q 893 811 908 803 q 854 825 879 819 q 804 832 830 831 q 737 833 777 833 l 500 833 m 83 436 l 83 672 l 208 672 l 208 1083 l 768 1083 q 943 1074 871 1083 q 1072 1039 1015 1064 q 1164 976 1129 1014 q 1222 874 1200 937 q 1254 733 1245 812 q 1263 542 1263 654 q 1254 351 1263 430 q 1222 209 1245 272 q 1164 108 1200 146 q 1072 45 1129 70 q 943 10 1015 20 q 768 0 871 0 l 208 0 l 208 436 l 83 436 z "},"Ñ":{"ha":1194,"x_min":69,"x_max":1125,"o":"m 69 0 l 69 1083 l 346 1083 l 825 492 l 833 492 l 833 1083 l 1125 1083 l 1125 0 l 850 0 l 370 590 l 361 590 l 361 0 l 69 0 m 304 1187 q 346 1335 304 1292 q 488 1378 387 1378 q 564 1365 530 1378 q 616 1338 598 1353 q 656 1311 634 1324 q 699 1299 678 1299 q 740 1312 726 1299 q 762 1356 754 1324 l 860 1356 q 818 1208 860 1251 q 676 1165 777 1165 q 600 1178 634 1165 q 548 1205 566 1190 q 508 1232 530 1219 q 465 1244 486 1244 q 424 1232 438 1244 q 401 1187 410 1219 l 304 1187 z "},"Ò":{"ha":1208,"x_min":41,"x_max":1166,"o":"m 682 862 q 667 863 682 862 q 604 864 651 864 q 526 862 557 864 q 466 854 495 861 q 421 839 437 848 q 389 811 404 830 q 367 772 374 793 q 355 714 360 751 q 349 640 350 678 q 347 542 347 601 q 349 444 347 483 q 355 369 350 406 q 367 312 360 333 q 389 272 374 291 q 421 245 404 254 q 466 230 437 236 q 526 221 495 223 q 604 220 557 220 q 682 221 651 220 q 742 230 713 223 q 788 245 771 236 q 819 272 804 254 q 841 312 834 291 q 853 369 848 333 q 860 444 859 406 q 861 542 861 483 q 860 640 861 601 q 853 714 859 678 q 841 772 848 751 q 819 811 834 793 q 788 839 804 830 q 742 854 771 848 q 682 862 713 861 m 52 345 q 46 386 52 345 q 41 542 41 427 q 52 739 41 657 q 88 885 62 821 q 154 989 114 949 q 258 1054 193 1028 q 406 1090 323 1080 q 604 1100 488 1100 q 803 1090 720 1100 q 950 1054 885 1080 q 1055 989 1015 1028 q 1120 885 1095 949 q 1156 739 1146 821 q 1166 542 1166 657 q 1156 345 1166 427 q 1120 199 1146 263 q 1055 95 1095 134 q 950 29 1015 55 q 803 -7 885 3 q 604 -17 720 -17 q 406 -7 488 -17 q 258 29 323 3 q 154 95 193 55 q 88 199 114 134 q 52 345 62 263 m 326 1362 l 604 1362 l 701 1166 l 534 1166 l 326 1362 z "},"Ó":{"ha":1208,"x_min":41,"x_max":1166,"o":"m 682 862 q 667 863 682 862 q 604 864 651 864 q 526 862 557 864 q 466 854 495 861 q 421 839 437 848 q 389 811 404 830 q 367 772 374 793 q 355 714 360 751 q 349 640 350 678 q 347 542 347 601 q 349 444 347 483 q 355 369 350 406 q 367 312 360 333 q 389 272 374 291 q 421 245 404 254 q 466 230 437 236 q 526 221 495 223 q 604 220 557 220 q 682 221 651 220 q 742 230 713 223 q 788 245 771 236 q 819 272 804 254 q 841 312 834 291 q 853 369 848 333 q 860 444 859 406 q 861 542 861 483 q 860 640 861 601 q 853 714 859 678 q 841 772 848 751 q 819 811 834 793 q 788 839 804 830 q 742 854 771 848 q 682 862 713 861 m 52 345 q 46 386 52 345 q 41 542 41 427 q 52 739 41 657 q 88 885 62 821 q 154 989 114 949 q 258 1054 193 1028 q 406 1090 323 1080 q 604 1100 488 1100 q 803 1090 720 1100 q 950 1054 885 1080 q 1055 989 1015 1028 q 1120 885 1095 949 q 1156 739 1146 821 q 1166 542 1166 657 q 1156 345 1166 427 q 1120 199 1146 263 q 1055 95 1095 134 q 950 29 1015 55 q 803 -7 885 3 q 604 -17 720 -17 q 406 -7 488 -17 q 258 29 323 3 q 154 95 193 55 q 88 199 114 134 q 52 345 62 263 m 507 1166 l 604 1362 l 882 1362 l 673 1166 l 507 1166 z "},"Ô":{"ha":1208,"x_min":41,"x_max":1166,"o":"m 682 862 q 667 863 682 862 q 604 864 651 864 q 526 862 557 864 q 466 854 495 861 q 421 839 437 848 q 389 811 404 830 q 367 772 374 793 q 355 714 360 751 q 349 640 350 678 q 347 542 347 601 q 349 444 347 483 q 355 369 350 406 q 367 312 360 333 q 389 272 374 291 q 421 245 404 254 q 466 230 437 236 q 526 221 495 223 q 604 220 557 220 q 682 221 651 220 q 742 230 713 223 q 788 245 771 236 q 819 272 804 254 q 841 312 834 291 q 853 369 848 333 q 860 444 859 406 q 861 542 861 483 q 860 640 861 601 q 853 714 859 678 q 841 772 848 751 q 819 811 834 793 q 788 839 804 830 q 742 854 771 848 q 682 862 713 861 m 52 345 q 46 386 52 345 q 41 542 41 427 q 52 739 41 657 q 88 885 62 821 q 154 989 114 949 q 258 1054 193 1028 q 406 1090 323 1080 q 604 1100 488 1100 q 803 1090 720 1100 q 950 1054 885 1080 q 1055 989 1015 1028 q 1120 885 1095 949 q 1156 739 1146 821 q 1166 542 1166 657 q 1156 345 1166 427 q 1120 199 1146 263 q 1055 95 1095 134 q 950 29 1015 55 q 803 -7 885 3 q 604 -17 720 -17 q 406 -7 488 -17 q 258 29 323 3 q 154 95 193 55 q 88 199 114 134 q 52 345 62 263 m 325 1166 l 515 1361 l 690 1361 l 880 1166 l 726 1166 l 608 1246 l 600 1246 l 479 1166 l 325 1166 z "},"Õ":{"ha":1208,"x_min":41,"x_max":1166,"o":"m 682 862 q 667 863 682 862 q 604 864 651 864 q 526 862 557 864 q 466 854 495 861 q 421 839 437 848 q 389 811 404 830 q 367 772 374 793 q 355 714 360 751 q 349 640 350 678 q 347 542 347 601 q 349 444 347 483 q 355 369 350 406 q 367 312 360 333 q 389 272 374 291 q 421 245 404 254 q 466 230 437 236 q 526 221 495 223 q 604 220 557 220 q 682 221 651 220 q 742 230 713 223 q 788 245 771 236 q 819 272 804 254 q 841 312 834 291 q 853 369 848 333 q 860 444 859 406 q 861 542 861 483 q 860 640 861 601 q 853 714 859 678 q 841 772 848 751 q 819 811 834 793 q 788 839 804 830 q 742 854 771 848 q 682 862 713 861 m 52 345 q 46 386 52 345 q 41 542 41 427 q 52 739 41 657 q 88 885 62 821 q 154 989 114 949 q 258 1054 193 1028 q 406 1090 323 1080 q 604 1100 488 1100 q 803 1090 720 1100 q 950 1054 885 1080 q 1055 989 1015 1028 q 1120 885 1095 949 q 1156 739 1146 821 q 1166 542 1166 657 q 1156 345 1166 427 q 1120 199 1146 263 q 1055 95 1095 134 q 950 29 1015 55 q 803 -7 885 3 q 604 -17 720 -17 q 406 -7 488 -17 q 258 29 323 3 q 154 95 193 55 q 88 199 114 134 q 52 345 62 263 m 326 1187 q 368 1335 326 1292 q 510 1378 410 1378 q 586 1365 552 1378 q 638 1338 621 1353 q 679 1311 656 1324 q 721 1299 701 1299 q 762 1312 748 1299 q 785 1356 777 1324 l 882 1356 q 840 1208 882 1251 q 699 1165 799 1165 q 622 1178 656 1165 q 570 1205 588 1190 q 530 1232 552 1219 q 488 1244 508 1244 q 446 1232 460 1244 q 424 1187 432 1219 l 326 1187 z "},"Ö":{"ha":1208,"x_min":41,"x_max":1166,"o":"m 682 862 q 667 863 682 862 q 604 864 651 864 q 526 862 557 864 q 466 854 495 861 q 421 839 437 848 q 389 811 404 830 q 367 772 374 793 q 355 714 360 751 q 349 640 350 678 q 347 542 347 601 q 349 444 347 483 q 355 369 350 406 q 367 312 360 333 q 389 272 374 291 q 421 245 404 254 q 466 230 437 236 q 526 221 495 223 q 604 220 557 220 q 682 221 651 220 q 742 230 713 223 q 788 245 771 236 q 819 272 804 254 q 841 312 834 291 q 853 369 848 333 q 860 444 859 406 q 861 542 861 483 q 860 640 861 601 q 853 714 859 678 q 841 772 848 751 q 819 811 834 793 q 788 839 804 830 q 742 854 771 848 q 682 862 713 861 m 52 345 q 46 386 52 345 q 41 542 41 427 q 52 739 41 657 q 88 885 62 821 q 154 989 114 949 q 258 1054 193 1028 q 406 1090 323 1080 q 604 1100 488 1100 q 803 1090 720 1100 q 950 1054 885 1080 q 1055 989 1015 1028 q 1120 885 1095 949 q 1156 739 1146 821 q 1166 542 1166 657 q 1156 345 1166 427 q 1120 199 1146 263 q 1055 95 1095 134 q 950 29 1015 55 q 803 -7 885 3 q 604 -17 720 -17 q 406 -7 488 -17 q 258 29 323 3 q 154 95 193 55 q 88 199 114 134 q 52 345 62 263 m 340 1166 l 340 1361 l 562 1361 l 562 1166 l 340 1166 m 646 1166 l 646 1361 l 868 1361 l 868 1166 l 646 1166 z "},"×":{"ha":882,"x_min":69,"x_max":812,"o":"m 69 240 l 275 446 l 69 650 l 236 818 l 441 612 l 646 817 l 812 650 l 608 446 l 812 240 l 646 74 l 441 279 l 236 74 l 69 240 z "},"Ø":{"ha":1305,"x_min":28,"x_max":1278,"o":"m 625 864 q 547 862 578 864 q 487 854 516 861 q 442 839 458 848 q 410 811 425 830 q 388 772 395 793 q 376 714 381 751 q 370 640 371 678 q 368 542 368 601 q 380 342 368 403 l 842 810 q 768 853 817 842 q 625 864 720 864 m 28 -17 l 157 115 q 84 279 105 177 q 62 542 62 381 q 73 739 62 657 q 109 885 83 821 q 175 989 135 949 q 279 1054 214 1028 q 427 1090 345 1080 q 625 1100 509 1100 q 879 1080 779 1100 q 1043 1015 980 1061 l 1126 1100 l 1278 1100 l 1117 936 q 1172 779 1156 873 q 1187 542 1187 684 q 1177 345 1187 427 q 1141 199 1167 263 q 1076 95 1116 134 q 971 29 1036 55 q 824 -7 906 3 q 625 -17 741 -17 q 241 46 359 -17 l 179 -17 l 28 -17 m 439 248 q 508 225 465 231 q 625 220 551 220 q 703 221 672 220 q 763 230 734 223 q 808 245 791 236 q 840 272 825 254 q 862 312 855 291 q 874 369 869 333 q 880 444 879 406 q 882 542 882 483 q 876 693 882 640 l 439 248 z "},"Ù":{"ha":1072,"x_min":56,"x_max":1017,"o":"m 1017 444 q 1008 281 1017 349 q 977 161 1000 214 q 921 75 955 107 q 831 21 887 42 q 706 -9 776 -1 q 536 -17 635 -17 q 367 -9 437 -17 q 241 21 297 -1 q 152 75 186 42 q 95 160 117 107 q 64 281 73 214 q 56 444 56 349 l 56 1083 l 347 1083 l 347 444 q 349 357 347 389 q 359 296 351 324 q 378 256 367 269 q 412 233 389 243 q 463 222 436 224 q 536 220 490 220 q 610 222 583 220 q 660 233 637 224 q 694 256 684 243 q 713 296 705 269 q 723 357 722 324 q 725 444 725 389 l 725 1083 l 1017 1083 l 1017 444 m 258 1362 l 536 1362 l 633 1166 l 467 1166 l 258 1362 z "},"Ú":{"ha":1072,"x_min":56,"x_max":1017,"o":"m 1017 444 q 1008 281 1017 349 q 977 161 1000 214 q 921 75 955 107 q 831 21 887 42 q 706 -9 776 -1 q 536 -17 635 -17 q 367 -9 437 -17 q 241 21 297 -1 q 152 75 186 42 q 95 160 117 107 q 64 281 73 214 q 56 444 56 349 l 56 1083 l 347 1083 l 347 444 q 349 357 347 389 q 359 296 351 324 q 378 256 367 269 q 412 233 389 243 q 463 222 436 224 q 536 220 490 220 q 610 222 583 220 q 660 233 637 224 q 694 256 684 243 q 713 296 705 269 q 723 357 722 324 q 725 444 725 389 l 725 1083 l 1017 1083 l 1017 444 m 439 1166 l 536 1362 l 814 1362 l 606 1166 l 439 1166 z "},"Û":{"ha":1072,"x_min":56,"x_max":1017,"o":"m 1017 444 q 1008 281 1017 349 q 977 161 1000 214 q 921 75 955 107 q 831 21 887 42 q 706 -9 776 -1 q 536 -17 635 -17 q 367 -9 437 -17 q 241 21 297 -1 q 152 75 186 42 q 95 160 117 107 q 64 281 73 214 q 56 444 56 349 l 56 1083 l 347 1083 l 347 444 q 349 357 347 389 q 359 296 351 324 q 378 256 367 269 q 412 233 389 243 q 463 222 436 224 q 536 220 490 220 q 610 222 583 220 q 660 233 637 224 q 694 256 684 243 q 713 296 705 269 q 723 357 722 324 q 725 444 725 389 l 725 1083 l 1017 1083 l 1017 444 m 257 1166 l 447 1361 l 623 1361 l 812 1166 l 659 1166 l 541 1246 l 532 1246 l 411 1166 l 257 1166 z "},"Ü":{"ha":1072,"x_min":56,"x_max":1017,"o":"m 1017 444 q 1008 281 1017 349 q 977 161 1000 214 q 921 75 955 107 q 831 21 887 42 q 706 -9 776 -1 q 536 -17 635 -17 q 367 -9 437 -17 q 241 21 297 -1 q 152 75 186 42 q 95 160 117 107 q 64 281 73 214 q 56 444 56 349 l 56 1083 l 347 1083 l 347 444 q 349 357 347 389 q 359 296 351 324 q 378 256 367 269 q 412 233 389 243 q 463 222 436 224 q 536 220 490 220 q 610 222 583 220 q 660 233 637 224 q 694 256 684 243 q 713 296 705 269 q 723 357 722 324 q 725 444 725 389 l 725 1083 l 1017 1083 l 1017 444 m 272 1166 l 272 1361 l 494 1361 l 494 1166 l 272 1166 m 578 1166 l 578 1361 l 800 1361 l 800 1166 l 578 1166 z "},"Ý":{"ha":1058,"x_min":7,"x_max":1051,"o":"m 1051 1083 l 726 416 l 685 416 l 685 0 l 393 0 l 393 416 l 342 416 l 7 1083 l 334 1083 l 536 637 l 545 637 l 742 1083 l 1051 1083 m 443 1166 l 541 1362 l 818 1362 l 610 1166 l 443 1166 z "},"Þ":{"ha":1091,"x_min":69,"x_max":1050,"o":"m 69 1111 l 347 1111 l 347 935 l 689 935 q 816 928 764 935 q 910 905 869 922 q 978 863 952 888 q 1020 795 1004 837 q 1043 701 1037 753 q 1050 574 1050 648 q 1044 450 1050 501 q 1022 357 1038 398 q 983 289 1007 315 q 921 245 960 263 q 832 218 882 227 q 714 205 783 209 l 347 205 l 347 0 l 69 0 l 69 1111 m 347 456 l 614 456 q 670 457 649 456 q 709 463 691 458 q 735 474 727 467 q 749 495 743 481 q 757 527 755 510 q 758 572 758 544 q 757 622 758 604 q 749 655 755 640 q 735 679 743 671 q 709 691 727 686 q 670 697 691 696 q 614 699 649 699 l 347 699 l 347 456 z "},"ß":{"ha":1053,"x_min":69,"x_max":997,"o":"m 521 933 q 453 932 478 933 q 407 927 428 931 q 375 917 385 923 q 358 899 365 911 q 349 872 351 886 q 347 832 347 857 l 347 0 l 69 0 l 69 831 q 82 953 69 904 q 124 1037 95 1002 q 207 1092 153 1073 q 335 1119 260 1111 q 521 1128 409 1128 q 675 1122 611 1128 q 790 1103 739 1117 q 871 1068 840 1089 q 922 1013 902 1047 q 950 934 943 978 q 958 828 958 890 q 908 655 958 715 q 749 578 859 595 q 938 495 878 565 q 997 285 997 425 q 985 144 997 197 q 938 57 972 91 q 850 12 904 24 q 705 0 795 0 l 475 0 l 475 250 l 589 250 q 652 253 631 250 q 686 268 673 256 q 703 299 700 281 q 705 357 705 318 q 703 415 705 396 q 686 447 700 434 q 652 463 673 460 q 589 465 631 465 l 479 465 l 479 688 l 578 688 q 626 690 610 688 q 652 707 642 693 q 665 741 663 720 q 667 804 667 762 q 665 855 667 836 q 658 889 664 873 q 644 913 652 905 q 617 925 635 920 q 578 932 599 930 q 521 933 557 933 z "},"à":{"ha":915,"x_min":41,"x_max":860,"o":"m 473 850 q 609 845 553 850 q 710 826 666 840 q 783 792 755 812 q 828 738 810 771 q 853 663 846 705 q 860 561 860 621 l 860 0 l 596 0 l 596 114 q 519 16 575 47 q 364 -17 463 -16 q 251 -16 298 -19 q 166 -1 203 -12 q 106 28 129 10 q 68 77 83 46 q 47 146 53 107 q 41 240 41 185 q 47 330 41 292 q 67 396 53 367 q 105 444 82 425 q 164 473 127 462 q 247 490 201 485 q 359 494 294 494 l 596 496 l 596 543 q 593 594 596 576 q 585 626 591 612 q 563 646 578 640 q 527 653 547 651 q 471 656 507 656 q 416 655 437 656 q 379 649 396 654 q 354 638 361 644 q 340 618 346 632 q 334 589 335 605 q 334 547 333 574 l 69 547 l 69 576 q 76 673 69 633 q 102 745 83 713 q 150 796 121 777 q 225 828 178 815 q 331 845 272 840 q 473 850 390 850 m 193 1112 l 471 1112 l 568 917 l 401 917 l 193 1112 m 319 237 q 322 207 319 218 q 333 187 325 196 q 358 176 342 178 q 402 172 375 174 q 471 172 430 170 q 566 196 536 174 q 596 265 596 218 l 596 301 l 471 300 q 402 298 426 300 q 359 294 378 297 q 333 284 340 292 q 322 266 326 276 q 319 237 319 256 z "},"á":{"ha":915,"x_min":41,"x_max":860,"o":"m 473 850 q 609 845 553 850 q 710 826 666 840 q 783 792 755 812 q 828 738 810 771 q 853 663 846 705 q 860 561 860 621 l 860 0 l 596 0 l 596 114 q 519 16 575 47 q 364 -17 463 -16 q 251 -16 298 -19 q 166 -1 203 -12 q 106 28 129 10 q 68 77 83 46 q 47 146 53 107 q 41 240 41 185 q 47 330 41 292 q 67 396 53 367 q 105 444 82 425 q 164 473 127 462 q 247 490 201 485 q 359 494 294 494 l 596 496 l 596 543 q 593 594 596 576 q 585 626 591 612 q 563 646 578 640 q 527 653 547 651 q 471 656 507 656 q 416 655 437 656 q 379 649 396 654 q 354 638 361 644 q 340 618 346 632 q 334 589 335 605 q 334 547 333 574 l 69 547 l 69 576 q 76 673 69 633 q 102 745 83 713 q 150 796 121 777 q 225 828 178 815 q 331 845 272 840 q 473 850 390 850 m 319 237 q 322 207 319 218 q 333 187 325 196 q 358 176 342 178 q 402 172 375 174 q 471 172 430 170 q 566 196 536 174 q 596 265 596 218 l 596 301 l 471 300 q 402 298 426 300 q 359 294 378 297 q 333 284 340 292 q 322 266 326 276 q 319 237 319 256 m 374 917 l 471 1112 l 749 1112 l 541 917 l 374 917 z "},"â":{"ha":915,"x_min":41,"x_max":860,"o":"m 473 850 q 609 845 553 850 q 710 826 666 840 q 783 792 755 812 q 828 738 810 771 q 853 663 846 705 q 860 561 860 621 l 860 0 l 596 0 l 596 114 q 519 16 575 47 q 364 -17 463 -16 q 251 -16 298 -19 q 166 -1 203 -12 q 106 28 129 10 q 68 77 83 46 q 47 146 53 107 q 41 240 41 185 q 47 330 41 292 q 67 396 53 367 q 105 444 82 425 q 164 473 127 462 q 247 490 201 485 q 359 494 294 494 l 596 496 l 596 543 q 593 594 596 576 q 585 626 591 612 q 563 646 578 640 q 527 653 547 651 q 471 656 507 656 q 416 655 437 656 q 379 649 396 654 q 354 638 361 644 q 340 618 346 632 q 334 589 335 605 q 334 547 333 574 l 69 547 l 69 576 q 76 673 69 633 q 102 745 83 713 q 150 796 121 777 q 225 828 178 815 q 331 845 272 840 q 473 850 390 850 m 192 917 l 382 1111 l 557 1111 l 747 917 l 593 917 l 475 996 l 467 996 l 346 917 l 192 917 m 319 237 q 322 207 319 218 q 333 187 325 196 q 358 176 342 178 q 402 172 375 174 q 471 172 430 170 q 566 196 536 174 q 596 265 596 218 l 596 301 l 471 300 q 402 298 426 300 q 359 294 378 297 q 333 284 340 292 q 322 266 326 276 q 319 237 319 256 z "},"ã":{"ha":915,"x_min":41,"x_max":860,"o":"m 473 850 q 609 845 553 850 q 710 826 666 840 q 783 792 755 812 q 828 738 810 771 q 853 663 846 705 q 860 561 860 621 l 860 0 l 596 0 l 596 114 q 519 16 575 47 q 364 -17 463 -16 q 251 -16 298 -19 q 166 -1 203 -12 q 106 28 129 10 q 68 77 83 46 q 47 146 53 107 q 41 240 41 185 q 47 330 41 292 q 67 396 53 367 q 105 444 82 425 q 164 473 127 462 q 247 490 201 485 q 359 494 294 494 l 596 496 l 596 543 q 593 594 596 576 q 585 626 591 612 q 563 646 578 640 q 527 653 547 651 q 471 656 507 656 q 416 655 437 656 q 379 649 396 654 q 354 638 361 644 q 340 618 346 632 q 334 589 335 605 q 334 547 333 574 l 69 547 l 69 576 q 76 673 69 633 q 102 745 83 713 q 150 796 121 777 q 225 828 178 815 q 331 845 272 840 q 473 850 390 850 m 193 937 q 235 1085 193 1042 q 376 1128 276 1128 q 453 1115 418 1128 q 505 1088 487 1103 q 545 1061 523 1074 q 587 1048 567 1048 q 629 1061 614 1048 q 652 1105 644 1074 l 749 1105 q 707 958 749 1001 q 566 916 666 916 q 489 928 524 916 q 437 955 455 940 q 396 982 418 970 q 354 994 374 994 q 313 981 327 994 q 290 937 298 968 l 193 937 m 319 237 q 322 207 319 218 q 333 187 325 196 q 358 176 342 178 q 402 172 375 174 q 471 172 430 170 q 566 196 536 174 q 596 265 596 218 l 596 301 l 471 300 q 402 298 426 300 q 359 294 378 297 q 333 284 340 292 q 322 266 326 276 q 319 237 319 256 z "},"ä":{"ha":915,"x_min":41,"x_max":860,"o":"m 473 850 q 609 845 553 850 q 710 826 666 840 q 783 792 755 812 q 828 738 810 771 q 853 663 846 705 q 860 561 860 621 l 860 0 l 596 0 l 596 114 q 519 16 575 47 q 364 -17 463 -16 q 251 -16 298 -19 q 166 -1 203 -12 q 106 28 129 10 q 68 77 83 46 q 47 146 53 107 q 41 240 41 185 q 47 330 41 292 q 67 396 53 367 q 105 444 82 425 q 164 473 127 462 q 247 490 201 485 q 359 494 294 494 l 596 496 l 596 543 q 593 594 596 576 q 585 626 591 612 q 563 646 578 640 q 527 653 547 651 q 471 656 507 656 q 416 655 437 656 q 379 649 396 654 q 354 638 361 644 q 340 618 346 632 q 334 589 335 605 q 334 547 333 574 l 69 547 l 69 576 q 76 673 69 633 q 102 745 83 713 q 150 796 121 777 q 225 828 178 815 q 331 845 272 840 q 473 850 390 850 m 207 917 l 207 1111 l 429 1111 l 429 917 l 207 917 m 319 237 q 322 207 319 218 q 333 187 325 196 q 358 176 342 178 q 402 172 375 174 q 471 172 430 170 q 566 196 536 174 q 596 265 596 218 l 596 301 l 471 300 q 402 298 426 300 q 359 294 378 297 q 333 284 340 292 q 322 266 326 276 q 319 237 319 256 m 513 917 l 513 1111 l 734 1111 l 734 917 l 513 917 z "},"å":{"ha":915,"x_min":41,"x_max":860,"o":"m 473 850 q 609 845 553 850 q 710 826 666 840 q 783 792 755 812 q 828 738 810 771 q 853 663 846 705 q 860 561 860 621 l 860 0 l 596 0 l 596 114 q 519 16 575 47 q 364 -17 463 -16 q 251 -16 298 -19 q 166 -1 203 -12 q 106 28 129 10 q 68 77 83 46 q 47 146 53 107 q 41 240 41 185 q 47 330 41 292 q 67 396 53 367 q 105 444 82 425 q 164 473 127 462 q 247 490 201 485 q 359 494 294 494 l 596 496 l 596 543 q 593 594 596 576 q 585 626 591 612 q 563 646 578 640 q 527 653 547 651 q 471 656 507 656 q 416 655 437 656 q 379 649 396 654 q 354 638 361 644 q 340 618 346 632 q 334 589 335 605 q 334 547 333 574 l 69 547 l 69 576 q 76 673 69 633 q 102 745 83 713 q 150 796 121 777 q 225 828 178 815 q 331 845 272 840 q 473 850 390 850 m 311 1023 q 347 1106 311 1084 q 472 1128 382 1128 q 595 1106 560 1128 q 631 1023 631 1084 q 595 940 631 963 q 472 917 560 917 q 347 940 382 917 q 311 1023 311 962 m 319 237 q 322 207 319 218 q 333 187 325 196 q 358 176 342 178 q 402 172 375 174 q 471 172 430 170 q 566 196 536 174 q 596 265 596 218 l 596 301 l 471 300 q 402 298 426 300 q 359 294 378 297 q 333 284 340 292 q 322 266 326 276 q 319 237 319 256 m 419 1068 q 414 1063 419 1068 q 408 1022 408 1058 q 419 976 408 986 q 471 966 430 966 q 522 976 511 966 q 533 1022 533 986 q 522 1068 533 1058 q 471 1078 511 1078 q 419 1068 430 1078 z "},"æ":{"ha":1482,"x_min":41,"x_max":1440,"o":"m 473 850 q 779 751 699 850 q 1017 850 841 850 q 1163 843 1102 850 q 1274 818 1225 836 q 1353 771 1322 800 q 1404 698 1383 743 q 1432 595 1424 653 q 1440 457 1440 538 l 1440 328 l 872 328 q 882 248 875 276 q 907 203 889 219 q 949 182 925 186 q 1018 178 973 178 q 1127 196 1099 178 q 1156 265 1156 214 l 1434 265 q 1426 166 1434 208 q 1398 92 1418 125 q 1349 40 1379 60 q 1271 6 1320 20 q 1162 -12 1223 -7 q 1017 -17 1102 -17 q 791 28 873 -17 q 676 171 708 73 q 598 23 665 62 q 364 -17 532 -16 q 251 -16 298 -19 q 166 -1 203 -12 q 106 28 129 10 q 68 77 83 46 q 47 146 53 107 q 41 240 41 185 q 47 330 41 292 q 67 396 53 367 q 105 444 82 425 q 164 473 127 462 q 247 490 201 485 q 359 494 294 494 l 596 496 l 596 543 q 593 604 596 584 q 574 637 589 625 q 538 653 559 650 q 471 656 516 656 q 417 655 437 656 q 379 649 397 654 q 354 638 362 644 q 340 618 346 631 q 334 589 335 605 q 334 547 333 573 l 69 547 l 69 576 q 76 673 69 633 q 102 745 83 713 q 150 796 121 777 q 225 828 178 815 q 331 845 272 840 q 473 850 390 850 m 319 237 q 330 193 319 205 q 370 175 340 180 q 471 172 400 171 q 561 179 543 174 q 596 237 594 196 l 596 301 l 471 300 q 403 298 427 300 q 360 294 379 297 q 333 284 340 292 q 323 266 326 276 q 319 237 319 256 m 873 522 l 1162 522 q 1158 594 1162 570 q 1138 633 1154 618 q 1095 652 1121 649 q 1018 656 1069 656 q 965 654 985 656 q 928 647 945 653 q 903 634 911 642 q 888 609 895 626 q 878 574 881 593 q 873 522 876 555 z "},"ç":{"ha":940,"x_min":41,"x_max":899,"o":"m 625 -172 q 572 -266 625 -237 q 401 -294 519 -294 l 363 -294 l 363 -231 q 424 -230 402 -231 q 462 -225 445 -229 q 485 -215 479 -222 q 494 -199 492 -208 q 497 -172 497 -189 q 494 -146 497 -155 q 485 -129 492 -136 q 462 -119 479 -122 q 424 -115 445 -116 q 363 -114 402 -114 l 363 -50 l 437 -17 q 298 -6 357 -15 q 195 24 240 3 q 121 77 149 45 q 74 157 92 108 q 48 269 56 207 q 41 416 41 330 q 49 569 41 506 q 77 683 57 633 q 129 764 98 733 q 210 814 160 794 q 324 842 260 834 q 478 850 388 850 q 623 843 563 850 q 731 820 683 837 q 808 777 779 803 q 859 708 838 751 q 888 612 879 666 q 899 484 897 559 l 621 484 q 617 545 619 522 q 609 588 615 568 q 594 616 602 608 q 569 632 586 625 q 531 640 551 639 q 478 642 511 642 q 416 640 439 642 q 374 628 393 637 q 345 606 354 618 q 329 565 336 593 q 321 504 322 536 q 319 416 319 471 q 321 329 319 361 q 329 269 322 296 q 345 228 336 241 q 374 205 354 215 q 416 194 393 196 q 478 192 439 192 q 531 194 511 192 q 568 202 551 195 q 593 218 585 209 q 607 247 601 227 q 616 290 614 267 q 621 353 618 313 l 899 353 q 888 226 897 279 q 862 131 880 174 q 815 62 843 89 q 743 18 787 36 q 643 -8 699 0 q 509 -17 587 -16 l 486 -54 q 592 -92 558 -63 q 625 -172 625 -121 z "},"è":{"ha":930,"x_min":41,"x_max":889,"o":"m 882 265 q 872 166 880 207 q 844 92 863 125 q 794 40 824 60 q 718 6 765 20 q 610 -12 670 -7 q 465 -17 549 -17 q 316 -9 378 -17 q 205 19 254 -1 q 126 69 156 39 q 76 150 96 100 q 49 263 56 200 q 41 416 41 327 q 49 569 41 506 q 76 683 56 633 q 126 764 96 733 q 205 814 156 794 q 316 842 254 834 q 465 850 378 850 q 611 843 550 850 q 720 819 671 836 q 798 774 768 801 q 849 703 829 747 q 878 604 869 659 q 889 471 887 549 l 889 342 l 321 342 q 329 254 323 286 q 354 205 336 223 q 396 182 372 187 q 467 178 420 178 q 576 195 549 178 q 604 265 604 213 l 882 265 m 189 1112 l 467 1112 l 564 917 l 397 917 l 189 1112 m 322 536 l 611 536 q 605 601 610 578 q 583 636 600 623 q 541 653 566 650 q 467 656 516 656 q 401 652 425 656 q 360 636 378 648 q 334 600 342 623 q 322 536 326 576 z "},"é":{"ha":930,"x_min":41,"x_max":889,"o":"m 882 265 q 872 166 880 207 q 844 92 863 125 q 794 40 824 60 q 718 6 765 20 q 610 -12 670 -7 q 465 -17 549 -17 q 316 -9 378 -17 q 205 19 254 -1 q 126 69 156 39 q 76 150 96 100 q 49 263 56 200 q 41 416 41 327 q 49 569 41 506 q 76 683 56 633 q 126 764 96 733 q 205 814 156 794 q 316 842 254 834 q 465 850 378 850 q 611 843 550 850 q 720 819 671 836 q 798 774 768 801 q 849 703 829 747 q 878 604 869 659 q 889 471 887 549 l 889 342 l 321 342 q 329 254 323 286 q 354 205 336 223 q 396 182 372 187 q 467 178 420 178 q 576 195 549 178 q 604 265 604 213 l 882 265 m 322 536 l 611 536 q 605 601 610 578 q 583 636 600 623 q 541 653 566 650 q 467 656 516 656 q 401 652 425 656 q 360 636 378 648 q 334 600 342 623 q 322 536 326 576 m 370 917 l 467 1112 l 745 1112 l 536 917 l 370 917 z "},"ê":{"ha":930,"x_min":41,"x_max":889,"o":"m 882 265 q 872 166 880 207 q 844 92 863 125 q 794 40 824 60 q 718 6 765 20 q 610 -12 670 -7 q 465 -17 549 -17 q 316 -9 378 -17 q 205 19 254 -1 q 126 69 156 39 q 76 150 96 100 q 49 263 56 200 q 41 416 41 327 q 49 569 41 506 q 76 683 56 633 q 126 764 96 733 q 205 814 156 794 q 316 842 254 834 q 465 850 378 850 q 611 843 550 850 q 720 819 671 836 q 798 774 768 801 q 849 703 829 747 q 878 604 869 659 q 889 471 887 549 l 889 342 l 321 342 q 329 254 323 286 q 354 205 336 223 q 396 182 372 187 q 467 178 420 178 q 576 195 549 178 q 604 265 604 213 l 882 265 m 187 917 l 378 1111 l 553 1111 l 743 917 l 589 917 l 471 996 l 463 996 l 342 917 l 187 917 m 322 536 l 611 536 q 605 601 610 578 q 583 636 600 623 q 541 653 566 650 q 467 656 516 656 q 401 652 425 656 q 360 636 378 648 q 334 600 342 623 q 322 536 326 576 z "},"ë":{"ha":930,"x_min":41,"x_max":889,"o":"m 882 265 q 872 166 880 207 q 844 92 863 125 q 794 40 824 60 q 718 6 765 20 q 610 -12 670 -7 q 465 -17 549 -17 q 316 -9 378 -17 q 205 19 254 -1 q 126 69 156 39 q 76 150 96 100 q 49 263 56 200 q 41 416 41 327 q 49 569 41 506 q 76 683 56 633 q 126 764 96 733 q 205 814 156 794 q 316 842 254 834 q 465 850 378 850 q 611 843 550 850 q 720 819 671 836 q 798 774 768 801 q 849 703 829 747 q 878 604 869 659 q 889 471 887 549 l 889 342 l 321 342 q 329 254 323 286 q 354 205 336 223 q 396 182 372 187 q 467 178 420 178 q 576 195 549 178 q 604 265 604 213 l 882 265 m 203 917 l 203 1111 l 425 1111 l 425 917 l 203 917 m 322 536 l 611 536 q 605 601 610 578 q 583 636 600 623 q 541 653 566 650 q 467 656 516 656 q 401 652 425 656 q 360 636 378 648 q 334 600 342 623 q 322 536 326 576 m 509 917 l 509 1111 l 730 1111 l 730 917 l 509 917 z "},"ì":{"ha":402,"x_min":-77,"x_max":334,"o":"m 69 833 l 334 833 l 334 0 l 69 0 l 69 833 m -77 1112 l 201 1112 l 298 917 l 132 917 l -77 1112 z "},"í":{"ha":402,"x_min":69,"x_max":479,"o":"m 69 833 l 334 833 l 334 0 l 69 0 l 69 833 m 104 917 l 201 1112 l 479 1112 l 271 917 l 104 917 z "},"î":{"ha":402,"x_min":-78,"x_max":478,"o":"m 69 833 l 334 833 l 334 0 l 69 0 l 69 833 m -78 917 l 113 1111 l 288 1111 l 478 917 l 323 917 l 205 996 l 197 996 l 77 917 l -78 917 z "},"ï":{"ha":402,"x_min":-62,"x_max":465,"o":"m 69 833 l 334 833 l 334 0 l 69 0 l 69 833 m -62 917 l -62 1111 l 160 1111 l 160 917 l -62 917 m 243 917 l 243 1111 l 465 1111 l 465 917 l 243 917 z "},"ð":{"ha":928,"x_min":41,"x_max":886,"o":"m 624 1111 q 692 1029 663 1068 l 848 1029 l 848 904 l 774 904 q 886 416 886 699 q 879 263 886 327 q 852 150 871 200 q 803 69 833 100 q 726 19 774 39 q 617 -9 677 -1 q 471 -17 556 -17 q 319 -9 382 -17 q 207 19 257 -1 q 127 69 157 39 q 77 150 96 100 q 49 263 57 200 q 41 416 41 327 q 47 564 41 503 q 66 673 52 625 q 102 750 81 721 q 159 799 124 780 q 238 826 194 819 q 345 833 282 833 q 518 799 454 833 q 610 688 582 764 q 542 888 593 792 l 335 888 l 335 1013 l 454 1013 q 359 1111 407 1067 l 624 1111 m 306 416 q 307 337 306 367 q 315 282 309 308 q 331 245 322 257 q 360 225 340 233 q 403 214 380 216 q 465 212 427 212 q 526 214 503 212 q 569 225 549 216 q 597 245 588 233 q 613 282 606 257 q 621 337 619 308 q 623 416 623 367 q 584 559 622 515 q 465 603 547 603 q 403 601 426 603 q 360 592 380 600 q 331 573 340 584 q 315 539 322 562 q 307 489 309 516 q 306 416 306 462 z "},"ñ":{"ha":915,"x_min":69,"x_max":860,"o":"m 69 833 l 334 833 l 334 703 q 414 814 353 779 q 585 850 475 850 q 682 844 642 850 q 753 824 722 839 q 804 788 785 810 q 836 730 823 766 q 854 649 849 694 q 859 539 859 604 l 860 0 l 596 0 l 596 472 q 595 532 596 510 q 589 574 594 555 q 578 603 585 594 q 556 618 571 612 q 525 627 542 625 q 479 628 508 628 q 369 591 404 628 q 335 472 335 553 l 334 0 l 69 0 l 69 833 m 171 937 q 212 1085 171 1042 q 354 1128 254 1128 q 430 1115 396 1128 q 483 1088 465 1103 q 523 1061 501 1074 q 566 1048 545 1048 q 607 1061 593 1048 q 629 1105 621 1074 l 726 1105 q 685 958 726 1001 q 543 916 644 916 q 467 928 501 916 q 414 955 433 940 q 374 982 396 970 q 332 994 352 994 q 290 981 304 994 q 268 937 276 968 l 171 937 z "},"ò":{"ha":956,"x_min":41,"x_max":914,"o":"m 540 640 q 528 641 540 640 q 478 642 517 642 q 416 640 439 642 q 374 628 393 637 q 345 606 354 618 q 329 565 336 593 q 321 504 322 536 q 319 416 319 471 q 321 329 319 361 q 329 269 322 296 q 345 228 336 241 q 374 205 354 215 q 416 194 393 196 q 478 192 439 192 q 540 194 517 192 q 583 205 563 196 q 611 228 602 215 q 627 269 620 241 q 635 329 633 296 q 636 416 636 361 q 635 504 636 471 q 627 565 633 536 q 611 606 620 593 q 583 628 602 618 q 540 640 563 637 m 49 263 q 45 295 49 263 q 41 416 41 327 q 49 569 41 506 q 77 683 57 633 q 129 764 98 733 q 210 814 160 794 q 324 842 260 834 q 478 850 388 850 q 632 842 568 850 q 746 814 695 834 q 827 764 796 794 q 878 683 858 733 q 906 569 899 633 q 914 416 914 506 q 906 263 914 327 q 878 150 899 200 q 827 69 858 100 q 746 19 796 39 q 632 -9 695 -1 q 478 -17 568 -17 q 324 -9 388 -17 q 210 19 260 -1 q 129 69 160 39 q 77 150 98 100 q 49 263 57 200 m 200 1112 l 478 1112 l 575 917 l 408 917 l 200 1112 z "},"ó":{"ha":956,"x_min":41,"x_max":914,"o":"m 540 640 q 528 641 540 640 q 478 642 517 642 q 416 640 439 642 q 374 628 393 637 q 345 606 354 618 q 329 565 336 593 q 321 504 322 536 q 319 416 319 471 q 321 329 319 361 q 329 269 322 296 q 345 228 336 241 q 374 205 354 215 q 416 194 393 196 q 478 192 439 192 q 540 194 517 192 q 583 205 563 196 q 611 228 602 215 q 627 269 620 241 q 635 329 633 296 q 636 416 636 361 q 635 504 636 471 q 627 565 633 536 q 611 606 620 593 q 583 628 602 618 q 540 640 563 637 m 49 263 q 45 295 49 263 q 41 416 41 327 q 49 569 41 506 q 77 683 57 633 q 129 764 98 733 q 210 814 160 794 q 324 842 260 834 q 478 850 388 850 q 632 842 568 850 q 746 814 695 834 q 827 764 796 794 q 878 683 858 733 q 906 569 899 633 q 914 416 914 506 q 906 263 914 327 q 878 150 899 200 q 827 69 858 100 q 746 19 796 39 q 632 -9 695 -1 q 478 -17 568 -17 q 324 -9 388 -17 q 210 19 260 -1 q 129 69 160 39 q 77 150 98 100 q 49 263 57 200 m 380 917 l 478 1112 l 755 1112 l 547 917 l 380 917 z "},"ô":{"ha":956,"x_min":41,"x_max":914,"o":"m 540 640 q 528 641 540 640 q 478 642 517 642 q 416 640 439 642 q 374 628 393 637 q 345 606 354 618 q 329 565 336 593 q 321 504 322 536 q 319 416 319 471 q 321 329 319 361 q 329 269 322 296 q 345 228 336 241 q 374 205 354 215 q 416 194 393 196 q 478 192 439 192 q 540 194 517 192 q 583 205 563 196 q 611 228 602 215 q 627 269 620 241 q 635 329 633 296 q 636 416 636 361 q 635 504 636 471 q 627 565 633 536 q 611 606 620 593 q 583 628 602 618 q 540 640 563 637 m 49 263 q 45 295 49 263 q 41 416 41 327 q 49 569 41 506 q 77 683 57 633 q 129 764 98 733 q 210 814 160 794 q 324 842 260 834 q 478 850 388 850 q 632 842 568 850 q 746 814 695 834 q 827 764 796 794 q 878 683 858 733 q 906 569 899 633 q 914 416 914 506 q 906 263 914 327 q 878 150 899 200 q 827 69 858 100 q 746 19 796 39 q 632 -9 695 -1 q 478 -17 568 -17 q 324 -9 388 -17 q 210 19 260 -1 q 129 69 160 39 q 77 150 98 100 q 49 263 57 200 m 199 917 l 389 1111 l 564 1111 l 754 917 l 600 917 l 482 996 l 473 996 l 353 917 l 199 917 z "},"õ":{"ha":956,"x_min":41,"x_max":914,"o":"m 540 640 q 528 641 540 640 q 478 642 517 642 q 416 640 439 642 q 374 628 393 637 q 345 606 354 618 q 329 565 336 593 q 321 504 322 536 q 319 416 319 471 q 321 329 319 361 q 329 269 322 296 q 345 228 336 241 q 374 205 354 215 q 416 194 393 196 q 478 192 439 192 q 540 194 517 192 q 583 205 563 196 q 611 228 602 215 q 627 269 620 241 q 635 329 633 296 q 636 416 636 361 q 635 504 636 471 q 627 565 633 536 q 611 606 620 593 q 583 628 602 618 q 540 640 563 637 m 49 263 q 45 295 49 263 q 41 416 41 327 q 49 569 41 506 q 77 683 57 633 q 129 764 98 733 q 210 814 160 794 q 324 842 260 834 q 478 850 388 850 q 632 842 568 850 q 746 814 695 834 q 827 764 796 794 q 878 683 858 733 q 906 569 899 633 q 914 416 914 506 q 906 263 914 327 q 878 150 899 200 q 827 69 858 100 q 746 19 796 39 q 632 -9 695 -1 q 478 -17 568 -17 q 324 -9 388 -17 q 210 19 260 -1 q 129 69 160 39 q 77 150 98 100 q 49 263 57 200 m 200 937 q 241 1085 200 1042 q 383 1128 283 1128 q 459 1115 425 1128 q 512 1088 494 1103 q 552 1061 530 1074 q 595 1048 574 1048 q 636 1061 622 1048 q 659 1105 650 1074 l 755 1105 q 714 958 755 1001 q 572 916 673 916 q 496 928 530 916 q 444 955 462 940 q 403 982 425 970 q 361 994 381 994 q 319 981 334 994 q 297 937 305 968 l 200 937 z "},"ö":{"ha":956,"x_min":41,"x_max":914,"o":"m 540 640 q 528 641 540 640 q 478 642 517 642 q 416 640 439 642 q 374 628 393 637 q 345 606 354 618 q 329 565 336 593 q 321 504 322 536 q 319 416 319 471 q 321 329 319 361 q 329 269 322 296 q 345 228 336 241 q 374 205 354 215 q 416 194 393 196 q 478 192 439 192 q 540 194 517 192 q 583 205 563 196 q 611 228 602 215 q 627 269 620 241 q 635 329 633 296 q 636 416 636 361 q 635 504 636 471 q 627 565 633 536 q 611 606 620 593 q 583 628 602 618 q 540 640 563 637 m 49 263 q 45 295 49 263 q 41 416 41 327 q 49 569 41 506 q 77 683 57 633 q 129 764 98 733 q 210 814 160 794 q 324 842 260 834 q 478 850 388 850 q 632 842 568 850 q 746 814 695 834 q 827 764 796 794 q 878 683 858 733 q 906 569 899 633 q 914 416 914 506 q 906 263 914 327 q 878 150 899 200 q 827 69 858 100 q 746 19 796 39 q 632 -9 695 -1 q 478 -17 568 -17 q 324 -9 388 -17 q 210 19 260 -1 q 129 69 160 39 q 77 150 98 100 q 49 263 57 200 m 214 917 l 214 1111 l 436 1111 l 436 917 l 214 917 m 519 917 l 519 1111 l 742 1111 l 742 917 l 519 917 z "},"÷":{"ha":954,"x_min":69,"x_max":885,"o":"m 69 542 l 885 542 l 885 347 l 69 347 l 69 542 m 339 56 l 339 264 l 616 264 l 616 56 l 339 56 m 339 625 l 339 833 l 616 833 l 616 625 l 339 625 z "},"ø":{"ha":1217,"x_min":83,"x_max":1133,"o":"m 582 642 q 520 640 543 642 q 477 628 497 637 q 449 606 458 618 q 433 565 440 593 q 425 504 427 536 q 424 416 424 471 q 427 310 424 368 l 722 591 q 677 632 708 622 q 582 642 646 642 m 83 -17 l 207 102 q 160 225 174 150 q 146 416 146 300 q 154 569 146 506 q 182 683 161 633 q 233 764 202 733 q 314 814 264 794 q 428 842 365 834 q 582 850 492 850 q 789 833 709 850 q 917 777 869 817 l 994 850 l 1133 850 l 975 700 q 1018 416 1018 612 q 1010 263 1018 327 q 982 150 1002 200 q 931 69 962 100 q 849 19 900 39 q 735 -9 799 -1 q 582 -17 672 -17 q 278 36 369 -17 l 222 -17 l 83 -17 m 464 212 q 582 192 492 192 q 644 194 621 192 q 686 205 667 196 q 715 228 706 215 q 731 269 724 241 q 739 329 738 296 q 741 416 741 361 l 741 475 l 464 212 z "},"ù":{"ha":901,"x_min":56,"x_max":832,"o":"m 832 0 l 568 0 l 568 131 q 492 19 549 55 q 330 -17 434 -17 q 233 -12 273 -17 q 162 8 193 -6 q 111 45 130 23 q 79 103 92 67 q 62 184 66 139 q 57 294 57 230 l 56 833 l 319 833 l 319 357 q 322 275 319 302 q 340 231 326 248 q 376 209 354 213 q 443 205 398 205 q 537 240 508 205 q 567 351 567 275 l 568 833 l 832 833 l 832 0 m 167 1112 l 444 1112 l 542 917 l 375 917 l 167 1112 z "},"ú":{"ha":901,"x_min":56,"x_max":832,"o":"m 832 0 l 568 0 l 568 131 q 492 19 549 55 q 330 -17 434 -17 q 233 -12 273 -17 q 162 8 193 -6 q 111 45 130 23 q 79 103 92 67 q 62 184 66 139 q 57 294 57 230 l 56 833 l 319 833 l 319 357 q 322 275 319 302 q 340 231 326 248 q 376 209 354 213 q 443 205 398 205 q 537 240 508 205 q 567 351 567 275 l 568 833 l 832 833 l 832 0 m 347 917 l 444 1112 l 722 1112 l 514 917 l 347 917 z "},"û":{"ha":901,"x_min":56,"x_max":832,"o":"m 832 0 l 568 0 l 568 131 q 492 19 549 55 q 330 -17 434 -17 q 233 -12 273 -17 q 162 8 193 -6 q 111 45 130 23 q 79 103 92 67 q 62 184 66 139 q 57 294 57 230 l 56 833 l 319 833 l 319 357 q 322 275 319 302 q 340 231 326 248 q 376 209 354 213 q 443 205 398 205 q 537 240 508 205 q 567 351 567 275 l 568 833 l 832 833 l 832 0 m 165 917 l 355 1111 l 530 1111 l 721 917 l 567 917 l 449 996 l 440 996 l 319 917 l 165 917 z "},"ü":{"ha":901,"x_min":56,"x_max":832,"o":"m 832 0 l 568 0 l 568 131 q 492 19 549 55 q 330 -17 434 -17 q 233 -12 273 -17 q 162 8 193 -6 q 111 45 130 23 q 79 103 92 67 q 62 184 66 139 q 57 294 57 230 l 56 833 l 319 833 l 319 357 q 322 275 319 302 q 340 231 326 248 q 376 209 354 213 q 443 205 398 205 q 537 240 508 205 q 567 351 567 275 l 568 833 l 832 833 l 832 0 m 180 917 l 180 1111 l 403 1111 l 403 917 l 180 917 m 486 917 l 486 1111 l 708 1111 l 708 917 l 486 917 z "},"ý":{"ha":883,"x_min":7,"x_max":876,"o":"m 635 -65 q 603 -153 621 -117 q 560 -213 585 -188 q 497 -252 535 -239 q 412 -272 460 -266 q 296 -278 365 -278 l 106 -278 l 106 -56 l 262 -56 q 364 -46 342 -56 q 397 4 386 -37 l 404 28 l 237 28 l 7 833 l 282 833 l 450 216 l 458 216 l 618 833 l 876 833 l 635 -65 m 357 917 l 454 1112 l 732 1112 l 524 917 l 357 917 z "},"þ":{"ha":964,"x_min":69,"x_max":922,"o":"m 69 1111 l 334 1111 l 334 721 q 424 819 356 788 q 611 850 492 850 q 721 842 675 850 q 802 814 766 834 q 860 764 838 794 q 897 683 882 733 q 917 569 911 633 q 922 416 922 506 q 917 263 922 327 q 896 150 911 200 q 857 69 880 100 q 797 19 834 39 q 712 -9 760 -1 q 597 -17 665 -17 q 410 29 475 -17 q 326 174 344 75 l 326 -278 l 69 -278 l 69 1111 m 334 294 q 486 205 334 205 q 548 208 525 205 q 591 218 571 210 q 619 239 610 227 q 635 277 628 251 q 643 334 642 304 q 644 416 644 365 q 643 498 644 468 q 635 555 642 529 q 621 594 629 582 q 595 615 613 606 q 557 626 578 624 q 501 628 536 628 q 373 590 413 628 q 334 469 334 553 l 334 294 z "},"ÿ":{"ha":883,"x_min":7,"x_max":876,"o":"m 635 -65 q 603 -153 621 -117 q 560 -213 585 -188 q 497 -252 535 -239 q 412 -272 460 -266 q 296 -278 365 -278 l 106 -278 l 106 -56 l 262 -56 q 364 -46 342 -56 q 397 4 386 -37 l 404 28 l 237 28 l 7 833 l 282 833 l 450 216 l 458 216 l 618 833 l 876 833 l 635 -65 m 191 917 l 191 1111 l 412 1111 l 412 917 l 191 917 m 496 917 l 496 1111 l 718 1111 l 718 917 l 496 917 z "},"Ā":{"ha":1201,"x_min":7,"x_max":1194,"o":"m 847 1083 l 1194 0 l 861 0 l 803 211 l 386 211 l 321 0 l 7 0 l 364 1083 l 847 1083 m 375 1181 l 375 1305 l 819 1305 l 819 1181 l 375 1181 m 461 447 l 730 447 l 602 847 l 593 847 l 461 447 z "},"ā":{"ha":915,"x_min":41,"x_max":860,"o":"m 473 850 q 609 845 553 850 q 710 826 666 840 q 783 792 755 812 q 828 738 810 771 q 853 663 846 705 q 860 561 860 621 l 860 0 l 596 0 l 596 114 q 519 16 575 47 q 364 -17 463 -16 q 251 -16 298 -19 q 166 -1 203 -12 q 106 28 129 10 q 68 77 83 46 q 47 146 53 107 q 41 240 41 185 q 47 330 41 292 q 67 396 53 367 q 105 444 82 425 q 164 473 127 462 q 247 490 201 485 q 359 494 294 494 l 596 496 l 596 543 q 593 594 596 576 q 585 626 591 612 q 563 646 578 640 q 527 653 547 651 q 471 656 507 656 q 416 655 437 656 q 379 649 396 654 q 354 638 361 644 q 340 618 346 632 q 334 589 335 605 q 334 547 333 574 l 69 547 l 69 576 q 76 673 69 633 q 102 745 83 713 q 150 796 121 777 q 225 828 178 815 q 331 845 272 840 q 473 850 390 850 m 249 930 l 249 1055 l 693 1055 l 693 930 l 249 930 m 319 237 q 322 207 319 218 q 333 187 325 196 q 358 176 342 178 q 402 172 375 174 q 471 172 430 170 q 566 196 536 174 q 596 265 596 218 l 596 301 l 471 300 q 402 298 426 300 q 359 294 378 297 q 333 284 340 292 q 322 266 326 276 q 319 237 319 256 z "},"Ă":{"ha":1201,"x_min":7,"x_max":1194,"o":"m 847 1083 l 1194 0 l 861 0 l 803 211 l 386 211 l 321 0 l 7 0 l 364 1083 l 847 1083 m 389 1361 l 514 1360 q 516 1296 514 1318 q 522 1256 517 1274 q 536 1232 526 1239 q 560 1222 547 1225 q 599 1219 574 1219 q 636 1222 623 1219 q 659 1232 649 1225 q 673 1257 669 1239 q 679 1297 677 1274 q 681 1361 681 1320 l 806 1361 q 764 1203 806 1242 q 599 1164 723 1164 q 431 1203 473 1164 q 389 1361 389 1242 m 461 447 l 730 447 l 602 847 l 593 847 l 461 447 z "},"ă":{"ha":915,"x_min":41,"x_max":860,"o":"m 473 850 q 609 845 553 850 q 710 826 666 840 q 783 792 755 812 q 828 738 810 771 q 853 663 846 705 q 860 561 860 621 l 860 0 l 596 0 l 596 114 q 519 16 575 47 q 364 -17 463 -16 q 251 -16 298 -19 q 166 -1 203 -12 q 106 28 129 10 q 68 77 83 46 q 47 146 53 107 q 41 240 41 185 q 47 330 41 292 q 67 396 53 367 q 105 444 82 425 q 164 473 127 462 q 247 490 201 485 q 359 494 294 494 l 596 496 l 596 543 q 593 594 596 576 q 585 626 591 612 q 563 646 578 640 q 527 653 547 651 q 471 656 507 656 q 416 655 437 656 q 379 649 396 654 q 354 638 361 644 q 340 618 346 632 q 334 589 335 605 q 334 547 333 574 l 69 547 l 69 576 q 76 673 69 633 q 102 745 83 713 q 150 796 121 777 q 225 828 178 815 q 331 845 272 840 q 473 850 390 850 m 262 1111 l 387 1109 q 389 1034 387 1059 q 401 993 391 1009 q 426 973 411 977 q 472 970 441 970 q 509 972 496 970 q 532 982 522 975 q 547 1006 543 989 q 552 1047 551 1024 q 554 1111 554 1069 l 679 1111 q 637 953 679 992 q 472 914 596 914 q 304 953 346 914 q 262 1111 262 992 m 319 237 q 322 207 319 218 q 333 187 325 196 q 358 176 342 178 q 402 172 375 174 q 471 172 430 170 q 566 196 536 174 q 596 265 596 218 l 596 301 l 471 300 q 402 298 426 300 q 359 294 378 297 q 333 284 340 292 q 322 266 326 276 q 319 237 319 256 z "},"Ą":{"ha":1201,"x_min":7,"x_max":1194,"o":"m 847 1083 l 1194 0 q 1101 -105 1128 -65 q 1074 -179 1074 -146 q 1095 -218 1074 -210 q 1166 -214 1116 -227 l 1166 -278 q 1078 -294 1139 -294 q 977 -270 1008 -294 q 946 -187 946 -245 q 987 -102 946 -144 q 1131 0 1029 -60 l 861 0 l 803 211 l 386 211 l 321 0 l 7 0 l 364 1083 l 847 1083 m 461 447 l 730 447 l 602 847 l 593 847 l 461 447 z "},"ą":{"ha":915,"x_min":41,"x_max":860,"o":"m 473 850 q 609 845 553 850 q 710 826 666 840 q 783 792 755 812 q 828 738 810 771 q 853 663 846 705 q 860 561 860 621 l 860 0 q 767 -105 794 -65 q 739 -179 739 -146 q 760 -218 739 -210 q 832 -214 781 -227 l 832 -278 q 743 -294 804 -294 q 642 -270 673 -294 q 611 -187 611 -245 q 653 -102 611 -144 q 796 0 694 -60 l 596 0 l 596 114 q 519 16 575 47 q 364 -17 463 -16 q 251 -16 298 -19 q 166 -1 203 -12 q 106 28 129 10 q 68 77 83 46 q 47 146 53 107 q 41 240 41 185 q 47 330 41 292 q 67 396 53 367 q 105 444 82 425 q 164 473 127 462 q 247 490 201 485 q 359 494 294 494 l 596 496 l 596 543 q 593 594 596 576 q 585 626 591 612 q 563 646 578 640 q 527 653 547 651 q 471 656 507 656 q 416 655 437 656 q 379 649 396 654 q 354 638 361 644 q 340 618 346 632 q 334 589 335 605 q 334 547 333 574 l 69 547 l 69 576 q 76 673 69 633 q 102 745 83 713 q 150 796 121 777 q 225 828 178 815 q 331 845 272 840 q 473 850 390 850 m 319 237 q 322 207 319 218 q 333 187 325 196 q 358 176 342 178 q 402 172 375 174 q 471 172 430 170 q 566 196 536 174 q 596 265 596 218 l 596 301 l 471 300 q 402 298 426 300 q 359 294 378 297 q 333 284 340 292 q 322 266 326 276 q 319 237 319 256 z "},"Ć":{"ha":1187,"x_min":41,"x_max":1147,"o":"m 1146 460 q 1137 292 1147 361 q 1103 168 1128 222 q 1039 79 1078 113 q 936 22 1000 45 q 791 -8 872 0 q 596 -17 710 -17 q 401 -7 482 -17 q 256 29 320 3 q 153 95 192 55 q 87 199 113 134 q 51 345 61 263 q 41 542 41 427 q 51 739 41 657 q 87 885 61 821 q 153 989 113 949 q 256 1055 192 1029 q 401 1090 320 1080 q 596 1100 482 1100 q 747 1095 682 1100 q 869 1079 813 1090 q 965 1050 925 1067 q 1038 1005 1006 1033 q 1090 943 1070 978 q 1123 861 1110 909 q 1142 756 1137 812 q 1146 627 1147 700 l 840 627 q 839 719 841 684 q 827 783 837 753 q 803 826 817 812 q 758 849 789 840 q 692 862 728 859 q 596 864 656 864 q 499 861 536 864 q 432 844 463 858 q 387 812 401 831 q 362 754 373 793 q 350 667 352 714 q 347 542 347 621 q 350 416 347 463 q 362 330 352 370 q 387 272 373 290 q 432 239 401 253 q 499 223 463 226 q 596 220 536 220 q 692 222 656 220 q 758 234 728 224 q 803 258 789 244 q 827 302 817 272 q 839 367 837 332 q 840 460 841 401 l 1146 460 m 498 1165 l 596 1361 l 873 1361 l 665 1165 l 498 1165 z "},"ć":{"ha":940,"x_min":41,"x_max":899,"o":"m 478 -17 q 324 -9 388 -17 q 210 19 260 -1 q 129 69 160 39 q 77 150 98 100 q 49 263 57 200 q 41 416 41 327 q 49 569 41 506 q 77 683 57 633 q 129 764 98 733 q 210 814 160 794 q 324 842 260 834 q 478 850 388 850 q 623 843 563 850 q 731 820 683 837 q 808 777 779 803 q 859 708 838 751 q 888 612 879 666 q 899 484 897 559 l 621 484 q 617 545 619 522 q 609 588 615 568 q 594 616 602 608 q 569 632 586 625 q 531 640 551 639 q 478 642 511 642 q 416 640 439 642 q 374 628 393 637 q 345 606 354 618 q 329 565 336 593 q 321 504 322 536 q 319 416 319 471 q 321 329 319 361 q 329 269 322 296 q 345 228 336 241 q 374 205 354 215 q 416 194 393 196 q 478 192 439 192 q 531 194 511 192 q 568 202 551 195 q 593 218 585 209 q 607 247 601 227 q 616 290 614 267 q 621 353 618 313 l 899 353 q 888 222 897 277 q 860 125 880 168 q 809 57 840 83 q 731 14 779 31 q 623 -10 684 -3 q 478 -17 563 -17 m 380 917 l 478 1112 l 755 1112 l 547 917 l 380 917 z "},"Č":{"ha":1187,"x_min":41,"x_max":1147,"o":"m 1146 460 q 1137 292 1147 361 q 1103 168 1128 222 q 1039 79 1078 113 q 936 22 1000 45 q 791 -8 872 0 q 596 -17 710 -17 q 401 -7 482 -17 q 256 29 320 3 q 153 95 192 55 q 87 199 113 134 q 51 345 61 263 q 41 542 41 427 q 51 739 41 657 q 87 885 61 821 q 153 989 113 949 q 256 1055 192 1029 q 401 1090 320 1080 q 596 1100 482 1100 q 747 1095 682 1100 q 869 1079 813 1090 q 965 1050 925 1067 q 1038 1005 1006 1033 q 1090 943 1070 978 q 1123 861 1110 909 q 1142 756 1137 812 q 1146 627 1147 700 l 840 627 q 839 719 841 684 q 827 783 837 753 q 803 826 817 812 q 758 849 789 840 q 692 862 728 859 q 596 864 656 864 q 499 861 536 864 q 432 844 463 858 q 387 812 401 831 q 362 754 373 793 q 350 667 352 714 q 347 542 347 621 q 350 416 347 463 q 362 330 352 370 q 387 272 373 290 q 432 239 401 253 q 499 223 463 226 q 596 220 536 220 q 692 222 656 220 q 758 234 728 224 q 803 258 789 244 q 827 302 817 272 q 839 367 837 332 q 840 460 841 401 l 1146 460 m 317 1360 l 471 1360 l 591 1280 l 600 1280 l 718 1360 l 872 1360 l 682 1165 l 507 1165 l 317 1360 z "},"č":{"ha":940,"x_min":41,"x_max":899,"o":"m 478 -17 q 324 -9 388 -17 q 210 19 260 -1 q 129 69 160 39 q 77 150 98 100 q 49 263 57 200 q 41 416 41 327 q 49 569 41 506 q 77 683 57 633 q 129 764 98 733 q 210 814 160 794 q 324 842 260 834 q 478 850 388 850 q 623 843 563 850 q 731 820 683 837 q 808 777 779 803 q 859 708 838 751 q 888 612 879 666 q 899 484 897 559 l 621 484 q 617 545 619 522 q 609 588 615 568 q 594 616 602 608 q 569 632 586 625 q 531 640 551 639 q 478 642 511 642 q 416 640 439 642 q 374 628 393 637 q 345 606 354 618 q 329 565 336 593 q 321 504 322 536 q 319 416 319 471 q 321 329 319 361 q 329 269 322 296 q 345 228 336 241 q 374 205 354 215 q 416 194 393 196 q 478 192 439 192 q 531 194 511 192 q 568 202 551 195 q 593 218 585 209 q 607 247 601 227 q 616 290 614 267 q 621 353 618 313 l 899 353 q 888 222 897 277 q 860 125 880 168 q 809 57 840 83 q 731 14 779 31 q 623 -10 684 -3 q 478 -17 563 -17 m 199 1111 l 353 1111 l 473 1032 l 482 1032 l 600 1111 l 754 1111 l 564 917 l 389 917 l 199 1111 z "},"Ď":{"ha":1165,"x_min":69,"x_max":1124,"o":"m 361 833 l 359 542 l 361 250 l 599 250 q 665 252 639 250 q 716 259 692 253 q 755 273 741 265 q 782 298 770 281 q 801 334 795 315 q 811 386 807 353 q 817 454 816 418 q 818 542 818 489 q 817 630 818 595 q 811 698 816 665 q 801 750 807 730 q 782 786 795 769 q 755 811 770 803 q 716 825 741 819 q 665 832 692 831 q 599 833 639 833 l 361 833 m 69 0 l 69 1083 l 629 1083 q 804 1074 732 1083 q 933 1039 876 1064 q 1025 976 990 1014 q 1083 874 1061 937 q 1115 733 1106 812 q 1124 542 1124 654 q 1115 351 1124 430 q 1083 209 1106 272 q 1025 108 1061 146 q 933 45 990 70 q 804 10 876 20 q 629 0 732 0 l 69 0 m 310 1361 l 464 1361 l 585 1282 l 593 1282 l 711 1361 l 865 1361 l 675 1166 l 500 1166 l 310 1361 z "},"ď":{"ha":1415,"x_min":56,"x_max":1221,"o":"m 908 1111 l 908 0 l 652 0 l 652 174 q 568 29 634 75 q 380 -17 503 -17 q 266 -9 313 -17 q 181 19 218 -1 q 121 69 144 39 q 82 150 98 100 q 61 263 67 200 q 56 416 56 327 q 61 569 56 506 q 81 683 66 633 q 118 764 96 733 q 176 814 140 794 q 257 842 212 834 q 367 850 302 850 q 554 819 486 850 q 644 721 622 788 l 644 1111 l 908 1111 m 334 416 q 335 334 334 365 q 343 277 336 304 q 359 239 350 251 q 387 218 368 227 q 430 208 407 210 q 492 205 453 205 q 644 294 644 205 l 644 469 q 604 590 644 553 q 476 628 564 628 q 433 627 450 628 q 400 622 416 626 q 374 611 384 617 q 357 593 365 606 q 345 567 349 581 q 338 530 341 553 q 334 480 335 506 q 334 416 334 455 m 985 721 l 985 1111 l 1221 1111 l 1109 721 l 985 721 z "},"Đ":{"ha":1359,"x_min":83,"x_max":1263,"o":"m 500 833 l 498 672 l 677 672 l 677 436 l 498 436 l 500 250 l 737 250 q 804 252 777 250 q 854 259 830 253 q 893 273 879 265 q 921 298 908 281 q 940 334 934 315 q 950 386 945 353 q 956 454 955 418 q 957 542 957 489 q 956 630 957 595 q 950 698 955 665 q 940 750 945 730 q 921 786 934 769 q 893 811 908 803 q 854 825 879 819 q 804 832 830 831 q 737 833 777 833 l 500 833 m 83 436 l 83 672 l 208 672 l 208 1083 l 768 1083 q 943 1074 871 1083 q 1072 1039 1015 1064 q 1164 976 1129 1014 q 1222 874 1200 937 q 1254 733 1245 812 q 1263 542 1263 654 q 1254 351 1263 430 q 1222 209 1245 272 q 1164 108 1200 146 q 1072 45 1129 70 q 943 10 1015 20 q 768 0 871 0 l 208 0 l 208 436 l 83 436 z "},"đ":{"ha":964,"x_min":41,"x_max":978,"o":"m 895 1111 l 895 1055 l 978 1055 l 978 930 l 895 930 l 895 0 l 637 0 l 637 174 q 554 29 620 75 q 367 -17 489 -17 q 252 -9 300 -17 q 167 19 205 -1 q 106 69 130 39 q 68 150 83 100 q 47 263 53 200 q 41 416 41 327 q 47 569 41 506 q 67 683 52 633 q 103 764 81 733 q 161 814 125 794 q 243 842 197 834 q 353 850 288 850 q 540 819 472 850 q 631 721 608 788 l 631 930 l 533 930 l 533 1055 l 631 1055 l 631 1111 l 895 1111 m 321 498 q 320 483 321 498 q 319 416 319 468 q 321 334 319 365 q 329 277 322 304 q 345 239 336 251 q 374 218 354 227 q 416 208 393 210 q 478 205 439 205 q 631 294 631 205 l 631 469 q 591 590 631 553 q 463 628 551 628 q 407 626 428 628 q 368 615 386 624 q 342 594 351 606 q 328 555 334 582 q 321 498 322 529 z "},"Ē":{"ha":1017,"x_min":69,"x_max":961,"o":"m 69 1083 l 958 1083 l 958 833 l 361 833 l 361 667 l 903 667 l 903 431 l 361 431 l 361 250 l 961 250 l 961 0 l 69 0 l 69 1083 m 306 1181 l 306 1305 l 750 1305 l 750 1181 l 306 1181 z "},"ē":{"ha":930,"x_min":41,"x_max":889,"o":"m 882 265 q 872 166 880 207 q 844 92 863 125 q 794 40 824 60 q 718 6 765 20 q 610 -12 670 -7 q 465 -17 549 -17 q 316 -9 378 -17 q 205 19 254 -1 q 126 69 156 39 q 76 150 96 100 q 49 263 56 200 q 41 416 41 327 q 49 569 41 506 q 76 683 56 633 q 126 764 96 733 q 205 814 156 794 q 316 842 254 834 q 465 850 378 850 q 611 843 550 850 q 720 819 671 836 q 798 774 768 801 q 849 703 829 747 q 878 604 869 659 q 889 471 887 549 l 889 342 l 321 342 q 329 254 323 286 q 354 205 336 223 q 396 182 372 187 q 467 178 420 178 q 576 195 549 178 q 604 265 604 213 l 882 265 m 244 930 l 244 1055 l 689 1055 l 689 930 l 244 930 m 322 536 l 611 536 q 605 601 610 578 q 583 636 600 623 q 541 653 566 650 q 467 656 516 656 q 401 652 425 656 q 360 636 378 648 q 334 600 342 623 q 322 536 326 576 z "},"Ė":{"ha":1017,"x_min":69,"x_max":961,"o":"m 69 1083 l 958 1083 l 958 833 l 361 833 l 361 667 l 903 667 l 903 431 l 361 431 l 361 250 l 961 250 l 961 0 l 69 0 l 69 1083 m 389 1166 l 389 1361 l 667 1361 l 667 1166 l 389 1166 z "},"ė":{"ha":930,"x_min":41,"x_max":889,"o":"m 882 265 q 872 166 880 207 q 844 92 863 125 q 794 40 824 60 q 718 6 765 20 q 610 -12 670 -7 q 465 -17 549 -17 q 316 -9 378 -17 q 205 19 254 -1 q 126 69 156 39 q 76 150 96 100 q 49 263 56 200 q 41 416 41 327 q 49 569 41 506 q 76 683 56 633 q 126 764 96 733 q 205 814 156 794 q 316 842 254 834 q 465 850 378 850 q 611 843 550 850 q 720 819 671 836 q 798 774 768 801 q 849 703 829 747 q 878 604 869 659 q 889 471 887 549 l 889 342 l 321 342 q 329 254 323 286 q 354 205 336 223 q 396 182 372 187 q 467 178 420 178 q 576 195 549 178 q 604 265 604 213 l 882 265 m 322 536 l 611 536 q 605 601 610 578 q 583 636 600 623 q 541 653 566 650 q 467 656 516 656 q 401 652 425 656 q 360 636 378 648 q 334 600 342 623 q 322 536 326 576 m 328 917 l 328 1111 l 606 1111 l 606 917 l 328 917 z "},"Ę":{"ha":1017,"x_min":69,"x_max":961,"o":"m 69 1083 l 958 1083 l 958 833 l 361 833 l 361 667 l 903 667 l 903 431 l 361 431 l 361 250 l 961 250 l 961 0 q 868 -105 895 -65 q 840 -179 840 -146 q 861 -218 840 -210 q 933 -214 882 -227 l 933 -278 q 844 -294 905 -294 q 744 -270 775 -294 q 713 -187 713 -245 q 754 -102 713 -144 q 897 0 795 -60 l 69 0 l 69 1083 z "},"ę":{"ha":930,"x_min":41,"x_max":889,"o":"m 882 265 q 836 80 878 140 q 686 -1 794 20 q 594 -106 621 -66 q 567 -179 567 -146 q 588 -218 567 -210 q 660 -214 609 -227 l 660 -278 q 571 -294 632 -294 q 470 -270 501 -294 q 439 -187 439 -245 q 476 -105 439 -145 q 604 -12 514 -66 q 465 -17 534 -17 q 316 -9 378 -17 q 205 19 254 -1 q 126 69 156 39 q 76 150 96 100 q 49 263 56 200 q 41 416 41 327 q 49 569 41 506 q 76 683 56 633 q 126 764 96 733 q 205 814 156 794 q 316 842 254 834 q 465 850 378 850 q 611 843 550 850 q 720 819 671 836 q 798 774 768 801 q 849 703 829 747 q 878 604 869 659 q 889 471 887 549 l 889 342 l 321 342 q 329 254 323 286 q 354 205 336 223 q 396 182 372 187 q 467 178 420 178 q 576 195 549 178 q 604 265 604 213 l 882 265 m 322 536 l 611 536 q 605 601 610 578 q 583 636 600 623 q 541 653 566 650 q 467 656 516 656 q 401 652 425 656 q 360 636 378 648 q 334 600 342 623 q 322 536 326 576 z "},"Ě":{"ha":1017,"x_min":69,"x_max":961,"o":"m 69 1083 l 958 1083 l 958 833 l 361 833 l 361 667 l 903 667 l 903 431 l 361 431 l 361 250 l 961 250 l 961 0 l 69 0 l 69 1083 m 249 1361 l 403 1361 l 524 1282 l 532 1282 l 650 1361 l 804 1361 l 614 1166 l 439 1166 l 249 1361 z "},"ě":{"ha":930,"x_min":41,"x_max":889,"o":"m 882 265 q 872 166 880 207 q 844 92 863 125 q 794 40 824 60 q 718 6 765 20 q 610 -12 670 -7 q 465 -17 549 -17 q 316 -9 378 -17 q 205 19 254 -1 q 126 69 156 39 q 76 150 96 100 q 49 263 56 200 q 41 416 41 327 q 49 569 41 506 q 76 683 56 633 q 126 764 96 733 q 205 814 156 794 q 316 842 254 834 q 465 850 378 850 q 611 843 550 850 q 720 819 671 836 q 798 774 768 801 q 849 703 829 747 q 878 604 869 659 q 889 471 887 549 l 889 342 l 321 342 q 329 254 323 286 q 354 205 336 223 q 396 182 372 187 q 467 178 420 178 q 576 195 549 178 q 604 265 604 213 l 882 265 m 187 1111 l 342 1111 l 463 1032 l 471 1032 l 589 1111 l 743 1111 l 553 917 l 378 917 l 187 1111 m 322 536 l 611 536 q 605 601 610 578 q 583 636 600 623 q 541 653 566 650 q 467 656 516 656 q 401 652 425 656 q 360 636 378 648 q 334 600 342 623 q 322 536 326 576 z "},"Ģ":{"ha":1189,"x_min":41,"x_max":1134,"o":"m 614 581 l 1133 581 l 1133 0 l 869 0 l 869 174 q 775 29 844 75 q 589 -17 707 -17 q 396 -7 476 -17 q 253 29 316 3 q 151 95 189 55 q 86 199 112 134 q 51 345 61 263 q 41 542 41 427 q 51 739 41 657 q 86 885 61 821 q 151 989 112 949 q 253 1054 189 1028 q 396 1090 316 1080 q 589 1100 476 1100 q 782 1093 702 1100 q 925 1067 862 1086 q 1027 1020 988 1048 q 1090 944 1065 991 q 1125 839 1116 898 q 1133 697 1134 781 l 828 697 q 828 748 829 728 q 822 786 827 768 q 811 816 818 805 q 791 837 805 827 q 761 851 777 846 q 718 859 745 855 q 662 863 691 862 q 589 864 633 864 q 515 862 545 864 q 459 854 486 861 q 416 839 432 848 q 386 811 400 830 q 366 772 372 793 q 355 714 359 751 q 349 640 350 678 q 347 542 347 601 q 349 444 347 483 q 355 369 350 406 q 366 312 359 333 q 386 272 372 291 q 416 245 400 254 q 459 230 432 236 q 515 221 486 223 q 589 220 545 220 q 773 253 714 220 q 836 358 832 286 l 614 358 l 614 581 m 463 -191 l 463 -57 l 726 -57 l 726 -115 q 681 -260 726 -224 q 503 -296 635 -296 l 464 -296 l 464 -232 q 562 -223 534 -232 q 596 -191 590 -215 l 463 -191 z "},"ģ":{"ha":964,"x_min":41,"x_max":895,"o":"m 467 -294 q 296 -287 364 -294 q 179 -261 229 -279 q 103 -209 130 -243 q 65 -130 77 -176 q 53 -14 53 -83 l 330 -14 q 334 -55 330 -41 q 353 -78 338 -69 q 393 -90 369 -87 q 467 -92 418 -92 q 555 -90 526 -92 q 603 -78 585 -87 q 626 -55 622 -69 q 631 -14 631 -41 l 631 197 q 544 72 611 111 q 353 32 476 32 q 243 39 288 32 q 161 66 197 47 q 103 114 125 85 q 67 190 81 142 q 47 297 52 237 q 41 441 41 357 q 47 585 41 526 q 68 692 53 645 q 106 768 83 739 q 167 816 130 798 q 252 842 205 835 q 367 850 300 850 q 554 808 489 850 q 637 676 620 766 l 637 833 l 895 833 l 895 -53 q 887 -138 895 -102 q 859 -201 879 -174 q 809 -246 840 -229 q 729 -274 779 -263 q 617 -290 680 -286 q 467 -294 555 -294 m 319 441 q 321 368 319 395 q 329 318 322 341 q 345 284 336 295 q 374 266 354 273 q 416 256 393 258 q 478 254 439 254 q 591 277 552 254 q 631 345 631 300 l 631 468 q 591 590 631 552 q 464 628 551 628 q 408 626 429 628 q 369 617 387 625 q 342 598 351 609 q 328 564 334 587 q 321 514 322 541 q 319 441 319 487 m 357 889 l 357 947 q 402 1092 357 1056 q 581 1128 448 1128 l 619 1128 l 619 1064 q 522 1055 549 1064 q 488 1022 494 1046 l 621 1022 l 621 889 l 357 889 z "},"Ī":{"ha":430,"x_min":-7,"x_max":437,"o":"m 69 0 l 69 1083 l 361 1083 l 361 0 l 69 0 m -7 1208 l -7 1333 l 437 1333 l 437 1208 l -7 1208 z "},"ī":{"ha":402,"x_min":-21,"x_max":424,"o":"m 69 833 l 334 833 l 334 0 l 69 0 l 69 833 m -21 930 l -21 1055 l 424 1055 l 424 930 l -21 930 z "},"Į":{"ha":430,"x_min":69,"x_max":361,"o":"m 69 0 l 69 1083 l 361 1083 l 361 0 q 268 -105 295 -65 q 240 -179 240 -146 q 261 -218 240 -210 q 334 -214 283 -227 l 334 -278 q 244 -294 306 -294 q 144 -270 175 -294 q 113 -187 113 -245 q 154 -102 113 -144 q 297 0 195 -60 l 69 0 z "},"į":{"ha":402,"x_min":62,"x_max":340,"o":"m 69 833 l 334 833 l 334 0 l 340 0 q 247 -105 275 -65 q 220 -179 220 -146 q 241 -218 220 -210 q 313 -214 262 -227 l 313 -278 q 224 -294 285 -294 q 123 -270 154 -294 q 92 -187 92 -245 q 133 -102 92 -144 q 277 0 175 -60 l 69 0 l 69 833 m 62 917 l 62 1111 l 340 1111 l 340 917 l 62 917 z "},"ı":{"ha":402,"x_min":69,"x_max":334,"o":"m 69 833 l 334 833 l 334 0 l 69 0 l 69 833 z "},"ĳ":{"ha":847,"x_min":69,"x_max":778,"o":"m 77 833 l 340 833 l 340 0 l 77 0 l 77 833 m 69 917 l 69 1111 l 347 1111 l 347 917 l 69 917 m 411 -278 l 411 -41 q 489 -26 471 -41 q 507 43 507 -10 l 507 833 l 771 833 l 771 3 q 765 -97 771 -56 q 744 -170 759 -138 q 705 -222 728 -202 q 643 -255 681 -242 q 556 -273 604 -268 q 439 -278 507 -278 l 411 -278 m 500 917 l 500 1111 l 778 1111 l 778 917 l 500 917 z "},"Ķ":{"ha":1093,"x_min":69,"x_max":1086,"o":"m 69 0 l 69 1083 l 361 1083 l 361 555 l 721 1083 l 1059 1083 l 730 606 l 1086 0 l 764 0 l 528 414 l 361 228 l 361 0 l 69 0 m 440 -189 l 440 -56 l 704 -56 l 704 -114 q 659 -258 704 -222 q 481 -294 613 -294 l 441 -294 l 441 -231 q 539 -222 511 -231 q 574 -189 568 -214 l 440 -189 z "},"ķ":{"ha":918,"x_min":69,"x_max":911,"o":"m 69 0 l 69 1111 l 334 1111 l 334 518 l 589 833 l 911 833 l 606 457 l 901 0 l 603 0 l 415 300 l 334 229 l 334 0 l 69 0 m 343 -189 l 343 -56 l 607 -56 l 607 -114 q 561 -258 607 -222 q 383 -294 515 -294 l 345 -294 l 345 -231 q 442 -222 414 -231 q 476 -189 470 -214 l 343 -189 z "},"Ĺ":{"ha":895,"x_min":69,"x_max":889,"o":"m 69 1083 l 361 1083 l 361 250 l 889 250 l 889 0 l 69 0 l 69 1083 m 383 1166 l 481 1362 l 758 1362 l 550 1166 l 383 1166 z "},"ĺ":{"ha":484,"x_min":68,"x_max":481,"o":"m 443 236 l 443 0 l 292 0 q 181 10 222 0 q 113 46 139 20 q 78 115 87 73 q 69 228 68 157 l 69 1111 l 334 1111 l 334 307 q 351 248 334 259 q 443 236 369 236 m 106 1194 l 203 1390 l 481 1390 l 272 1194 l 106 1194 z "},"Ļ":{"ha":895,"x_min":69,"x_max":889,"o":"m 69 1083 l 361 1083 l 361 250 l 889 250 l 889 0 l 69 0 l 69 1083 m 354 -189 l 354 -56 l 618 -56 l 618 -114 q 572 -258 618 -222 q 395 -294 527 -294 l 355 -294 l 355 -231 q 453 -222 425 -231 q 488 -189 481 -214 l 354 -189 z "},"ļ":{"ha":484,"x_min":68,"x_max":443,"o":"m 443 236 l 443 0 l 292 0 q 181 10 222 0 q 113 46 139 20 q 78 115 87 73 q 69 228 68 157 l 69 1111 l 334 1111 l 334 307 q 351 248 334 259 q 443 236 369 236 m 165 -189 l 165 -56 l 429 -56 l 429 -114 q 384 -258 429 -222 q 205 -294 338 -294 l 167 -294 l 167 -231 q 264 -222 237 -231 q 298 -189 292 -214 l 165 -189 z "},"Ľ":{"ha":895,"x_min":69,"x_max":936,"o":"m 69 1083 l 361 1083 l 361 250 l 889 250 l 889 0 l 69 0 l 69 1083 m 700 721 l 700 1111 l 936 1111 l 825 721 l 700 721 z "},"ľ":{"ha":777,"x_min":68,"x_max":694,"o":"m 443 236 l 443 0 l 292 0 q 181 10 222 0 q 113 46 139 20 q 78 115 87 73 q 69 228 68 157 l 69 1111 l 334 1111 l 334 307 q 351 248 334 259 q 443 236 369 236 m 458 721 l 458 1111 l 694 1111 l 583 721 l 458 721 z "},"Ł":{"ha":1040,"x_min":83,"x_max":986,"o":"m 167 1083 l 458 1083 l 458 657 l 578 685 l 578 546 l 458 518 l 458 250 l 986 250 l 986 0 l 167 0 l 167 449 l 83 429 l 83 568 l 167 587 l 167 1083 z "},"ł":{"ha":484,"x_min":-26,"x_max":443,"o":"m 443 236 l 443 0 l 292 0 q 181 10 222 0 q 113 46 139 20 q 78 115 87 73 q 69 228 68 157 l 69 443 l -26 418 l -26 543 l 69 568 l 69 1111 l 334 1111 l 334 637 l 418 660 l 418 534 l 334 513 l 334 307 q 351 248 334 259 q 443 236 369 236 z "},"Ń":{"ha":1194,"x_min":69,"x_max":1125,"o":"m 69 0 l 69 1083 l 346 1083 l 825 492 l 833 492 l 833 1083 l 1125 1083 l 1125 0 l 850 0 l 370 590 l 361 590 l 361 0 l 69 0 m 485 1166 l 582 1362 l 860 1362 l 652 1166 l 485 1166 z "},"ń":{"ha":915,"x_min":69,"x_max":860,"o":"m 69 833 l 334 833 l 334 703 q 414 814 353 779 q 585 850 475 850 q 682 844 642 850 q 753 824 722 839 q 804 788 785 810 q 836 730 823 766 q 854 649 849 694 q 859 539 859 604 l 860 0 l 596 0 l 596 472 q 595 532 596 510 q 589 574 594 555 q 578 603 585 594 q 556 618 571 612 q 525 627 542 625 q 479 628 508 628 q 369 591 404 628 q 335 472 335 553 l 334 0 l 69 0 l 69 833 m 351 917 l 449 1112 l 726 1112 l 518 917 l 351 917 z "},"Ņ":{"ha":1194,"x_min":69,"x_max":1125,"o":"m 69 0 l 69 1083 l 346 1083 l 825 492 l 833 492 l 833 1083 l 1125 1083 l 1125 0 l 850 0 l 370 590 l 361 590 l 361 0 l 69 0 m 456 -189 l 456 -56 l 720 -56 l 720 -114 q 674 -258 720 -222 q 496 -294 628 -294 l 457 -294 l 457 -231 q 555 -222 527 -231 q 589 -189 583 -214 l 456 -189 z "},"ņ":{"ha":915,"x_min":69,"x_max":860,"o":"m 69 833 l 334 833 l 334 703 q 414 814 353 779 q 585 850 475 850 q 682 844 642 850 q 753 824 722 839 q 804 788 785 810 q 836 730 823 766 q 854 649 849 694 q 859 539 859 604 l 860 0 l 596 0 l 596 472 q 595 532 596 510 q 589 574 594 555 q 578 603 585 594 q 556 618 571 612 q 525 627 542 625 q 479 628 508 628 q 369 591 404 628 q 335 472 335 553 l 334 0 l 69 0 l 69 833 m 322 -189 l 322 -56 l 586 -56 l 586 -114 q 541 -258 586 -222 q 363 -294 495 -294 l 323 -294 l 323 -231 q 421 -222 393 -231 q 456 -189 450 -214 l 322 -189 z "},"Ň":{"ha":1194,"x_min":69,"x_max":1125,"o":"m 69 0 l 69 1083 l 346 1083 l 825 492 l 833 492 l 833 1083 l 1125 1083 l 1125 0 l 850 0 l 370 590 l 361 590 l 361 0 l 69 0 m 302 1361 l 457 1361 l 578 1282 l 586 1282 l 704 1361 l 859 1361 l 668 1166 l 493 1166 l 302 1361 z "},"ň":{"ha":915,"x_min":69,"x_max":860,"o":"m 69 833 l 334 833 l 334 703 q 414 814 353 779 q 585 850 475 850 q 682 844 642 850 q 753 824 722 839 q 804 788 785 810 q 836 730 823 766 q 854 649 849 694 q 859 539 859 604 l 860 0 l 596 0 l 596 472 q 595 532 596 510 q 589 574 594 555 q 578 603 585 594 q 556 618 571 612 q 525 627 542 625 q 479 628 508 628 q 369 591 404 628 q 335 472 335 553 l 334 0 l 69 0 l 69 833 m 170 1111 l 323 1111 l 444 1032 l 453 1032 l 571 1111 l 725 1111 l 534 917 l 359 917 l 170 1111 z "},"Ō":{"ha":1208,"x_min":41,"x_max":1166,"o":"m 682 862 q 667 863 682 862 q 604 864 651 864 q 526 862 557 864 q 466 854 495 861 q 421 839 437 848 q 389 811 404 830 q 367 772 374 793 q 355 714 360 751 q 349 640 350 678 q 347 542 347 601 q 349 444 347 483 q 355 369 350 406 q 367 312 360 333 q 389 272 374 291 q 421 245 404 254 q 466 230 437 236 q 526 221 495 223 q 604 220 557 220 q 682 221 651 220 q 742 230 713 223 q 788 245 771 236 q 819 272 804 254 q 841 312 834 291 q 853 369 848 333 q 860 444 859 406 q 861 542 861 483 q 860 640 861 601 q 853 714 859 678 q 841 772 848 751 q 819 811 834 793 q 788 839 804 830 q 742 854 771 848 q 682 862 713 861 m 52 345 q 46 386 52 345 q 41 542 41 427 q 52 739 41 657 q 88 885 62 821 q 154 989 114 949 q 258 1054 193 1028 q 406 1090 323 1080 q 604 1100 488 1100 q 803 1090 720 1100 q 950 1054 885 1080 q 1055 989 1015 1028 q 1120 885 1095 949 q 1156 739 1146 821 q 1166 542 1166 657 q 1156 345 1166 427 q 1120 199 1146 263 q 1055 95 1095 134 q 950 29 1015 55 q 803 -7 885 3 q 604 -17 720 -17 q 406 -7 488 -17 q 258 29 323 3 q 154 95 193 55 q 88 199 114 134 q 52 345 62 263 m 382 1181 l 382 1305 l 827 1305 l 827 1181 l 382 1181 z "},"ō":{"ha":956,"x_min":41,"x_max":914,"o":"m 540 640 q 528 641 540 640 q 478 642 517 642 q 416 640 439 642 q 374 628 393 637 q 345 606 354 618 q 329 565 336 593 q 321 504 322 536 q 319 416 319 471 q 321 329 319 361 q 329 269 322 296 q 345 228 336 241 q 374 205 354 215 q 416 194 393 196 q 478 192 439 192 q 540 194 517 192 q 583 205 563 196 q 611 228 602 215 q 627 269 620 241 q 635 329 633 296 q 636 416 636 361 q 635 504 636 471 q 627 565 633 536 q 611 606 620 593 q 583 628 602 618 q 540 640 563 637 m 49 263 q 45 295 49 263 q 41 416 41 327 q 49 569 41 506 q 77 683 57 633 q 129 764 98 733 q 210 814 160 794 q 324 842 260 834 q 478 850 388 850 q 632 842 568 850 q 746 814 695 834 q 827 764 796 794 q 878 683 858 733 q 906 569 899 633 q 914 416 914 506 q 906 263 914 327 q 878 150 899 200 q 827 69 858 100 q 746 19 796 39 q 632 -9 695 -1 q 478 -17 568 -17 q 324 -9 388 -17 q 210 19 260 -1 q 129 69 160 39 q 77 150 98 100 q 49 263 57 200 m 256 930 l 256 1055 l 700 1055 l 700 930 l 256 930 z "},"Ő":{"ha":1208,"x_min":41,"x_max":1166,"o":"m 682 862 q 667 863 682 862 q 604 864 651 864 q 526 862 557 864 q 466 854 495 861 q 421 839 437 848 q 389 811 404 830 q 367 772 374 793 q 355 714 360 751 q 349 640 350 678 q 347 542 347 601 q 349 444 347 483 q 355 369 350 406 q 367 312 360 333 q 389 272 374 291 q 421 245 404 254 q 466 230 437 236 q 526 221 495 223 q 604 220 557 220 q 682 221 651 220 q 742 230 713 223 q 788 245 771 236 q 819 272 804 254 q 841 312 834 291 q 853 369 848 333 q 860 444 859 406 q 861 542 861 483 q 860 640 861 601 q 853 714 859 678 q 841 772 848 751 q 819 811 834 793 q 788 839 804 830 q 742 854 771 848 q 682 862 713 861 m 52 345 q 46 386 52 345 q 41 542 41 427 q 52 739 41 657 q 88 885 62 821 q 154 989 114 949 q 258 1054 193 1028 q 406 1090 323 1080 q 604 1100 488 1100 q 803 1090 720 1100 q 950 1054 885 1080 q 1055 989 1015 1028 q 1120 885 1095 949 q 1156 739 1146 821 q 1166 542 1166 657 q 1156 345 1166 427 q 1120 199 1146 263 q 1055 95 1095 134 q 950 29 1015 55 q 803 -7 885 3 q 604 -17 720 -17 q 406 -7 488 -17 q 258 29 323 3 q 154 95 193 55 q 88 199 114 134 q 52 345 62 263 m 406 1166 l 503 1362 l 711 1362 l 558 1166 l 406 1166 m 669 1166 l 766 1362 l 975 1362 l 822 1166 l 669 1166 z "},"ő":{"ha":956,"x_min":41,"x_max":914,"o":"m 540 640 q 528 641 540 640 q 478 642 517 642 q 416 640 439 642 q 374 628 393 637 q 345 606 354 618 q 329 565 336 593 q 321 504 322 536 q 319 416 319 471 q 321 329 319 361 q 329 269 322 296 q 345 228 336 241 q 374 205 354 215 q 416 194 393 196 q 478 192 439 192 q 540 194 517 192 q 583 205 563 196 q 611 228 602 215 q 627 269 620 241 q 635 329 633 296 q 636 416 636 361 q 635 504 636 471 q 627 565 633 536 q 611 606 620 593 q 583 628 602 618 q 540 640 563 637 m 49 263 q 45 295 49 263 q 41 416 41 327 q 49 569 41 506 q 77 683 57 633 q 129 764 98 733 q 210 814 160 794 q 324 842 260 834 q 478 850 388 850 q 632 842 568 850 q 746 814 695 834 q 827 764 796 794 q 878 683 858 733 q 906 569 899 633 q 914 416 914 506 q 906 263 914 327 q 878 150 899 200 q 827 69 858 100 q 746 19 796 39 q 632 -9 695 -1 q 478 -17 568 -17 q 324 -9 388 -17 q 210 19 260 -1 q 129 69 160 39 q 77 150 98 100 q 49 263 57 200 m 279 917 l 376 1112 l 585 1112 l 432 917 l 279 917 m 543 917 l 640 1112 l 848 1112 l 696 917 l 543 917 z "},"Œ":{"ha":1836,"x_min":41,"x_max":1781,"o":"m 697 859 q 679 862 697 859 q 604 864 660 864 q 511 859 549 864 q 444 841 474 854 q 396 805 413 827 q 367 746 378 784 q 351 660 355 708 q 347 542 347 612 q 351 424 347 471 q 367 338 355 376 q 396 278 378 300 q 444 243 413 257 q 511 224 474 229 q 604 220 549 220 q 697 224 660 220 q 765 243 734 229 q 813 278 795 257 q 842 338 830 300 q 857 424 853 376 q 861 542 861 471 q 857 660 861 612 q 842 746 853 708 q 813 805 830 784 q 765 841 795 827 q 697 859 734 854 m 46 382 q 44 416 46 382 q 41 542 41 450 q 46 701 41 633 q 64 827 51 769 q 96 925 77 886 q 147 997 115 965 q 220 1048 180 1029 q 319 1079 260 1066 q 445 1096 378 1091 q 604 1100 513 1100 q 930 962 831 1100 l 930 1083 l 1777 1083 l 1777 833 l 1181 833 l 1181 667 l 1723 667 l 1723 431 l 1181 431 l 1181 250 l 1781 250 l 1781 0 l 930 0 l 930 121 q 604 -17 831 -17 q 445 -13 513 -17 q 319 4 378 -8 q 220 36 260 17 q 147 86 180 54 q 96 158 115 118 q 64 256 77 197 q 46 382 51 315 z "},"œ":{"ha":1510,"x_min":41,"x_max":1468,"o":"m 478 628 q 411 623 437 628 q 366 605 385 617 q 337 567 347 592 q 323 507 328 541 q 319 416 319 472 q 323 326 319 361 q 337 266 328 292 q 366 229 347 241 q 411 211 385 216 q 478 205 437 205 q 548 209 520 205 q 597 221 575 212 q 631 244 619 231 q 651 283 644 258 q 662 339 659 309 q 664 416 664 370 q 662 494 664 463 q 651 549 659 524 q 631 588 644 574 q 597 612 619 602 q 548 625 575 622 q 478 628 520 628 m 49 263 q 45 295 49 263 q 41 416 41 327 q 49 569 41 506 q 77 683 57 633 q 129 764 98 733 q 210 814 160 794 q 324 842 260 834 q 478 850 388 850 q 671 821 600 850 q 777 729 743 791 q 869 821 804 791 q 1044 850 934 850 q 1194 843 1132 850 q 1305 818 1256 836 q 1384 771 1354 800 q 1434 698 1414 743 q 1461 595 1453 653 q 1468 457 1468 538 l 1468 328 l 900 328 q 910 248 903 276 q 935 203 917 219 q 977 182 953 186 q 1046 178 1001 178 q 1155 196 1126 178 q 1183 265 1183 214 l 1461 265 q 1449 149 1461 195 q 1411 69 1437 102 q 1335 17 1384 35 q 1216 -9 1285 -1 q 1044 -17 1147 -17 q 855 13 926 -17 q 750 106 783 43 q 655 13 721 43 q 478 -17 589 -17 q 324 -9 388 -17 q 210 19 260 -1 q 129 69 160 39 q 77 150 98 100 q 49 263 57 200 m 901 522 l 1190 522 q 1188 574 1190 555 q 1180 610 1186 594 q 1165 634 1173 627 q 1139 648 1156 642 q 1100 654 1121 653 q 1046 656 1080 656 q 979 652 1003 656 q 938 633 956 648 q 912 593 920 618 q 901 522 905 567 z "},"Ŕ":{"ha":1105,"x_min":69,"x_max":1050,"o":"m 689 1083 q 816 1078 764 1083 q 910 1058 869 1072 q 978 1021 952 1043 q 1020 963 1004 999 q 1043 881 1037 926 q 1050 770 1050 835 q 998 568 1050 636 q 832 485 946 500 q 996 421 943 473 q 1050 267 1050 369 l 1050 0 l 745 0 l 745 250 q 743 302 745 283 q 735 337 742 321 q 718 361 728 353 q 688 374 709 368 q 643 380 667 379 q 578 382 619 382 l 361 382 l 361 0 l 69 0 l 69 1083 l 689 1083 m 361 604 l 614 604 q 670 605 649 604 q 709 612 691 606 q 735 624 727 617 q 749 647 743 631 q 757 680 755 662 q 758 728 758 697 q 757 774 758 757 q 750 806 755 791 q 735 828 744 821 q 709 840 727 835 q 670 846 691 845 q 614 847 649 847 l 361 847 l 361 604 m 444 1166 l 542 1362 l 819 1362 l 611 1166 l 444 1166 z "},"ŕ":{"ha":694,"x_min":69,"x_max":692,"o":"m 69 833 l 334 833 l 334 679 q 409 796 351 759 q 571 833 467 833 l 667 833 l 667 599 l 479 599 q 368 568 402 599 q 334 468 334 537 l 334 0 l 69 0 l 69 833 m 317 917 l 414 1112 l 692 1112 l 484 917 l 317 917 z "},"Ŗ":{"ha":1105,"x_min":69,"x_max":1050,"o":"m 689 1083 q 816 1078 764 1083 q 910 1058 869 1072 q 978 1021 952 1043 q 1020 963 1004 999 q 1043 881 1037 926 q 1050 770 1050 835 q 998 568 1050 636 q 832 485 946 500 q 996 421 943 473 q 1050 267 1050 369 l 1050 0 l 745 0 l 745 250 q 743 302 745 283 q 735 337 742 321 q 718 361 728 353 q 688 374 709 368 q 643 380 667 379 q 578 382 619 382 l 361 382 l 361 0 l 69 0 l 69 1083 l 689 1083 m 361 604 l 614 604 q 670 605 649 604 q 709 612 691 606 q 735 624 727 617 q 749 647 743 631 q 757 680 755 662 q 758 728 758 697 q 757 774 758 757 q 750 806 755 791 q 735 828 744 821 q 709 840 727 835 q 670 846 691 845 q 614 847 649 847 l 361 847 l 361 604 m 415 -189 l 415 -56 l 679 -56 l 679 -114 q 633 -258 679 -222 q 456 -294 588 -294 l 416 -294 l 416 -231 q 514 -222 486 -231 q 549 -189 543 -214 l 415 -189 z "},"ŗ":{"ha":694,"x_min":69,"x_max":667,"o":"m 69 833 l 334 833 l 334 679 q 409 796 351 759 q 571 833 467 833 l 667 833 l 667 599 l 479 599 q 368 568 402 599 q 334 468 334 537 l 334 0 l 69 0 l 69 833 m 329 -189 l 329 -56 l 593 -56 l 593 -114 q 547 -258 593 -222 q 370 -294 502 -294 l 330 -294 l 330 -231 q 428 -222 400 -231 q 463 -189 456 -214 l 329 -189 z "},"Ř":{"ha":1105,"x_min":69,"x_max":1050,"o":"m 689 1083 q 816 1078 764 1083 q 910 1058 869 1072 q 978 1021 952 1043 q 1020 963 1004 999 q 1043 881 1037 926 q 1050 770 1050 835 q 998 568 1050 636 q 832 485 946 500 q 996 421 943 473 q 1050 267 1050 369 l 1050 0 l 745 0 l 745 250 q 743 302 745 283 q 735 337 742 321 q 718 361 728 353 q 688 374 709 368 q 643 380 667 379 q 578 382 619 382 l 361 382 l 361 0 l 69 0 l 69 1083 l 689 1083 m 262 1361 l 416 1361 l 538 1282 l 546 1282 l 664 1361 l 818 1361 l 628 1166 l 453 1166 l 262 1361 m 361 604 l 614 604 q 670 605 649 604 q 709 612 691 606 q 735 624 727 617 q 749 647 743 631 q 757 680 755 662 q 758 728 758 697 q 757 774 758 757 q 750 806 755 791 q 735 828 744 821 q 709 840 727 835 q 670 846 691 845 q 614 847 649 847 l 361 847 l 361 604 z "},"ř":{"ha":694,"x_min":69,"x_max":690,"o":"m 69 833 l 334 833 l 334 679 q 409 796 351 759 q 571 833 467 833 l 667 833 l 667 599 l 479 599 q 368 568 402 599 q 334 468 334 537 l 334 0 l 69 0 l 69 833 m 135 1111 l 289 1111 l 410 1032 l 418 1032 l 536 1111 l 690 1111 l 500 917 l 325 917 l 135 1111 z "},"Ś":{"ha":1114,"x_min":41,"x_max":1072,"o":"m 555 220 q 637 220 607 220 q 694 225 667 221 q 732 234 720 229 q 753 250 745 239 q 764 273 762 260 q 766 307 766 286 q 714 380 766 354 q 509 436 662 406 q 326 479 399 458 q 200 528 254 501 q 119 590 147 554 q 78 669 90 625 q 65 775 65 713 q 74 890 65 842 q 107 975 83 937 q 165 1035 130 1012 q 258 1073 201 1058 q 389 1094 316 1088 q 564 1100 461 1100 q 740 1093 667 1100 q 870 1067 812 1086 q 964 1021 928 1049 q 1024 947 1000 993 q 1056 843 1047 901 q 1065 704 1065 785 l 760 704 q 759 752 760 733 q 753 790 758 772 q 744 818 749 808 q 727 838 739 829 q 703 851 715 847 q 668 859 690 856 q 622 863 646 863 q 564 864 599 864 q 477 862 508 864 q 422 856 446 860 q 389 840 398 851 q 375 814 379 829 q 371 772 371 799 q 409 709 371 730 q 558 664 446 687 q 768 615 684 640 q 913 562 852 591 q 1008 494 975 532 q 1057 407 1042 455 q 1072 292 1072 359 q 1063 183 1072 228 q 1030 102 1054 138 q 970 44 1006 66 q 875 8 934 22 q 742 -12 816 -6 q 564 -17 668 -17 q 380 -10 456 -17 q 244 14 304 -3 q 146 59 184 32 q 85 130 109 86 q 51 230 60 174 q 41 364 41 286 l 347 364 q 348 320 347 338 q 354 287 349 302 q 364 261 358 271 q 382 243 370 251 q 408 231 394 235 q 445 224 421 227 q 493 220 468 221 q 555 220 517 220 m 467 1166 l 564 1362 l 842 1362 l 633 1166 l 467 1166 z "},"ś":{"ha":932,"x_min":41,"x_max":890,"o":"m 306 261 q 309 223 306 237 q 319 200 312 210 q 347 185 327 189 q 391 179 366 181 q 463 178 416 178 q 563 182 534 178 q 602 199 592 186 q 612 241 612 211 q 573 291 612 273 q 415 330 533 309 q 269 365 327 347 q 169 402 211 382 q 104 451 126 423 q 71 514 81 479 q 61 599 61 549 q 73 703 61 661 q 110 774 84 744 q 185 820 136 804 q 301 843 234 836 q 469 850 368 850 q 610 845 551 850 q 715 827 669 840 q 789 794 761 814 q 837 741 818 774 q 862 668 855 709 q 869 568 869 627 l 869 543 l 606 543 l 606 568 q 604 603 606 590 q 597 626 603 615 q 584 642 591 637 q 559 651 576 647 q 522 655 542 654 q 469 656 503 656 q 398 654 422 656 q 360 645 375 652 q 342 625 346 637 q 339 590 339 614 q 362 548 339 561 q 454 525 385 535 q 608 495 544 510 q 722 462 672 481 q 803 421 772 443 q 854 370 834 400 q 883 305 875 340 q 890 222 890 270 q 879 123 890 163 q 840 56 867 84 q 762 12 812 27 q 643 -10 712 -3 q 469 -17 574 -17 q 319 -12 381 -17 q 207 6 256 -7 q 127 39 157 19 q 77 91 96 58 q 49 163 57 123 q 41 261 41 203 l 41 279 l 306 279 l 306 261 m 372 917 l 469 1112 l 747 1112 l 539 917 l 372 917 z "},"Ş":{"ha":1114,"x_min":41,"x_max":1072,"o":"m 555 220 q 637 220 607 220 q 694 225 667 221 q 732 234 720 229 q 753 250 745 239 q 764 273 762 260 q 766 307 766 286 q 714 380 766 354 q 509 436 662 406 q 326 479 399 458 q 200 528 254 501 q 119 590 147 554 q 78 669 90 625 q 65 775 65 713 q 74 890 65 842 q 107 975 83 937 q 165 1035 130 1012 q 258 1073 201 1058 q 389 1094 316 1088 q 564 1100 461 1100 q 740 1093 667 1100 q 870 1067 812 1086 q 964 1021 928 1049 q 1024 947 1000 993 q 1056 843 1047 901 q 1065 704 1065 785 l 760 704 q 759 752 760 733 q 753 790 758 772 q 744 818 749 808 q 727 838 739 829 q 703 851 715 847 q 668 859 690 856 q 622 863 646 863 q 564 864 599 864 q 477 862 508 864 q 422 856 446 860 q 389 840 398 851 q 375 814 379 829 q 371 772 371 799 q 409 709 371 730 q 558 664 446 687 q 768 615 684 640 q 913 562 852 591 q 1008 494 975 532 q 1057 407 1042 455 q 1072 292 1072 359 q 1063 185 1072 230 q 1033 106 1055 141 q 976 48 1010 71 q 887 11 941 26 q 762 -10 832 -4 q 595 -17 692 -16 l 572 -54 q 678 -92 644 -63 q 711 -172 711 -121 q 659 -266 711 -237 q 488 -294 606 -294 l 449 -294 l 449 -231 q 510 -230 488 -231 q 548 -225 531 -229 q 571 -215 565 -222 q 581 -199 578 -208 q 583 -172 583 -189 q 581 -146 583 -155 q 571 -129 578 -136 q 548 -119 565 -122 q 510 -115 531 -116 q 449 -114 488 -114 l 449 -50 l 524 -17 q 355 -7 425 -16 q 229 19 284 1 q 139 65 174 37 q 82 136 104 92 q 50 234 59 180 q 41 364 41 288 l 347 364 q 348 320 347 338 q 354 287 349 302 q 364 261 358 271 q 382 243 370 251 q 408 231 394 235 q 445 224 421 227 q 493 220 468 221 q 555 220 517 220 z "},"ş":{"ha":932,"x_min":41,"x_max":890,"o":"m 306 261 q 309 223 306 237 q 319 200 312 210 q 347 185 327 189 q 391 179 366 181 q 463 178 416 178 q 563 182 534 178 q 602 199 592 186 q 612 241 612 211 q 573 291 612 273 q 415 330 533 309 q 269 365 327 347 q 169 402 211 382 q 104 451 126 423 q 71 514 81 479 q 61 599 61 549 q 73 703 61 661 q 110 774 84 744 q 185 820 136 804 q 301 843 234 836 q 469 850 368 850 q 610 845 551 850 q 715 827 669 840 q 789 794 761 814 q 837 741 818 774 q 862 668 855 709 q 869 568 869 627 l 869 543 l 606 543 l 606 568 q 604 603 606 590 q 597 626 603 615 q 584 642 591 637 q 559 651 576 647 q 522 655 542 654 q 469 656 503 656 q 398 654 422 656 q 360 645 375 652 q 342 625 346 637 q 339 590 339 614 q 362 548 339 561 q 454 525 385 535 q 608 495 544 510 q 722 462 672 481 q 803 421 772 443 q 854 370 834 400 q 883 305 875 340 q 890 222 890 270 q 879 126 890 165 q 843 59 868 87 q 771 15 818 31 q 661 -9 725 -1 q 500 -17 596 -16 l 478 -54 q 583 -92 550 -63 q 616 -172 616 -121 q 564 -266 616 -237 q 393 -294 511 -294 l 354 -294 l 354 -231 q 415 -230 393 -231 q 453 -225 436 -229 q 476 -215 470 -222 q 486 -199 483 -208 q 489 -172 489 -189 q 486 -146 489 -155 q 476 -129 483 -136 q 453 -119 470 -122 q 415 -115 436 -116 q 354 -114 393 -114 l 354 -50 l 429 -17 q 270 -7 334 -16 q 160 21 206 2 q 89 73 114 39 q 53 150 64 106 q 41 261 41 195 l 41 279 l 306 279 l 306 261 z "},"Š":{"ha":1114,"x_min":41,"x_max":1072,"o":"m 555 220 q 637 220 607 220 q 694 225 667 221 q 732 234 720 229 q 753 250 745 239 q 764 273 762 260 q 766 307 766 286 q 714 380 766 354 q 509 436 662 406 q 326 479 399 458 q 200 528 254 501 q 119 590 147 554 q 78 669 90 625 q 65 775 65 713 q 74 890 65 842 q 107 975 83 937 q 165 1035 130 1012 q 258 1073 201 1058 q 389 1094 316 1088 q 564 1100 461 1100 q 740 1093 667 1100 q 870 1067 812 1086 q 964 1021 928 1049 q 1024 947 1000 993 q 1056 843 1047 901 q 1065 704 1065 785 l 760 704 q 759 752 760 733 q 753 790 758 772 q 744 818 749 808 q 727 838 739 829 q 703 851 715 847 q 668 859 690 856 q 622 863 646 863 q 564 864 599 864 q 477 862 508 864 q 422 856 446 860 q 389 840 398 851 q 375 814 379 829 q 371 772 371 799 q 409 709 371 730 q 558 664 446 687 q 768 615 684 640 q 913 562 852 591 q 1008 494 975 532 q 1057 407 1042 455 q 1072 292 1072 359 q 1063 183 1072 228 q 1030 102 1054 138 q 970 44 1006 66 q 875 8 934 22 q 742 -12 816 -6 q 564 -17 668 -17 q 380 -10 456 -17 q 244 14 304 -3 q 146 59 184 32 q 85 130 109 86 q 51 230 60 174 q 41 364 41 286 l 347 364 q 348 320 347 338 q 354 287 349 302 q 364 261 358 271 q 382 243 370 251 q 408 231 394 235 q 445 224 421 227 q 493 220 468 221 q 555 220 517 220 m 285 1361 l 439 1361 l 559 1282 l 568 1282 l 686 1361 l 840 1361 l 650 1166 l 475 1166 l 285 1361 z "},"š":{"ha":932,"x_min":41,"x_max":890,"o":"m 306 261 q 309 223 306 237 q 319 200 312 210 q 347 185 327 189 q 391 179 366 181 q 463 178 416 178 q 563 182 534 178 q 602 199 592 186 q 612 241 612 211 q 573 291 612 273 q 415 330 533 309 q 269 365 327 347 q 169 402 211 382 q 104 451 126 423 q 71 514 81 479 q 61 599 61 549 q 73 703 61 661 q 110 774 84 744 q 185 820 136 804 q 301 843 234 836 q 469 850 368 850 q 610 845 551 850 q 715 827 669 840 q 789 794 761 814 q 837 741 818 774 q 862 668 855 709 q 869 568 869 627 l 869 543 l 606 543 l 606 568 q 604 603 606 590 q 597 626 603 615 q 584 642 591 637 q 559 651 576 647 q 522 655 542 654 q 469 656 503 656 q 398 654 422 656 q 360 645 375 652 q 342 625 346 637 q 339 590 339 614 q 362 548 339 561 q 454 525 385 535 q 608 495 544 510 q 722 462 672 481 q 803 421 772 443 q 854 370 834 400 q 883 305 875 340 q 890 222 890 270 q 879 123 890 163 q 840 56 867 84 q 762 12 812 27 q 643 -10 712 -3 q 469 -17 574 -17 q 319 -12 381 -17 q 207 6 256 -7 q 127 39 157 19 q 77 91 96 58 q 49 163 57 123 q 41 261 41 203 l 41 279 l 306 279 l 306 261 m 191 1111 l 345 1111 l 465 1032 l 473 1032 l 591 1111 l 746 1111 l 555 917 l 380 917 l 191 1111 z "},"Ţ":{"ha":972,"x_min":7,"x_max":965,"o":"m 339 0 l 339 833 l 7 833 l 7 1083 l 965 1083 l 965 833 l 631 833 l 631 0 l 525 0 l 493 -54 q 598 -92 565 -63 q 632 -172 632 -121 q 579 -266 632 -237 q 408 -294 526 -294 l 370 -294 l 370 -231 q 430 -230 409 -231 q 469 -225 452 -229 q 492 -215 486 -222 q 501 -199 498 -208 q 504 -172 504 -189 q 501 -146 504 -155 q 492 -129 498 -136 q 469 -119 486 -122 q 430 -115 452 -116 q 370 -114 409 -114 l 370 -50 l 482 0 l 339 0 z "},"ţ":{"ha":708,"x_min":56,"x_max":639,"o":"m 639 236 l 639 0 l 472 0 l 443 0 l 410 -54 q 515 -92 481 -63 q 549 -172 549 -121 q 496 -266 549 -237 q 325 -294 443 -294 l 286 -294 l 286 -231 q 347 -230 326 -231 q 385 -225 368 -229 q 409 -215 402 -222 q 418 -199 415 -208 q 421 -172 421 -189 q 418 -146 421 -155 q 409 -129 415 -136 q 385 -119 402 -122 q 347 -115 368 -116 q 286 -114 326 -114 l 286 -50 l 401 1 l 406 1 q 297 15 341 4 q 221 44 252 25 q 172 97 189 64 q 147 173 155 130 q 139 281 139 217 l 139 611 l 56 611 l 56 833 l 153 833 l 153 1011 l 403 1011 l 403 833 l 625 833 l 625 611 l 403 611 l 403 349 q 405 288 403 307 q 419 255 408 268 q 447 239 430 241 q 498 236 464 236 l 639 236 z "},"Ť":{"ha":972,"x_min":7,"x_max":965,"o":"m 339 0 l 339 833 l 7 833 l 7 1083 l 965 1083 l 965 833 l 631 833 l 631 0 l 339 0 m 205 1361 l 359 1361 l 481 1282 l 489 1282 l 607 1361 l 761 1361 l 571 1166 l 396 1166 l 205 1361 z "},"ť":{"ha":1021,"x_min":69,"x_max":965,"o":"m 653 236 l 653 0 l 486 0 q 349 8 404 0 q 254 34 294 16 q 193 85 214 52 q 162 165 172 119 q 153 281 153 211 l 153 611 l 69 611 l 69 833 l 167 833 l 167 1011 l 416 1011 l 416 833 l 639 833 l 639 611 l 416 611 l 416 349 q 419 288 416 308 q 433 255 421 268 q 461 239 444 241 q 513 236 478 236 l 653 236 m 729 721 l 729 1111 l 965 1111 l 854 721 l 729 721 z "},"Ū":{"ha":1072,"x_min":56,"x_max":1017,"o":"m 1017 444 q 1008 281 1017 349 q 977 161 1000 214 q 921 75 955 107 q 831 21 887 42 q 706 -9 776 -1 q 536 -17 635 -17 q 367 -9 437 -17 q 241 21 297 -1 q 152 75 186 42 q 95 160 117 107 q 64 281 73 214 q 56 444 56 349 l 56 1083 l 347 1083 l 347 444 q 349 357 347 389 q 359 296 351 324 q 378 256 367 269 q 412 233 389 243 q 463 222 436 224 q 536 220 490 220 q 610 222 583 220 q 660 233 637 224 q 694 256 684 243 q 713 296 705 269 q 723 357 722 324 q 725 444 725 389 l 725 1083 l 1017 1083 l 1017 444 m 314 1181 l 314 1305 l 758 1305 l 758 1181 l 314 1181 z "},"ū":{"ha":901,"x_min":56,"x_max":832,"o":"m 832 0 l 568 0 l 568 131 q 492 19 549 55 q 330 -17 434 -17 q 233 -12 273 -17 q 162 8 193 -6 q 111 45 130 23 q 79 103 92 67 q 62 184 66 139 q 57 294 57 230 l 56 833 l 319 833 l 319 357 q 322 275 319 302 q 340 231 326 248 q 376 209 354 213 q 443 205 398 205 q 537 240 508 205 q 567 351 567 275 l 568 833 l 832 833 l 832 0 m 222 930 l 222 1055 l 667 1055 l 667 930 l 222 930 z "},"Ů":{"ha":1072,"x_min":56,"x_max":1017,"o":"m 1017 444 q 1008 281 1017 349 q 977 161 1000 214 q 921 75 955 107 q 831 21 887 42 q 706 -9 776 -1 q 536 -17 635 -17 q 367 -9 437 -17 q 241 21 297 -1 q 152 75 186 42 q 95 160 117 107 q 64 281 73 214 q 56 444 56 349 l 56 1083 l 347 1083 l 347 444 q 349 357 347 389 q 359 296 351 324 q 378 256 367 269 q 412 233 389 243 q 463 222 436 224 q 536 220 490 220 q 610 222 583 220 q 660 233 637 224 q 694 256 684 243 q 713 296 705 269 q 723 357 722 324 q 725 444 725 389 l 725 1083 l 1017 1083 l 1017 444 m 376 1274 q 412 1356 376 1334 q 538 1378 448 1378 q 661 1356 626 1378 q 696 1274 696 1334 q 661 1190 696 1213 q 538 1166 625 1166 q 412 1190 448 1166 q 376 1274 376 1213 m 485 1318 q 479 1313 485 1318 q 473 1272 473 1308 q 485 1226 473 1236 q 536 1217 496 1217 q 588 1226 577 1217 q 599 1272 599 1236 q 588 1318 599 1308 q 536 1328 577 1328 q 485 1318 496 1328 z "},"ů":{"ha":901,"x_min":56,"x_max":832,"o":"m 832 0 l 568 0 l 568 131 q 492 19 549 55 q 330 -17 434 -17 q 233 -12 273 -17 q 162 8 193 -6 q 111 45 130 23 q 79 103 92 67 q 62 184 66 139 q 57 294 57 230 l 56 833 l 319 833 l 319 357 q 322 275 319 302 q 340 231 326 248 q 376 209 354 213 q 443 205 398 205 q 537 240 508 205 q 567 351 567 275 l 568 833 l 832 833 l 832 0 m 285 1023 q 320 1106 285 1084 q 446 1128 355 1128 q 569 1106 534 1128 q 604 1023 604 1084 q 569 940 604 963 q 446 917 534 917 q 320 940 356 917 q 285 1023 285 962 m 393 1068 q 387 1063 393 1068 q 382 1022 382 1058 q 393 976 382 986 q 444 966 404 966 q 496 976 485 966 q 507 1022 507 986 q 496 1068 507 1058 q 444 1078 485 1078 q 393 1068 404 1078 z "},"Ű":{"ha":1072,"x_min":56,"x_max":1017,"o":"m 1017 444 q 1008 281 1017 349 q 977 161 1000 214 q 921 75 955 107 q 831 21 887 42 q 706 -9 776 -1 q 536 -17 635 -17 q 367 -9 437 -17 q 241 21 297 -1 q 152 75 186 42 q 95 160 117 107 q 64 281 73 214 q 56 444 56 349 l 56 1083 l 347 1083 l 347 444 q 349 357 347 389 q 359 296 351 324 q 378 256 367 269 q 412 233 389 243 q 463 222 436 224 q 536 220 490 220 q 610 222 583 220 q 660 233 637 224 q 694 256 684 243 q 713 296 705 269 q 723 357 722 324 q 725 444 725 389 l 725 1083 l 1017 1083 l 1017 444 m 338 1166 l 435 1362 l 643 1362 l 490 1166 l 338 1166 m 602 1166 l 699 1362 l 907 1362 l 754 1166 l 602 1166 z "},"ű":{"ha":901,"x_min":56,"x_max":832,"o":"m 832 0 l 568 0 l 568 131 q 492 19 549 55 q 330 -17 434 -17 q 233 -12 273 -17 q 162 8 193 -6 q 111 45 130 23 q 79 103 92 67 q 62 184 66 139 q 57 294 57 230 l 56 833 l 319 833 l 319 357 q 322 275 319 302 q 340 231 326 248 q 376 209 354 213 q 443 205 398 205 q 537 240 508 205 q 567 351 567 275 l 568 833 l 832 833 l 832 0 m 245 917 l 343 1112 l 551 1112 l 399 917 l 245 917 m 510 917 l 607 1112 l 815 1112 l 663 917 l 510 917 z "},"Ų":{"ha":1072,"x_min":56,"x_max":1017,"o":"m 1017 444 q 1009 290 1017 355 q 983 174 1001 226 q 934 89 965 123 q 858 33 903 55 q 750 -1 813 10 q 658 -106 685 -66 q 631 -179 631 -146 q 652 -218 631 -210 q 724 -214 673 -227 l 724 -278 q 635 -294 696 -294 q 534 -270 565 -294 q 503 -187 503 -245 q 540 -105 503 -145 q 668 -12 578 -66 q 536 -17 598 -17 q 367 -9 437 -17 q 241 21 297 -1 q 152 75 186 42 q 95 160 117 107 q 64 281 73 214 q 56 444 56 349 l 56 1083 l 347 1083 l 347 444 q 349 357 347 389 q 359 296 351 324 q 378 256 367 269 q 412 233 389 243 q 463 222 436 224 q 536 220 490 220 q 610 222 583 220 q 660 233 637 224 q 694 256 684 243 q 713 296 705 269 q 723 357 722 324 q 725 444 725 389 l 725 1083 l 1017 1083 l 1017 444 z "},"ų":{"ha":901,"x_min":56,"x_max":832,"o":"m 832 0 q 739 -105 766 -65 q 711 -179 711 -146 q 732 -218 711 -210 q 804 -214 753 -227 l 804 -278 q 715 -294 777 -294 q 614 -270 646 -294 q 583 -187 583 -245 q 625 -102 583 -144 q 768 0 667 -60 l 568 0 l 568 131 q 492 19 549 55 q 330 -17 434 -17 q 233 -12 273 -17 q 162 8 193 -6 q 111 45 130 23 q 79 103 92 67 q 62 184 66 139 q 57 294 57 230 l 56 833 l 319 833 l 319 357 q 322 275 319 302 q 340 231 326 248 q 376 209 354 213 q 443 205 398 205 q 537 240 508 205 q 567 351 567 275 l 568 833 l 832 833 l 832 0 z "},"Ŵ":{"ha":1670,"x_min":7,"x_max":1664,"o":"m 1086 1083 l 1218 250 l 1229 250 l 1381 1083 l 1664 1083 l 1459 0 l 968 0 l 836 833 l 825 833 l 714 0 l 218 0 l 7 1083 l 304 1083 l 461 250 l 472 250 l 582 1083 l 1086 1083 m 550 1166 l 741 1361 l 916 1361 l 1105 1166 l 951 1166 l 833 1246 l 825 1246 l 704 1166 l 550 1166 z "},"ŵ":{"ha":1379,"x_min":7,"x_max":1372,"o":"m 904 833 l 1006 180 l 1014 180 l 1132 833 l 1372 833 l 1208 0 l 791 0 l 690 639 l 682 639 l 596 0 l 176 0 l 7 833 l 262 833 l 383 180 l 392 180 l 476 833 l 904 833 m 411 917 l 602 1111 l 777 1111 l 966 917 l 812 917 l 694 996 l 686 996 l 566 917 l 411 917 z "},"Ŷ":{"ha":1058,"x_min":7,"x_max":1051,"o":"m 1051 1083 l 726 416 l 685 416 l 685 0 l 393 0 l 393 416 l 342 416 l 7 1083 l 334 1083 l 536 637 l 545 637 l 742 1083 l 1051 1083 m 261 1166 l 452 1361 l 627 1361 l 817 1166 l 663 1166 l 545 1246 l 536 1246 l 415 1166 l 261 1166 z "},"ŷ":{"ha":883,"x_min":7,"x_max":876,"o":"m 635 -65 q 603 -153 621 -117 q 560 -213 585 -188 q 497 -252 535 -239 q 412 -272 460 -266 q 296 -278 365 -278 l 106 -278 l 106 -56 l 262 -56 q 364 -46 342 -56 q 397 4 386 -37 l 404 28 l 237 28 l 7 833 l 282 833 l 450 216 l 458 216 l 618 833 l 876 833 l 635 -65 m 175 917 l 366 1111 l 541 1111 l 730 917 l 576 917 l 458 996 l 450 996 l 329 917 l 175 917 z "},"Ÿ":{"ha":1058,"x_min":7,"x_max":1051,"o":"m 1051 1083 l 726 416 l 685 416 l 685 0 l 393 0 l 393 416 l 342 416 l 7 1083 l 334 1083 l 536 637 l 545 637 l 742 1083 l 1051 1083 m 277 1166 l 277 1361 l 498 1361 l 498 1166 l 277 1166 m 582 1166 l 582 1361 l 804 1361 l 804 1166 l 582 1166 z "},"Ź":{"ha":1183,"x_min":56,"x_max":1128,"o":"m 87 1083 l 1099 1083 l 1099 843 l 452 250 l 1128 250 l 1128 0 l 56 0 l 56 268 l 673 833 l 87 833 l 87 1083 m 493 1166 l 590 1362 l 868 1362 l 660 1166 l 493 1166 z "},"ź":{"ha":952,"x_min":56,"x_max":897,"o":"m 81 833 l 875 833 l 875 629 l 458 236 l 897 236 l 897 0 l 56 0 l 56 201 l 476 597 l 81 597 l 81 833 m 395 917 l 492 1112 l 770 1112 l 561 917 l 395 917 z "},"Ż":{"ha":1183,"x_min":56,"x_max":1128,"o":"m 87 1083 l 1099 1083 l 1099 843 l 452 250 l 1128 250 l 1128 0 l 56 0 l 56 268 l 673 833 l 87 833 l 87 1083 m 452 1166 l 452 1361 l 729 1361 l 729 1166 l 452 1166 z "},"ż":{"ha":952,"x_min":56,"x_max":897,"o":"m 81 833 l 875 833 l 875 629 l 458 236 l 897 236 l 897 0 l 56 0 l 56 201 l 476 597 l 81 597 l 81 833 m 353 917 l 353 1111 l 631 1111 l 631 917 l 353 917 z "},"Ž":{"ha":1183,"x_min":56,"x_max":1128,"o":"m 87 1083 l 1099 1083 l 1099 843 l 452 250 l 1128 250 l 1128 0 l 56 0 l 56 268 l 673 833 l 87 833 l 87 1083 m 311 1361 l 465 1361 l 586 1282 l 595 1282 l 713 1361 l 867 1361 l 676 1166 l 501 1166 l 311 1361 z "},"ž":{"ha":952,"x_min":56,"x_max":897,"o":"m 81 833 l 875 833 l 875 629 l 458 236 l 897 236 l 897 0 l 56 0 l 56 201 l 476 597 l 81 597 l 81 833 m 212 1111 l 367 1111 l 488 1032 l 496 1032 l 614 1111 l 768 1111 l 578 917 l 403 917 l 212 1111 z "},"ƒ":{"ha":863,"x_min":7,"x_max":857,"o":"m 656 917 q 585 905 600 917 q 561 842 569 892 l 559 833 l 755 833 l 717 611 l 521 611 l 415 3 q 386 -113 403 -67 q 341 -193 368 -159 q 271 -244 314 -227 q 173 -270 229 -262 q 35 -278 117 -278 l 7 -278 l 47 -41 q 120 -31 100 -41 q 151 12 141 -21 l 256 611 l 147 611 l 186 833 l 294 833 q 333 971 309 920 q 401 1055 356 1023 q 509 1099 446 1088 q 676 1111 573 1111 l 857 1111 l 823 917 l 656 917 z "},"ȷ":{"ha":498,"x_min":69,"x_max":429,"o":"m 69 -41 q 148 -26 130 -41 q 165 43 165 -10 l 165 833 l 429 833 l 429 3 q 423 -97 429 -56 q 402 -170 417 -138 q 363 -222 387 -202 q 301 -255 339 -242 q 214 -273 262 -268 q 97 -278 165 -278 l 69 -278 l 69 -41 z "},"ˆ":{"ha":722,"x_min":83,"x_max":639,"o":"m 273 1111 l 449 1111 l 639 917 l 485 917 l 367 996 l 358 996 l 237 917 l 83 917 l 273 1111 z "},"ˇ":{"ha":722,"x_min":83,"x_max":639,"o":"m 273 917 l 83 1111 l 237 1111 l 358 1032 l 367 1032 l 485 1111 l 639 1111 l 449 917 l 273 917 z "},"˘":{"ha":583,"x_min":83,"x_max":500,"o":"m 500 1111 q 458 953 500 992 q 293 914 417 914 q 125 953 167 914 q 83 1111 83 992 l 208 1109 q 210 1034 208 1059 q 222 993 212 1009 q 247 973 232 977 q 293 970 262 970 q 330 972 317 970 q 353 982 343 975 q 368 1006 363 989 q 373 1047 372 1024 q 375 1111 375 1069 l 500 1111 z "},"˙":{"ha":444,"x_min":83,"x_max":361,"o":"m 83 1111 l 361 1111 l 361 917 l 83 917 l 83 1111 z "},"˚":{"ha":486,"x_min":83,"x_max":403,"o":"m 244 917 q 119 940 155 917 q 83 1023 83 962 q 119 1106 83 1084 q 244 1128 154 1128 q 368 1106 332 1128 q 403 1023 403 1084 q 368 940 403 963 q 244 917 332 917 m 191 1068 q 186 1063 191 1068 q 180 1022 180 1058 q 191 976 180 986 q 243 966 202 966 q 295 976 283 966 q 306 1022 306 986 q 295 1068 306 1058 q 243 1078 283 1078 q 191 1068 202 1078 z "},"˛":{"ha":415,"x_min":83,"x_max":332,"o":"m 83 -187 q 125 -102 83 -144 q 268 0 166 -60 l 332 0 q 238 -105 266 -65 q 211 -179 211 -146 q 232 -218 211 -210 q 304 -214 254 -227 l 304 -278 q 215 -294 277 -294 q 115 -270 146 -294 q 83 -187 83 -245 z "},"˜":{"ha":722,"x_min":0,"x_max":555,"o":"m 395 1048 q 436 1061 422 1048 q 458 1105 450 1074 l 555 1105 q 514 958 555 1001 q 372 916 473 916 q 296 928 330 916 q 244 955 262 940 q 204 982 226 970 q 161 994 182 994 q 120 981 134 994 q 97 937 105 968 l 0 937 q 41 1085 0 1042 q 183 1128 83 1128 q 259 1115 225 1128 q 312 1088 294 1103 q 352 1061 330 1074 q 395 1048 374 1048 z "},"˝":{"ha":736,"x_min":83,"x_max":653,"o":"m 347 917 l 444 1112 l 653 1112 l 500 917 l 347 917 m 83 917 l 180 1112 l 389 1112 l 236 917 l 83 917 z "},"̀":{"ha":0,"x_min":83,"x_max":458,"o":"m 458 917 l 292 917 l 83 1112 l 361 1112 l 458 917 z "},"́":{"ha":0,"x_min":83,"x_max":458,"o":"m 83 917 l 180 1112 l 458 1112 l 250 917 l 83 917 z "},"̂":{"ha":0,"x_min":83,"x_max":639,"o":"m 273 1111 l 449 1111 l 639 917 l 485 917 l 367 996 l 358 996 l 237 917 l 83 917 l 273 1111 z "},"̃":{"ha":0,"x_min":0,"x_max":555,"o":"m 395 1048 q 436 1061 422 1048 q 458 1105 450 1074 l 555 1105 q 514 958 555 1001 q 372 916 473 916 q 296 928 330 916 q 244 955 262 940 q 204 982 226 970 q 161 994 182 994 q 120 981 134 994 q 97 937 105 968 l 0 937 q 41 1085 0 1042 q 183 1128 83 1128 q 259 1115 225 1128 q 312 1088 294 1103 q 352 1061 330 1074 q 395 1048 374 1048 z "},"̄":{"ha":0,"x_min":69,"x_max":514,"o":"m 514 1055 l 514 930 l 69 930 l 69 1055 l 514 1055 z "},"̆":{"ha":0,"x_min":83,"x_max":500,"o":"m 500 1111 q 458 953 500 992 q 293 914 417 914 q 125 953 167 914 q 83 1111 83 992 l 208 1109 q 210 1034 208 1059 q 222 993 212 1009 q 247 973 232 977 q 293 970 262 970 q 330 972 317 970 q 353 982 343 975 q 368 1006 363 989 q 373 1047 372 1024 q 375 1111 375 1069 l 500 1111 z "},"̇":{"ha":0,"x_min":83,"x_max":361,"o":"m 83 1111 l 361 1111 l 361 917 l 83 917 l 83 1111 z "},"̈":{"ha":0,"x_min":69,"x_max":597,"o":"m 69 1111 l 292 1111 l 292 917 l 69 917 l 69 1111 m 375 917 l 375 1111 l 597 1111 l 597 917 l 375 917 z "},"̊":{"ha":0,"x_min":83,"x_max":403,"o":"m 244 917 q 119 940 155 917 q 83 1023 83 962 q 119 1106 83 1084 q 244 1128 154 1128 q 368 1106 332 1128 q 403 1023 403 1084 q 368 940 403 963 q 244 917 332 917 m 191 1068 q 186 1063 191 1068 q 180 1022 180 1058 q 191 976 180 986 q 243 966 202 966 q 295 976 283 966 q 306 1022 306 986 q 295 1068 306 1058 q 243 1078 283 1078 q 191 1068 202 1078 z "},"̋":{"ha":0,"x_min":83,"x_max":653,"o":"m 347 917 l 444 1112 l 653 1112 l 500 917 l 347 917 m 83 917 l 180 1112 l 389 1112 l 236 917 l 83 917 z "},"̌":{"ha":0,"x_min":83,"x_max":639,"o":"m 273 917 l 83 1111 l 237 1111 l 358 1032 l 367 1032 l 485 1111 l 639 1111 l 449 917 l 273 917 z "},"̒":{"ha":0,"x_min":83,"x_max":347,"o":"m 347 889 l 83 889 l 83 947 q 129 1092 83 1056 q 307 1128 175 1128 l 346 1128 l 346 1064 q 248 1055 276 1064 q 214 1022 220 1046 l 347 1022 l 347 889 z "},"̦":{"ha":0,"x_min":83,"x_max":347,"o":"m 83 -56 l 347 -56 l 347 -114 q 301 -258 347 -222 q 123 -294 256 -294 l 85 -294 l 85 -231 q 182 -222 155 -231 q 216 -189 210 -214 l 83 -189 l 83 -56 z "},"̧":{"ha":0,"x_min":83,"x_max":346,"o":"m 346 -172 q 293 -266 346 -237 q 122 -294 240 -294 l 83 -294 l 83 -231 q 144 -230 123 -231 q 182 -225 165 -229 q 206 -215 199 -222 q 215 -199 212 -208 q 218 -172 218 -189 q 215 -146 218 -155 q 206 -129 212 -136 q 182 -119 199 -122 q 144 -115 165 -116 q 83 -114 123 -114 l 83 -50 l 199 1 l 240 1 l 207 -54 q 312 -92 279 -63 q 346 -172 346 -121 z "},"̨":{"ha":0,"x_min":83,"x_max":332,"o":"m 83 -187 q 125 -102 83 -144 q 268 0 166 -60 l 332 0 q 238 -105 266 -65 q 211 -179 211 -146 q 232 -218 211 -210 q 304 -214 254 -227 l 304 -278 q 215 -294 277 -294 q 115 -270 146 -294 q 83 -187 83 -245 z "},"Ẁ":{"ha":1670,"x_min":7,"x_max":1664,"o":"m 1086 1083 l 1218 250 l 1229 250 l 1381 1083 l 1664 1083 l 1459 0 l 968 0 l 836 833 l 825 833 l 714 0 l 218 0 l 7 1083 l 304 1083 l 461 250 l 472 250 l 582 1083 l 1086 1083 m 551 1362 l 829 1362 l 926 1166 l 760 1166 l 551 1362 z "},"ẁ":{"ha":1379,"x_min":7,"x_max":1372,"o":"m 904 833 l 1006 180 l 1014 180 l 1132 833 l 1372 833 l 1208 0 l 791 0 l 690 639 l 682 639 l 596 0 l 176 0 l 7 833 l 262 833 l 383 180 l 392 180 l 476 833 l 904 833 m 412 1112 l 690 1112 l 787 917 l 621 917 l 412 1112 z "},"Ẃ":{"ha":1670,"x_min":7,"x_max":1664,"o":"m 1086 1083 l 1218 250 l 1229 250 l 1381 1083 l 1664 1083 l 1459 0 l 968 0 l 836 833 l 825 833 l 714 0 l 218 0 l 7 1083 l 304 1083 l 461 250 l 472 250 l 582 1083 l 1086 1083 m 732 1166 l 829 1362 l 1107 1362 l 899 1166 l 732 1166 z "},"ẃ":{"ha":1379,"x_min":7,"x_max":1372,"o":"m 904 833 l 1006 180 l 1014 180 l 1132 833 l 1372 833 l 1208 0 l 791 0 l 690 639 l 682 639 l 596 0 l 176 0 l 7 833 l 262 833 l 383 180 l 392 180 l 476 833 l 904 833 m 593 917 l 690 1112 l 968 1112 l 760 917 l 593 917 z "},"Ẅ":{"ha":1670,"x_min":7,"x_max":1664,"o":"m 1086 1083 l 1218 250 l 1229 250 l 1381 1083 l 1664 1083 l 1459 0 l 968 0 l 836 833 l 825 833 l 714 0 l 218 0 l 7 1083 l 304 1083 l 461 250 l 472 250 l 582 1083 l 1086 1083 m 566 1166 l 566 1361 l 787 1361 l 787 1166 l 566 1166 m 871 1166 l 871 1361 l 1093 1361 l 1093 1166 l 871 1166 z "},"ẅ":{"ha":1379,"x_min":7,"x_max":1372,"o":"m 904 833 l 1006 180 l 1014 180 l 1132 833 l 1372 833 l 1208 0 l 791 0 l 690 639 l 682 639 l 596 0 l 176 0 l 7 833 l 262 833 l 383 180 l 392 180 l 476 833 l 904 833 m 427 917 l 427 1111 l 648 1111 l 648 917 l 427 917 m 732 917 l 732 1111 l 954 1111 l 954 917 l 732 917 z "},"ẞ":{"ha":1137,"x_min":69,"x_max":1082,"o":"m 1043 1083 l 1043 828 l 787 581 q 895 573 852 578 q 973 556 939 568 q 1027 525 1008 543 q 1060 476 1047 507 q 1077 408 1073 446 q 1082 313 1082 370 l 1082 285 q 1077 180 1082 222 q 1060 105 1073 138 q 1028 52 1048 71 q 975 21 1009 33 q 897 4 940 8 q 790 0 854 0 l 545 0 l 545 250 l 673 250 q 768 268 747 250 q 790 343 790 286 q 768 420 790 402 q 673 437 747 437 l 493 437 l 493 660 l 739 861 l 347 861 l 347 0 l 69 0 l 69 1083 l 1043 1083 z "},"Ỳ":{"ha":1058,"x_min":7,"x_max":1051,"o":"m 1051 1083 l 726 416 l 685 416 l 685 0 l 393 0 l 393 416 l 342 416 l 7 1083 l 334 1083 l 536 637 l 545 637 l 742 1083 l 1051 1083 m 262 1362 l 541 1362 l 637 1166 l 471 1166 l 262 1362 z "},"ỳ":{"ha":883,"x_min":7,"x_max":876,"o":"m 635 -65 q 603 -153 621 -117 q 560 -213 585 -188 q 497 -252 535 -239 q 412 -272 460 -266 q 296 -278 365 -278 l 106 -278 l 106 -56 l 262 -56 q 364 -46 342 -56 q 397 4 386 -37 l 404 28 l 237 28 l 7 833 l 282 833 l 450 216 l 458 216 l 618 833 l 876 833 l 635 -65 m 176 1112 l 454 1112 l 551 917 l 385 917 l 176 1112 z "},"–":{"ha":954,"x_min":69,"x_max":885,"o":"m 69 553 l 885 553 l 885 317 l 69 317 l 69 553 z "},"—":{"ha":1453,"x_min":69,"x_max":1383,"o":"m 69 553 l 1383 553 l 1383 317 l 69 317 l 69 553 z "},"‘":{"ha":444,"x_min":83,"x_max":403,"o":"m 403 708 l 83 708 l 83 878 q 130 1059 83 1012 q 307 1105 176 1105 l 401 1105 l 401 1028 q 255 1017 293 1028 q 212 972 217 1006 l 403 972 l 403 708 z "},"’":{"ha":444,"x_min":41,"x_max":361,"o":"m 41 1111 l 361 1111 l 361 942 q 315 761 361 808 q 138 714 269 714 l 43 714 l 43 791 q 189 802 151 791 q 232 847 227 813 l 41 847 l 41 1111 z "},"‚":{"ha":444,"x_min":41,"x_max":361,"o":"m 41 264 l 361 264 l 361 94 q 315 -87 361 -40 q 138 -134 269 -134 l 43 -134 l 43 -56 q 189 -45 151 -56 q 232 0 227 -34 l 41 0 l 41 264 z "},"“":{"ha":888,"x_min":83,"x_max":847,"o":"m 847 708 l 528 708 l 528 878 q 574 1059 528 1012 q 751 1105 620 1105 l 846 1105 l 846 1028 q 700 1017 737 1028 q 657 972 662 1006 l 847 972 l 847 708 m 83 708 l 83 878 q 130 1059 83 1012 q 307 1105 176 1105 l 401 1105 l 401 1028 q 255 1017 293 1028 q 212 972 217 1006 l 403 972 l 403 708 l 83 708 z "},"”":{"ha":888,"x_min":41,"x_max":806,"o":"m 41 1111 l 361 1111 l 361 942 q 315 761 361 808 q 138 714 269 714 l 43 714 l 43 791 q 189 802 151 791 q 232 847 227 813 l 41 847 l 41 1111 m 486 847 l 486 1111 l 806 1111 l 806 942 q 760 761 806 808 q 582 714 713 714 l 488 714 l 488 791 q 634 802 596 791 q 676 847 671 813 l 486 847 z "},"„":{"ha":888,"x_min":41,"x_max":806,"o":"m 41 264 l 361 264 l 361 94 q 315 -87 361 -40 q 138 -134 269 -134 l 43 -134 l 43 -56 q 189 -45 151 -56 q 232 0 227 -34 l 41 0 l 41 264 m 486 0 l 486 264 l 806 264 l 806 94 q 760 -87 806 -40 q 582 -134 713 -134 l 488 -134 l 488 -56 q 634 -45 596 -56 q 676 0 671 -34 l 486 0 z "},"†":{"ha":743,"x_min":69,"x_max":673,"o":"m 273 313 l 297 715 l 69 696 l 69 890 l 294 868 l 273 1111 l 468 1111 l 447 868 l 673 889 l 673 694 l 444 715 l 468 313 l 376 81 l 368 81 l 273 313 z "},"‡":{"ha":743,"x_min":69,"x_max":673,"o":"m 273 41 l 294 285 l 69 262 l 69 457 l 301 437 l 301 715 l 69 696 l 69 890 l 294 868 l 273 1111 l 468 1111 l 447 868 l 673 889 l 673 694 l 440 717 l 440 436 l 673 458 l 673 264 l 447 285 l 468 41 l 273 41 z "},"•":{"ha":555,"x_min":83,"x_max":472,"o":"m 279 243 q 123 279 162 243 q 83 424 83 315 q 123 568 83 532 q 279 604 162 604 q 433 568 395 604 q 472 424 472 532 q 433 279 472 315 q 279 243 395 243 z "},"…":{"ha":486,"x_min":83,"x_max":403,"o":"m 83 264 l 403 264 l 403 0 l 83 0 l 83 264 z "},"‰":{"ha":1965,"x_min":41,"x_max":1923,"o":"m 252 0 l 901 1083 l 1096 1083 l 446 0 l 252 0 m 105 609 q 73 642 105 609 q 41 821 41 675 q 105 1033 41 966 q 313 1099 170 1099 q 519 1033 455 1099 q 583 821 583 967 q 519 609 583 675 q 313 543 456 543 q 105 609 170 543 m 205 877 q 205 866 205 877 q 204 821 204 856 q 205 764 204 785 q 211 725 206 743 q 222 699 216 707 q 241 685 228 690 q 271 677 255 679 q 313 676 286 676 q 355 677 339 676 q 384 685 370 679 q 404 699 397 690 q 414 725 410 707 q 420 764 419 743 q 421 821 421 785 q 420 877 421 856 q 414 916 419 898 q 404 942 410 934 q 384 957 397 951 q 355 964 370 962 q 313 965 339 965 q 271 964 286 965 q 241 957 255 962 q 222 942 228 951 q 211 916 216 934 q 205 877 206 898 m 821 49 q 789 82 821 49 q 757 261 757 115 q 821 473 757 407 q 1028 539 885 539 q 1235 473 1171 539 q 1299 261 1299 408 q 1235 49 1299 115 q 1028 -17 1171 -17 q 821 49 885 -17 m 921 317 q 920 307 921 317 q 920 261 920 296 q 921 205 920 226 q 926 166 922 184 q 937 139 931 148 q 957 125 943 131 q 986 118 970 119 q 1028 117 1002 117 q 1070 118 1055 117 q 1099 125 1086 119 q 1119 139 1112 131 q 1129 166 1125 148 q 1135 205 1134 184 q 1136 261 1136 226 q 1135 317 1136 296 q 1129 356 1134 338 q 1119 383 1125 374 q 1099 397 1112 391 q 1070 404 1086 403 q 1028 406 1055 406 q 986 404 1002 406 q 957 397 970 403 q 937 383 943 391 q 926 356 931 374 q 921 317 922 338 m 1446 49 q 1414 82 1446 49 q 1382 261 1382 115 q 1446 473 1382 408 q 1653 539 1510 539 q 1859 473 1795 539 q 1923 261 1923 408 q 1859 49 1923 115 q 1653 -17 1795 -17 q 1446 49 1510 -17 m 1545 317 q 1545 307 1545 317 q 1544 261 1544 296 q 1545 205 1544 226 q 1551 166 1546 184 q 1562 139 1556 148 q 1581 125 1568 131 q 1611 118 1595 119 q 1653 117 1626 117 q 1695 118 1679 117 q 1724 125 1710 119 q 1744 139 1737 131 q 1754 166 1750 148 q 1760 205 1759 184 q 1761 261 1761 226 q 1760 317 1761 296 q 1754 356 1759 338 q 1744 383 1750 374 q 1724 397 1737 391 q 1695 404 1710 403 q 1653 406 1679 406 q 1611 404 1626 406 q 1581 397 1595 403 q 1562 383 1568 391 q 1551 356 1556 374 q 1545 317 1546 338 z "},"‹":{"ha":472,"x_min":83,"x_max":389,"o":"m 83 339 l 83 492 l 389 720 l 389 539 l 227 421 l 227 412 l 389 292 l 389 111 l 83 339 z "},"›":{"ha":472,"x_min":83,"x_max":389,"o":"m 389 339 l 83 111 l 83 292 l 245 412 l 245 421 l 83 539 l 83 720 l 389 492 l 389 339 z "},"⁄":{"ha":808,"x_min":-111,"x_max":864,"o":"m -111 -278 l 697 1111 l 864 1111 l 56 -278 l -111 -278 z "},"€":{"ha":1320,"x_min":41,"x_max":1280,"o":"m 41 726 l 183 726 q 209 856 192 801 q 257 954 227 911 q 328 1024 288 996 q 429 1068 369 1051 q 561 1093 488 1086 q 729 1100 633 1100 q 924 1092 842 1100 q 1069 1064 1006 1084 q 1172 1016 1132 1045 q 1236 942 1211 987 q 1270 842 1261 897 q 1279 710 1280 787 l 974 710 q 972 767 975 745 q 961 808 970 789 q 936 836 951 827 q 892 853 921 846 q 825 862 863 860 q 729 864 787 864 q 625 860 663 864 q 557 840 587 855 q 512 799 527 825 q 490 726 498 772 l 842 726 l 842 602 l 481 602 l 481 542 l 481 490 l 842 490 l 842 366 l 489 366 q 505 301 494 327 q 533 259 516 276 q 578 234 549 243 q 642 223 608 226 q 729 220 675 220 q 813 222 779 220 q 875 228 847 224 q 920 240 903 231 q 948 258 937 248 q 965 287 960 269 q 972 325 970 305 q 974 376 975 345 l 1279 376 q 1270 244 1280 300 q 1236 142 1261 188 q 1171 68 1211 97 q 1069 19 1131 39 q 924 -9 1006 -1 q 729 -17 842 -17 q 530 -6 612 -17 q 384 31 448 5 q 280 101 319 56 q 216 210 240 146 q 183 366 193 274 l 41 366 l 41 490 l 175 490 l 175 542 q 176 602 175 582 l 41 602 l 41 726 z "},"™":{"ha":857,"x_min":69,"x_max":802,"o":"m 168 778 l 168 1028 l 69 1028 l 69 1103 l 357 1103 l 357 1028 l 256 1028 l 256 778 l 168 778 m 387 778 l 387 1103 l 546 1103 l 595 861 l 599 861 l 647 1103 l 802 1103 l 802 778 l 714 778 l 714 1019 l 711 1019 l 661 778 l 526 778 l 478 1019 l 475 1019 l 475 778 l 387 778 z "},"−":{"ha":722,"x_min":68,"x_max":624,"o":"m 68 553 l 624 553 l 624 317 l 68 317 l 68 553 z "},"∞":{"ha":956,"x_min":41,"x_max":914,"o":"m 550 463 q 539 400 547 439 q 632 323 559 323 q 671 325 656 323 q 699 332 686 326 q 718 346 712 338 q 728 371 724 354 q 733 409 732 389 q 734 463 734 429 q 732 531 734 509 q 719 568 730 553 q 691 586 708 583 q 640 589 675 589 q 579 557 601 589 q 550 463 558 526 m 100 239 q 71 274 100 239 q 41 463 41 309 q 100 686 41 616 q 290 755 159 755 q 402 730 360 755 q 465 644 444 705 q 665 745 528 745 q 855 678 796 745 q 914 463 914 611 q 855 230 914 302 q 665 158 796 158 q 553 184 595 158 q 490 273 511 210 q 290 170 429 170 q 100 239 159 170 m 221 463 q 223 391 221 414 q 237 351 226 367 q 264 332 248 336 q 315 329 281 329 q 376 367 353 329 q 407 463 399 405 q 412 493 408 474 q 416 518 416 513 q 323 589 397 589 q 268 586 286 589 q 238 568 250 583 q 224 531 227 553 q 221 463 221 509 z "},"≈":{"ha":722,"x_min":83,"x_max":639,"o":"m 478 306 q 519 319 505 306 q 542 363 534 332 l 639 363 q 597 215 639 258 q 456 172 556 172 q 379 185 414 172 q 327 212 345 197 q 287 239 309 227 q 244 252 264 252 q 203 239 217 252 q 180 195 189 226 l 83 195 q 125 342 83 299 q 267 385 166 385 q 343 372 309 385 q 395 345 377 360 q 436 318 414 330 q 478 306 458 306 m 83 472 q 125 620 83 576 q 267 663 166 663 q 343 650 309 663 q 395 623 377 637 q 436 596 414 608 q 478 583 458 583 q 519 596 505 583 q 542 640 534 609 l 639 640 q 597 493 639 536 q 456 450 556 450 q 379 463 414 450 q 327 490 345 475 q 287 517 309 505 q 244 529 264 529 q 203 516 217 529 q 180 472 189 503 l 83 472 z "},"≠":{"ha":954,"x_min":69,"x_max":885,"o":"m 69 386 l 412 386 l 457 525 l 69 525 l 69 761 l 532 761 l 644 1111 l 811 1111 l 699 761 l 885 761 l 885 525 l 624 525 l 579 386 l 885 386 l 885 150 l 504 150 l 367 -278 l 200 -278 l 338 150 l 69 150 l 69 386 z "},"ﬁ":{"ha":1000,"x_min":41,"x_max":937,"o":"m 667 833 l 930 833 l 930 0 l 667 0 l 667 833 m 41 611 l 41 833 l 125 833 q 139 971 125 920 q 193 1055 153 1023 q 294 1099 232 1088 q 458 1111 355 1111 l 937 1111 l 937 917 l 471 917 q 402 905 415 917 q 389 842 389 892 l 389 833 l 570 833 l 570 611 l 389 611 l 389 0 l 125 0 l 125 611 l 41 611 z "},"ﬂ":{"ha":1075,"x_min":41,"x_max":1034,"o":"m 1034 236 l 1034 0 l 882 0 q 771 9 812 0 q 704 46 730 19 q 668 115 677 73 q 660 228 659 157 l 660 917 l 471 917 q 402 905 415 917 q 389 842 389 892 l 389 833 l 570 833 l 570 611 l 389 611 l 389 0 l 125 0 l 125 611 l 41 611 l 41 833 l 125 833 q 139 971 125 920 q 193 1055 153 1023 q 294 1099 232 1088 q 458 1111 355 1111 l 924 1111 l 924 307 q 926 269 924 281 q 942 248 929 256 q 975 238 955 239 q 1034 236 994 236 z "}}}
